<svg xmlns="http://www.w3.org/2000/svg" viewBox="0 0 1000 1000">
<style>
	#horizontal,
	#stacked {
		display: none;
	}

	@media all and (min-aspect-ratio: 570/270) {
		#horizontal { display: block; }
		#mark { display: none; }
	}

	@media all and (max-aspect-ratio: 12/18) {
		#mark,
		#stacked-design { display: none; }
		#stacked { display: block; }
	}

	@media all and (max-aspect-ratio: 120/205) {
		#stacked-design { display: block; }
	}
</style>
  <g id="stacked" transform="scale(1.6) translate(-200, -160)">
    <path id="stacked-mark" fill="#C00" d="M760.7 150.5l-150.5-40.3 40.3-69.9L500 80.7V0L389.8 110.2l-40.3-69.9-40.3 150.5-69.9-40.3L279.6 301h-80.7l110.2 110.2-69.9 40.3 150.5 40.3-40.3 69.9L500 521.5v80.7L610.2 492l40.3 69.9 40.3-150.5 69.9 40.3-40.3-150.5h80.7L690.9 190.9l69.8-40.4zm-170.8-5.2l12.5 96.6 53.3-30.8-37.5 89.9h61.6l-77.4 59.1 53.3 30.8-96.6 12.5 30.8 53.3-89.9-37.4v61.6l-59.1-77.4-30.8 53.3-12.5-96.6-53.3 30.8 37.5-89.9h-61.6l77.4-59.1-53.3-30.8 96.6-12.5-30.8-53.3 89.9 37.5v-61.6l59.1 77.4 30.8-53.4z"/>
    <path id="stacked-aten" fill="#414042" d="M398 791.4h-38.9v-24.7h106v24.7h-38.9v111.8H398V791.4zm127.9-24.7H619v24.7h-65v31.3h55v24.1h-55v31.7h65v24.7h-93.1V766.7zm199.9 73.1c-6.8-6.4-16.3-18.7-16.3-18.7s2 15 2 24.9v57.2h-26.3V765.5h2.8l68.8 64.6c6.6 6.2 16.1 18.7 16.1 18.7s-1.8-15.5-1.8-24.9v-57.2h26.3v137.7h-2.8l-68.8-64.6zm-427.9 63.4h29.5L265 765.5h-2.4l-60 137.7h27.1l10.7-26.1h46.5l11 26.1zM250 853.6l5.3-13c3.8-9.4 7.8-23.7 8-24.3.4 1.4 4.4 15.2 8.2 24.3l5.5 13h-27z"/>
    <path id="stacked-design" fill="#414042" d="M531.5 978.5c0-12.9 9.1-22.4 22.3-22.4 7.1 0 12.3 1.9 15.9 6l-6.1 6c-2.2-2.2-4.7-4-9.8-4-7.9 0-13 6.1-13 14.3 0 8.2 5.3 14.4 14.5 14.4 2.8 0 6.3-.5 8.5-1.6v-7.1h-10.5v-7.9H572v19.5c-2.5 2.1-8.8 5.1-16.8 5.1-14.2.1-23.7-9.4-23.7-22.3zm61.8-21.9h16.2c8.9 0 16.3 4.2 16.3 14.4 0 6.6-3.5 10.8-8.5 12.8l10 16.5H617l-8.9-15.2h-5.7v15.2h-9v-43.7zm15.9 21c4.4 0 7.3-1.7 7.3-6.6 0-4.9-3-6.5-7.3-6.5h-6.9v13h6.9zm35.6.9c0-12.9 10-22.4 22.6-22.4 12.6 0 22.6 9.5 22.6 22.4 0 12.9-10 22.4-22.6 22.4-12.6 0-22.6-9.5-22.6-22.4zm35.9 0c0-8.2-5.4-14.4-13.4-14.4s-13.4 6.2-13.4 14.4 5.4 14.4 13.4 14.4 13.4-6.3 13.4-14.4zm29.6 6v-27.9h9V984c0 6.4 2.8 8.8 8.7 8.8 5.9 0 8.6-2.4 8.6-8.8v-27.4h9v27.9c0 11-7.6 16.4-17.6 16.4-10.1 0-17.7-5.3-17.7-16.4zm57.1-27.9h15.4c8.9 0 16.3 4.4 16.3 14.6s-7.4 14.7-16.3 14.7h-6.4v14.3h-9v-43.6zm15.1 21.5c4.4 0 7.3-2 7.3-6.8 0-4.9-3-6.7-7.3-6.7h-6.1v13.6h6.1zM201 956.6h13.4c13.4 0 23 8.9 23 21.8s-9.5 21.8-23 21.8H201v-43.6zm13 35.8c9.7 0 14.1-5.8 14.1-13.9 0-8.2-4.4-13.9-14.1-13.9h-4v27.9h4zm91.4-.7l7.3-4.2c1.9 3.1 4.4 5.5 8.9 5.5 3.7 0 6.1-1.9 6.1-4.4 0-3.1-2.4-4.2-6.6-6l-2.2-1c-6.5-2.8-10.8-6.2-10.8-13.6 0-6.7 5.1-11.9 13.2-11.9 5.7 0 9.8 2 12.8 7.2l-7 4.5c-1.5-2.8-3.2-3.9-5.8-3.9-2.6 0-4.3 1.7-4.3 3.9 0 2.7 1.7 3.8 5.5 5.5l2.2 1c7.6 3.3 12 6.6 12 14.1 0 8.1-6.4 12.5-14.9 12.5-8.4 0-13.8-4-16.4-9.2zm51.3-35.1h9v43.7h-9v-43.7zm29.6 21.9c0-12.9 9.1-22.4 22.3-22.4 7.1 0 12.3 1.9 15.9 6l-6.1 6c-2.2-2.2-4.7-4-9.8-4-7.9 0-13 6.1-13 14.3 0 8.2 5.3 14.4 14.5 14.4 2.8 0 6.3-.5 8.5-1.6v-7.1H408v-7.9h18.8v19.5c-2.5 2.1-8.8 5.1-16.8 5.1-14.2.1-23.7-9.4-23.7-22.3zm74.8 1.5c-2.2-2.1-5.2-6-5.2-6s.6 4.8.6 8v18.3h-8.4v-44.1h.9l22 20.7c2.1 2 5.1 6 5.1 6s-.6-4.9-.6-8v-18.3h8.4v44.1h-.9L461.1 980zm-203.2-23.4h29.8v7.9h-20.8v10h17.6v7.7h-17.6v10.1h20.8v7.9h-29.8v-43.6z"/>
  </g>
  <g id="mark">
    <path id="mark_1_" fill="#C00" d="M930.3 251.6L681.9 185l66.6-115.3L500 136.3V3.1L318.1 185 251.6 69.7 185 318.1 69.7 251.6 136.3 500H3.1L185 681.9 69.7 748.4 318.1 815l-66.6 115.3L500 863.7v133.1L681.9 815l66.6 115.3L815 681.9l115.3 66.6L863.7 500h133.1L815 318.1l115.3-66.5zM648.4 243L669 402.4l88-50.8L695.2 500h101.6L669 597.6l88 50.8L597.6 669l50.8 88L500 695.2v101.6L402.4 669l-50.8 88L331 597.6l-88 50.8L304.8 500H203.2L331 402.4l-88-50.8L402.4 331l-50.8-88L500 304.8V203.2L597.6 331l50.8-88z"/>
  </g>
  <g id="horizontal" transform="scale(2) translate(-250, -280)">
    <path id="horizontal-mark" fill="#C00" d="M412.2 420.4l-110.5-29.6 29.6-51.3-110.5 29.6v-59.2l-80.9 80.9-29.6-51.3L80.9 450l-51.3-29.6 29.6 110.5H0l80.9 80.9-51.3 29.6L140.1 671l-29.6 51.3L221 692.7v59.2l80.9-80.9 29.6 51.3L361 611.7l51.3 29.6-29.6-110.5h59.2L361 450l51.2-29.6zm-125.3-3.9l9.2 70.9 39.1-22.6-27.5 66h45.2l-56.8 43.4 39.1 22.6-70.9 9.2 22.6 39.1-66-27.5v45.2L177.5 606l-22.6 39.1-9.2-70.9-39.1 22.6 27.5-66H89l56.8-43.4-39.1-22.6 70.9-9.2-22.6-39.1 66 27.5v-45.2l43.4 56.8 22.5-39.1z"/>
    <path id="horizontal-aten" fill="#414042" d="M706.9 503.2h-28.6V485h77.8v18.1h-28.6v82h-20.6v-81.9zm93.8-18.2H869v18.1h-47.7v23h40.3v17.7h-40.3v23.3H869v18.1h-68.3V485zm146.7 53.6c-5-4.7-11.9-13.7-11.9-13.7s1.5 11 1.5 18.3v42h-19.3v-101h2.1l50.5 47.4c4.9 4.6 11.8 13.7 11.8 13.7s-1.3-11.3-1.3-18.3v-42h19.3v101H998l-50.6-47.4zm-314 46.6H655l-45.8-101h-1.8l-44 101h19.9l7.9-19.2h34.1l8.1 19.2zm-35.1-36.4l3.9-9.5c2.8-6.9 5.7-17.4 5.9-17.8.3 1 3.2 11.2 6 17.8l4 9.5h-19.8z"/>
  </g>
</svg>
