<?xml version="1.0" encoding="utf-8"?>
<!-- Generator: Adobe Illustrator 19.1.0, SVG Export Plug-In . SVG Version: 6.00 Build 0)  -->
<svg version="1.1" id="Layer_1" xmlns="http://www.w3.org/2000/svg" xmlns:xlink="http://www.w3.org/1999/xlink" x="0px" y="0px"
	 width="1316.8px" height="761.3px" viewBox="424.3 -28.9 1316.8 761.3" style="enable-background:new 424.3 -28.9 1316.8 761.3;"
	 xml:space="preserve">
<style type="text/css">
	.st0{fill:none;stroke:#B8B7B5;stroke-miterlimit:10;}
	.st1{fill:#777777;}
	.st2{fill:#645E64;}
	.st3{fill:#F7AA0A;}
	.st4{fill:#00659B;}
	.st5{fill:#0098CE;}
	.st6{fill:none;stroke:#0098CE;stroke-width:8;stroke-miterlimit:10;}
	.st7{fill:none;stroke:#00659B;stroke-width:8;stroke-miterlimit:10;}
	.st8{fill:none;stroke:#F7AA0A;stroke-width:8;stroke-miterlimit:10;}
</style>
<line class="st0" x1="555.4" y1="-12.5" x2="555.4" y2="580.1"/>
<line class="st0" x1="555.4" y1="580.1" x2="1736.1" y2="580.1"/>
<line class="st0" x1="518.4" y1="-11.9" x2="555.1" y2="-11.9"/>
<line class="st0" x1="518.4" y1="86.7" x2="555.1" y2="86.7"/>
<line class="st0" x1="518.4" y1="185.4" x2="555.1" y2="185.4"/>
<line class="st0" x1="518.4" y1="284.1" x2="555.1" y2="284.1"/>
<line class="st0" x1="518.4" y1="382.7" x2="555.1" y2="382.7"/>
<line class="st0" x1="518.4" y1="481.4" x2="555.1" y2="481.4"/>
<line class="st0" x1="518.4" y1="580.1" x2="555.1" y2="580.1"/>
<g>
	<path class="st1" d="M430-17h2.7c1.3,0,2.2-0.3,2.9-1c0.7-0.7,0.9-1.5,0.9-2.6c0-1-0.3-1.8-0.9-2.4c-0.6-0.6-1.5-0.9-2.5-0.9
		s-1.8,0.3-2.4,0.8c-0.6,0.5-1,1.2-1,2.1h-5.1c0-1.3,0.4-2.5,1.1-3.6s1.7-1.9,3-2.5c1.3-0.6,2.7-0.9,4.3-0.9c2.7,0,4.8,0.6,6.4,1.9
		s2.3,3.1,2.3,5.4c0,1.2-0.4,2.2-1.1,3.2s-1.7,1.7-2.8,2.3c1.4,0.5,2.5,1.3,3.2,2.3c0.7,1,1.1,2.2,1.1,3.7c0,2.3-0.8,4.1-2.5,5.5
		c-1.7,1.4-3.9,2.1-6.6,2.1c-2.6,0-4.6-0.7-6.3-2s-2.4-3.1-2.4-5.3h5.1c0,1,0.4,1.7,1.1,2.4s1.6,0.9,2.7,0.9c1.2,0,2.2-0.3,2.8-1
		s1-1.5,1-2.5c0-2.6-1.4-3.8-4.2-3.8H430V-17z"/>
	<path class="st1" d="M462.7-12.5c0,3.5-0.7,6.2-2.2,8.1s-3.6,2.8-6.4,2.8c-2.8,0-4.9-0.9-6.4-2.8s-2.2-4.5-2.3-7.9V-17
		c0-3.6,0.7-6.3,2.2-8.1s3.6-2.8,6.4-2.8s4.9,0.9,6.4,2.8c1.5,1.9,2.2,4.5,2.3,7.9V-12.5z M457.6-17.7c0-2.1-0.3-3.7-0.9-4.6
		c-0.6-1-1.5-1.5-2.7-1.5c-1.2,0-2.1,0.5-2.6,1.4c-0.6,0.9-0.9,2.4-0.9,4.3v6.2c0,2.1,0.3,3.6,0.9,4.7c0.6,1.1,1.5,1.5,2.7,1.5
		s2.1-0.5,2.7-1.5c0.6-1,0.8-2.5,0.9-4.5v-6H457.6z"/>
	<path class="st1" d="M483.3-12.5c0,3.5-0.7,6.2-2.2,8.1s-3.6,2.8-6.4,2.8s-4.9-0.9-6.4-2.8s-2.2-4.5-2.3-7.9V-17
		c0-3.6,0.7-6.3,2.2-8.1s3.6-2.8,6.4-2.8s4.9,0.9,6.4,2.8c1.5,1.9,2.2,4.5,2.3,7.9V-12.5z M478.3-17.7c0-2.1-0.3-3.7-0.9-4.6
		c-0.6-1-1.5-1.5-2.7-1.5s-2.1,0.5-2.6,1.4c-0.6,0.9-0.9,2.4-0.9,4.3v6.2c0,2.1,0.3,3.6,0.9,4.7s1.5,1.5,2.7,1.5
		c1.2,0,2.1-0.5,2.7-1.5s0.8-2.5,0.9-4.5v-6H478.3z"/>
	<path class="st1" d="M493.9-9.5l-1.8,1.8v5.8H487v-27h5.1v15l1-1.3l4.9-5.7h6.1l-6.9,7.9l7.5,11.1h-5.8L493.9-9.5z"/>
</g>
<g>
	<path class="st1" d="M442.4,96.8h-17.5v-3.5l8.3-8.8c1.1-1.2,2-2.3,2.5-3.3s0.8-1.8,0.8-2.6c0-1.1-0.3-2-0.9-2.7s-1.4-1-2.5-1
		s-2.1,0.4-2.7,1.2c-0.6,0.8-1,1.8-1,3.1h-5.1c0-1.6,0.4-3,1.1-4.3s1.8-2.3,3.2-3s2.9-1.1,4.6-1.1c2.6,0,4.7,0.6,6.1,1.9
		s2.2,3.1,2.2,5.4c0,1.3-0.3,2.6-1,3.9c-0.7,1.3-1.8,2.8-3.4,4.6l-5.8,6.1h11L442.4,96.8L442.4,96.8z"/>
	<path class="st1" d="M446.2,84.2l1.5-13H462v4.2h-10.2l-0.6,5.5c1.2-0.6,2.5-1,3.8-1c2.4,0,4.3,0.8,5.7,2.3
		c1.4,1.5,2.1,3.6,2.1,6.3c0,1.7-0.3,3.1-1,4.4c-0.7,1.3-1.7,2.3-3,3c-1.3,0.7-2.8,1.1-4.6,1.1c-1.5,0-3-0.3-4.3-0.9
		s-2.4-1.5-3.1-2.6s-1.2-2.4-1.2-3.9h5c0.1,1.1,0.5,1.9,1.1,2.5c0.6,0.6,1.5,0.9,2.5,0.9c1.1,0,2-0.4,2.7-1.2s0.9-2,0.9-3.5
		s-0.4-2.6-1.1-3.3s-1.7-1.2-3-1.2c-1.2,0-2.2,0.3-2.9,0.9l-0.5,0.5L446.2,84.2z"/>
	<path class="st1" d="M483.3,86.2c0,3.5-0.7,6.2-2.2,8.1s-3.6,2.8-6.4,2.8s-4.9-0.9-6.4-2.8s-2.2-4.5-2.3-7.9v-4.7
		c0-3.6,0.7-6.3,2.2-8.1s3.6-2.8,6.4-2.8s4.9,0.9,6.4,2.8s2.2,4.5,2.3,7.9V86.2z M478.3,81.1c0-2.1-0.3-3.7-0.9-4.6
		c-0.6-1-1.5-1.5-2.7-1.5s-2.1,0.5-2.6,1.4c-0.6,0.9-0.9,2.4-0.9,4.3v6.2c0,2.1,0.3,3.6,0.9,4.7s1.5,1.5,2.7,1.5
		c1.2,0,2.1-0.5,2.7-1.5s0.8-2.5,0.9-4.5v-6H478.3z"/>
	<path class="st1" d="M493.9,89.2l-1.8,1.8v5.8H487v-27h5.1v15l1-1.3l4.9-5.7h6.1l-6.9,7.9l7.5,11.1h-5.8L493.9,89.2z"/>
</g>
<g>
	<path class="st1" d="M442.4,195.5h-17.5V192l8.3-8.8c1.1-1.2,2-2.3,2.5-3.3s0.8-1.8,0.8-2.6c0-1.1-0.3-2-0.9-2.7s-1.4-1-2.5-1
		s-2.1,0.4-2.7,1.2c-0.6,0.8-1,1.8-1,3.1h-5.1c0-1.6,0.4-3,1.1-4.3s1.8-2.3,3.2-3s2.9-1.1,4.6-1.1c2.6,0,4.7,0.6,6.1,1.9
		s2.2,3.1,2.2,5.4c0,1.3-0.3,2.6-1,3.9c-0.7,1.3-1.8,2.8-3.4,4.6l-5.8,6.1h11L442.4,195.5L442.4,195.5z"/>
	<path class="st1" d="M462.7,185c0,3.5-0.7,6.2-2.2,8.1s-3.6,2.8-6.4,2.8c-2.8,0-4.9-0.9-6.4-2.8s-2.2-4.5-2.3-7.9v-4.7
		c0-3.6,0.7-6.3,2.2-8.1s3.6-2.8,6.4-2.8s4.9,0.9,6.4,2.8s2.2,4.5,2.3,7.9V185z M457.6,179.8c0-2.1-0.3-3.7-0.9-4.6
		c-0.6-1-1.5-1.5-2.7-1.5c-1.2,0-2.1,0.5-2.6,1.4c-0.6,0.9-0.9,2.4-0.9,4.3v6.2c0,2.1,0.3,3.6,0.9,4.7c0.6,1.1,1.5,1.5,2.7,1.5
		s2.1-0.5,2.7-1.5c0.6-1,0.8-2.5,0.9-4.5v-6H457.6z"/>
	<path class="st1" d="M483.3,185c0,3.5-0.7,6.2-2.2,8.1s-3.6,2.8-6.4,2.8s-4.9-0.9-6.4-2.8s-2.2-4.5-2.3-7.9v-4.7
		c0-3.6,0.7-6.3,2.2-8.1s3.6-2.8,6.4-2.8s4.9,0.9,6.4,2.8s2.2,4.5,2.3,7.9V185z M478.3,179.8c0-2.1-0.3-3.7-0.9-4.6
		c-0.6-1-1.5-1.5-2.7-1.5s-2.1,0.5-2.6,1.4c-0.6,0.9-0.9,2.4-0.9,4.3v6.2c0,2.1,0.3,3.6,0.9,4.7s1.5,1.5,2.7,1.5
		c1.2,0,2.1-0.5,2.7-1.5s0.8-2.5,0.9-4.5v-6H478.3z"/>
	<path class="st1" d="M493.9,187.9l-1.8,1.8v5.8H487v-27h5.1v15l1-1.3l4.9-5.7h6.1l-6.9,7.9l7.5,11.1h-5.8L493.9,187.9z"/>
</g>
<g>
	<path class="st1" d="M437.2,294.3h-5.1v-19.6l-6.1,1.9v-4.1l10.6-3.8h0.5v25.6H437.2z"/>
	<path class="st1" d="M446.2,281.7l1.5-13H462v4.2h-10.2l-0.6,5.5c1.2-0.6,2.5-1,3.8-1c2.4,0,4.3,0.8,5.7,2.3
		c1.4,1.5,2.1,3.6,2.1,6.3c0,1.7-0.3,3.1-1,4.4c-0.7,1.3-1.7,2.3-3,3c-1.3,0.7-2.8,1.1-4.6,1.1c-1.5,0-3-0.3-4.3-0.9
		s-2.4-1.5-3.1-2.6s-1.2-2.4-1.2-3.9h5c0.1,1.1,0.5,1.9,1.1,2.5c0.6,0.6,1.5,0.9,2.5,0.9c1.1,0,2-0.4,2.7-1.2s0.9-2,0.9-3.5
		s-0.4-2.6-1.1-3.3s-1.7-1.2-3-1.2c-1.2,0-2.2,0.3-2.9,0.9l-0.5,0.5L446.2,281.7z"/>
	<path class="st1" d="M483.3,283.7c0,3.5-0.7,6.2-2.2,8.1s-3.6,2.8-6.4,2.8s-4.9-0.9-6.4-2.8s-2.2-4.5-2.3-7.9v-4.7
		c0-3.6,0.7-6.3,2.2-8.1s3.6-2.8,6.4-2.8s4.9,0.9,6.4,2.8s2.2,4.5,2.3,7.9V283.7z M478.3,278.5c0-2.1-0.3-3.7-0.9-4.6
		c-0.6-1-1.5-1.5-2.7-1.5s-2.1,0.5-2.6,1.4c-0.6,0.9-0.9,2.4-0.9,4.3v6.2c0,2.1,0.3,3.6,0.9,4.7s1.5,1.5,2.7,1.5
		c1.2,0,2.1-0.5,2.7-1.5s0.8-2.5,0.9-4.5v-6H478.3z"/>
	<path class="st1" d="M493.9,286.6l-1.8,1.8v5.8H487v-27h5.1v15l1-1.3l4.9-5.7h6.1l-6.9,7.9l7.5,11.1h-5.8L493.9,286.6z"/>
</g>
<g>
	<path class="st1" d="M437.2,393h-5.1v-19.6l-6.1,1.9v-4.1l10.6-3.8h0.5V393H437.2z"/>
	<path class="st1" d="M462.7,382.4c0,3.5-0.7,6.2-2.2,8.1s-3.6,2.8-6.4,2.8c-2.8,0-4.9-0.9-6.4-2.8s-2.2-4.5-2.3-7.9V378
		c0-3.6,0.7-6.3,2.2-8.1s3.6-2.8,6.4-2.8s4.9,0.9,6.4,2.8s2.2,4.5,2.3,7.9V382.4z M457.6,377.2c0-2.1-0.3-3.7-0.9-4.6
		c-0.6-1-1.5-1.5-2.7-1.5c-1.2,0-2.1,0.5-2.6,1.4c-0.6,0.9-0.9,2.4-0.9,4.3v6.2c0,2.1,0.3,3.6,0.9,4.7c0.6,1.1,1.5,1.5,2.7,1.5
		s2.1-0.5,2.7-1.5c0.6-1,0.8-2.5,0.9-4.5v-6H457.6z"/>
	<path class="st1" d="M483.3,382.4c0,3.5-0.7,6.2-2.2,8.1s-3.6,2.8-6.4,2.8s-4.9-0.9-6.4-2.8s-2.2-4.5-2.3-7.9V378
		c0-3.6,0.7-6.3,2.2-8.1s3.6-2.8,6.4-2.8s4.9,0.9,6.4,2.8s2.2,4.5,2.3,7.9V382.4z M478.3,377.2c0-2.1-0.3-3.7-0.9-4.6
		c-0.6-1-1.5-1.5-2.7-1.5s-2.1,0.5-2.6,1.4c-0.6,0.9-0.9,2.4-0.9,4.3v6.2c0,2.1,0.3,3.6,0.9,4.7s1.5,1.5,2.7,1.5
		c1.2,0,2.1-0.5,2.7-1.5s0.8-2.5,0.9-4.5v-6H478.3z"/>
	<path class="st1" d="M493.9,385.4l-1.8,1.8v5.8H487v-27h5.1v15l1-1.3l4.9-5.7h6.1l-6.9,7.9l7.5,11.1h-5.8L493.9,385.4z"/>
</g>
<g>
	<path class="st1" d="M446.2,479.1l1.5-13H462v4.2h-10.2l-0.6,5.5c1.2-0.6,2.5-1,3.8-1c2.4,0,4.3,0.8,5.7,2.3
		c1.4,1.5,2.1,3.6,2.1,6.3c0,1.7-0.3,3.1-1,4.4c-0.7,1.3-1.7,2.3-3,3c-1.3,0.7-2.8,1.1-4.6,1.1c-1.5,0-3-0.3-4.3-0.9
		s-2.4-1.5-3.1-2.6s-1.2-2.4-1.2-3.9h5c0.1,1.1,0.5,1.9,1.1,2.5c0.6,0.6,1.5,0.9,2.5,0.9c1.1,0,2-0.4,2.7-1.2s0.9-2,0.9-3.5
		s-0.4-2.6-1.1-3.3s-1.7-1.2-3-1.2c-1.2,0-2.2,0.3-2.9,0.9l-0.5,0.5L446.2,479.1z"/>
	<path class="st1" d="M483.3,481.1c0,3.5-0.7,6.2-2.2,8.1s-3.6,2.8-6.4,2.8s-4.9-0.9-6.4-2.8s-2.2-4.5-2.3-7.9v-4.7
		c0-3.6,0.7-6.3,2.2-8.1s3.6-2.8,6.4-2.8s4.9,0.9,6.4,2.8s2.2,4.5,2.3,7.9V481.1z M478.3,476c0-2.1-0.3-3.7-0.9-4.6
		c-0.6-1-1.5-1.5-2.7-1.5s-2.1,0.5-2.6,1.4c-0.6,0.9-0.9,2.4-0.9,4.3v6.2c0,2.1,0.3,3.6,0.9,4.7s1.5,1.5,2.7,1.5
		c1.2,0,2.1-0.5,2.7-1.5s0.8-2.5,0.9-4.5v-6H478.3z"/>
	<path class="st1" d="M493.9,484.1l-1.8,1.8v5.8H487v-27h5.1v15l1-1.3l4.9-5.7h6.1l-6.9,7.9l7.5,11.1h-5.8L493.9,484.1z"/>
</g>
<g>
	<path class="st1" d="M502.9,579.9c0,3.5-0.7,6.2-2.2,8.1s-3.6,2.8-6.4,2.8s-4.9-0.9-6.4-2.8s-2.2-4.5-2.3-7.9v-4.7
		c0-3.6,0.7-6.3,2.2-8.1s3.6-2.8,6.4-2.8s4.9,0.9,6.4,2.8s2.2,4.5,2.3,7.9V579.9z M497.8,574.7c0-2.1-0.3-3.7-0.9-4.6
		c-0.6-1-1.5-1.5-2.7-1.5s-2.1,0.5-2.6,1.4c-0.6,0.9-0.9,2.4-0.9,4.3v6.2c0,2.1,0.3,3.6,0.9,4.7s1.5,1.5,2.7,1.5
		c1.2,0,2.1-0.5,2.7-1.5s0.8-2.5,0.9-4.5v-6H497.8z"/>
</g>
<g>
	<path class="st2" d="M568.2,624.4h-11.7v-2.3l5.5-5.9c0.8-0.8,1.3-1.6,1.7-2.2s0.5-1.2,0.5-1.8c0-0.8-0.2-1.4-0.6-1.8
		c-0.4-0.4-0.9-0.7-1.6-0.7c-0.8,0-1.4,0.3-1.8,0.8s-0.7,1.2-0.7,2.1h-3.4c0-1,0.2-2,0.7-2.8s1.2-1.5,2.1-2s1.9-0.7,3.1-0.7
		c1.8,0,3.1,0.4,4.1,1.3s1.5,2,1.5,3.6c0,0.8-0.2,1.7-0.7,2.6s-1.2,1.9-2.2,3.1l-3.9,4.1h7.3v2.6H568.2z"/>
	<path class="st2" d="M581.8,617.4c0,2.4-0.5,4.2-1.5,5.4s-2.4,1.9-4.3,1.9s-3.3-0.6-4.3-1.8s-1.5-3-1.5-5.3v-3.1
		c0-2.4,0.5-4.2,1.5-5.4s2.4-1.9,4.3-1.9s3.3,0.6,4.3,1.8s1.5,3,1.5,5.3V617.4z M578.4,613.9c0-1.4-0.2-2.4-0.6-3.1s-1-1-1.8-1
		s-1.4,0.3-1.8,0.9s-0.6,1.6-0.6,2.9v4.2c0,1.4,0.2,2.4,0.6,3.1s1,1,1.8,1s1.4-0.3,1.8-1c0.4-0.6,0.6-1.6,0.6-3V613.9z"/>
	<path class="st2" d="M592.3,624.4h-3.4v-13.1l-4,1.3v-2.8l7.1-2.5h0.4v17.1H592.3z"/>
	<path class="st2" d="M609.3,617.4c0,2.4-0.5,4.2-1.5,5.4s-2.4,1.9-4.3,1.9s-3.3-0.6-4.3-1.8s-1.5-3-1.5-5.3v-3.1
		c0-2.4,0.5-4.2,1.5-5.4s2.4-1.9,4.3-1.9s3.3,0.6,4.3,1.8s1.5,3,1.5,5.3V617.4z M605.9,613.9c0-1.4-0.2-2.4-0.6-3.1s-1-1-1.8-1
		s-1.4,0.3-1.8,0.9s-0.6,1.6-0.6,2.9v4.2c0,1.4,0.2,2.4,0.6,3.1s1,1,1.8,1s1.4-0.3,1.8-1c0.4-0.6,0.6-1.6,0.6-3V613.9z"/>
</g>
<g>
	<path class="st2" d="M633.4,723.9v-21.3h7.7c2.7,0,4.8,0.5,6.3,1.5s2.1,2.5,2.1,4.4c0,1.1-0.3,2-0.8,2.8s-1.3,1.4-2.2,1.7
		c1.1,0.3,2,0.8,2.6,1.6c0.6,0.8,0.9,1.8,0.9,2.9c0,2.1-0.7,3.7-2,4.7s-3.3,1.6-5.9,1.6L633.4,723.9L633.4,723.9z M638.5,711.5h2.7
		c1.1,0,1.9-0.2,2.4-0.6s0.7-1,0.7-1.8c0-0.9-0.3-1.5-0.8-1.9s-1.4-0.6-2.5-0.6h-2.5V711.5L638.5,711.5z M638.5,714.9v5.1h3.4
		c0.9,0,1.6-0.2,2.1-0.6c0.5-0.4,0.7-1,0.7-1.8c0-1.8-0.9-2.7-2.7-2.7H638.5z"/>
	<path class="st2" d="M651.9,715.9c0-1.6,0.3-3,0.9-4.2s1.5-2.2,2.7-2.8s2.5-1,4.1-1c2.4,0,4.2,0.7,5.6,2.2s2.1,3.5,2.1,6v0.2
		c0,2.5-0.7,4.4-2.1,5.9s-3.2,2.2-5.6,2.2c-2.3,0-4.1-0.7-5.4-2c-1.4-1.4-2.1-3.2-2.2-5.5L651.9,715.9z M656.8,716.2
		c0,1.5,0.2,2.5,0.7,3.2s1.1,1,2,1c1.8,0,2.7-1.4,2.7-4.1v-0.5c0-2.8-0.9-4.3-2.7-4.3c-1.7,0-2.5,1.2-2.7,3.7V716.2z"/>
	<path class="st2" d="M683,717.4l1.6-9.3h4.7l-3.7,15.8h-4.2l-2.6-9.4l-2.6,9.4H672l-3.7-15.8h4.7l1.6,9.6l2.5-9.6h3.4L683,717.4z"
		/>
	<path class="st2" d="M698.8,724.2c-2.4,0-4.4-0.7-5.9-2.2c-1.5-1.4-2.3-3.3-2.3-5.7V716c0-1.6,0.3-3.1,0.9-4.3s1.5-2.2,2.6-2.9
		c1.2-0.7,2.5-1,4.1-1c2.2,0,4,0.7,5.3,2.1c1.3,1.4,1.9,3.3,1.9,5.8v1.9h-9.8c0.2,0.9,0.6,1.6,1.2,2.1c0.6,0.5,1.4,0.8,2.3,0.8
		c1.6,0,2.8-0.5,3.7-1.6l2.3,2.7c-0.6,0.8-1.5,1.5-2.6,2C701.3,724,700.1,724.2,698.8,724.2z M698.2,711.6c-1.4,0-2.3,1-2.6,2.9h5
		v-0.4c0-0.8-0.2-1.4-0.6-1.8S699,711.6,698.2,711.6z"/>
	<path class="st2" d="M717,712.5l-1.6-0.1c-1.6,0-2.5,0.5-3,1.5v10h-4.9v-15.8h4.6l0.2,2c0.8-1.6,2-2.3,3.5-2.3c0.5,0,1,0.1,1.4,0.2
		L717,712.5z"/>
	<path class="st2" d="M726.7,715.3c0-2.4,0.3-4.6,1-6.7s1.5-3.8,2.6-5.2c1.1-1.4,2.4-2.4,3.7-3l0.9,2.4c-1.4,1-2.4,2.6-3.2,4.7
		c-0.7,2.1-1.1,4.6-1.1,7.5v0.6c0,2.9,0.4,5.5,1.1,7.6s1.8,3.7,3.2,4.7l-0.9,2.4c-1.3-0.5-2.6-1.5-3.7-3c-1.1-1.4-2-3.2-2.6-5.2
		s-0.9-4.2-1-6.4V715.3z"/>
	<path class="st2" d="M745.6,702.6h5.1v14.6c0,1.4-0.3,2.6-0.9,3.6c-0.6,1-1.5,1.9-2.6,2.5s-2.4,0.9-3.8,0.9c-2.3,0-4.1-0.6-5.4-1.8
		c-1.3-1.2-1.9-2.8-1.9-5h5.2c0,1,0.2,1.7,0.5,2.1s0.9,0.7,1.7,0.7c0.7,0,1.3-0.3,1.6-0.8c0.4-0.5,0.6-1.3,0.6-2.2v-14.6H745.6z"/>
	<path class="st2" d="M765,718.3c0-0.8-0.3-1.3-0.8-1.8s-1.5-0.9-2.8-1.3s-2.4-0.9-3.3-1.3c-2.8-1.4-4.1-3.2-4.1-5.6
		c0-1.2,0.3-2.2,1-3.1c0.7-0.9,1.7-1.6,2.9-2.1c1.3-0.5,2.7-0.8,4.2-0.8s2.9,0.3,4.1,0.8c1.2,0.5,2.2,1.3,2.8,2.3c0.7,1,1,2.2,1,3.5
		h-5c0-0.9-0.3-1.5-0.8-2s-1.3-0.7-2.2-0.7s-1.6,0.2-2.2,0.6s-0.8,0.9-0.8,1.5c0,0.5,0.3,1,0.9,1.5c0.6,0.4,1.6,0.9,3.1,1.4
		s2.7,1,3.6,1.5c2.3,1.3,3.5,3.2,3.5,5.5c0,1.9-0.7,3.3-2.1,4.4c-1.4,1.1-3.3,1.6-5.8,1.6c-1.7,0-3.3-0.3-4.7-0.9s-2.5-1.5-3.2-2.5
		c-0.7-1-1.1-2.3-1.1-3.7h5.2c0,1.1,0.3,2,0.9,2.5c0.6,0.5,1.6,0.8,2.9,0.8c0.8,0,1.5-0.2,2-0.5C764.7,719.4,765,718.9,765,718.3z"
		/>
	<path class="st2" d="M780.3,715.7c0,2.3-0.3,4.5-1,6.5s-1.6,3.8-2.8,5.3s-2.5,2.5-3.8,3l-0.9-2.4c1.4-1,2.4-2.6,3.1-4.7
		c0.7-2.1,1.1-4.5,1.2-7.3v-0.9c0-2.9-0.4-5.5-1.1-7.6s-1.8-3.7-3.2-4.7l0.9-2.4c1.4,0.5,2.6,1.5,3.8,3s2.1,3.2,2.8,5.2s1,4.2,1,6.4
		V715.7z"/>
</g>
<g>
	<path class="st2" d="M756.8,624.4h-11.7v-2.3l5.5-5.9c0.8-0.8,1.3-1.6,1.7-2.2s0.5-1.2,0.5-1.8c0-0.8-0.2-1.4-0.6-1.8
		c-0.4-0.4-0.9-0.7-1.6-0.7c-0.8,0-1.4,0.3-1.8,0.8s-0.7,1.2-0.7,2.1h-3.4c0-1,0.2-2,0.7-2.8s1.2-1.5,2.1-2s1.9-0.7,3.1-0.7
		c1.8,0,3.1,0.4,4.1,1.3s1.5,2,1.5,3.6c0,0.8-0.2,1.7-0.7,2.6s-1.2,1.9-2.2,3.1l-3.9,4.1h7.3v2.6H756.8z"/>
	<path class="st2" d="M770.4,617.4c0,2.4-0.5,4.2-1.5,5.4s-2.4,1.9-4.3,1.9s-3.3-0.6-4.3-1.8s-1.5-3-1.5-5.3v-3.1
		c0-2.4,0.5-4.2,1.5-5.4s2.4-1.9,4.3-1.9s3.3,0.6,4.3,1.8s1.5,3,1.5,5.3V617.4z M767,613.9c0-1.4-0.2-2.4-0.6-3.1
		c-0.4-0.7-1-1-1.8-1c-0.8,0-1.4,0.3-1.8,0.9c-0.4,0.6-0.6,1.6-0.6,2.9v4.2c0,1.4,0.2,2.4,0.6,3.1c0.4,0.7,1,1,1.8,1
		c0.8,0,1.4-0.3,1.8-1c0.4-0.6,0.6-1.6,0.6-3V613.9z"/>
	<path class="st2" d="M780.9,624.4h-3.4v-13.1l-4,1.3v-2.8l7.1-2.5h0.4L780.9,624.4L780.9,624.4z"/>
	<path class="st2" d="M794.7,624.4h-3.4v-13.1l-4,1.3v-2.8l7.1-2.5h0.4L794.7,624.4L794.7,624.4z"/>
</g>
<g>
	<path class="st2" d="M945.4,624.4h-11.7v-2.3l5.5-5.9c0.8-0.8,1.3-1.6,1.7-2.2s0.5-1.2,0.5-1.8c0-0.8-0.2-1.4-0.6-1.8
		s-0.9-0.7-1.6-0.7c-0.8,0-1.4,0.3-1.8,0.8s-0.7,1.2-0.7,2.1h-3.4c0-1,0.2-2,0.7-2.8s1.2-1.5,2.1-2s1.9-0.7,3.1-0.7
		c1.8,0,3.1,0.4,4.1,1.3s1.5,2,1.5,3.6c0,0.8-0.2,1.7-0.7,2.6s-1.2,1.9-2.2,3.1l-3.9,4.1h7.3v2.6H945.4z"/>
	<path class="st2" d="M959,617.4c0,2.4-0.5,4.2-1.5,5.4s-2.4,1.9-4.3,1.9c-1.9,0-3.3-0.6-4.3-1.8s-1.5-3-1.5-5.3v-3.1
		c0-2.4,0.5-4.2,1.5-5.4s2.4-1.9,4.3-1.9s3.3,0.6,4.3,1.8s1.5,3,1.5,5.3V617.4z M955.6,613.9c0-1.4-0.2-2.4-0.6-3.1s-1-1-1.8-1
		s-1.4,0.3-1.8,0.9s-0.6,1.6-0.6,2.9v4.2c0,1.4,0.2,2.4,0.6,3.1s1,1,1.8,1s1.4-0.3,1.8-1c0.4-0.6,0.6-1.6,0.6-3V613.9z"/>
	<path class="st2" d="M969.5,624.4h-3.4v-13.1l-4,1.3v-2.8l7.1-2.5h0.4L969.5,624.4L969.5,624.4z"/>
	<path class="st2" d="M986.7,624.4H975v-2.3l5.5-5.9c0.8-0.8,1.3-1.6,1.7-2.2s0.5-1.2,0.5-1.8c0-0.8-0.2-1.4-0.6-1.8
		s-0.9-0.7-1.6-0.7c-0.8,0-1.4,0.3-1.8,0.8s-0.7,1.2-0.7,2.1h-3.4c0-1,0.2-2,0.7-2.8s1.2-1.5,2.1-2s1.9-0.7,3.1-0.7
		c1.8,0,3.1,0.4,4.1,1.3s1.5,2,1.5,3.6c0,0.8-0.2,1.7-0.7,2.6s-1.2,1.9-2.2,3.1l-3.9,4.1h7.3v2.6H986.7z"/>
</g>
<g>
	<path class="st2" d="M1134,624.4h-11.7v-2.3l5.5-5.9c0.8-0.8,1.3-1.6,1.7-2.2s0.5-1.2,0.5-1.8c0-0.8-0.2-1.4-0.6-1.8
		s-0.9-0.7-1.6-0.7c-0.8,0-1.4,0.3-1.8,0.8c-0.4,0.5-0.7,1.2-0.7,2.1h-3.3c0-1,0.2-2,0.7-2.8s1.2-1.5,2.1-2c0.9-0.5,1.9-0.7,3.1-0.7
		c1.8,0,3.1,0.4,4.1,1.3s1.5,2,1.5,3.6c0,0.8-0.2,1.7-0.7,2.6s-1.2,1.9-2.2,3.1l-3.9,4.1h7.3L1134,624.4L1134,624.4z"/>
	<path class="st2" d="M1147.6,617.4c0,2.4-0.5,4.2-1.5,5.4s-2.4,1.9-4.3,1.9c-1.9,0-3.3-0.6-4.3-1.8s-1.5-3-1.5-5.3v-3.1
		c0-2.4,0.5-4.2,1.5-5.4s2.4-1.9,4.3-1.9c1.9,0,3.3,0.6,4.3,1.8s1.5,3,1.5,5.3V617.4z M1144.2,613.9c0-1.4-0.2-2.4-0.6-3.1
		c-0.4-0.7-1-1-1.8-1s-1.4,0.3-1.8,0.9c-0.4,0.6-0.6,1.6-0.6,2.9v4.2c0,1.4,0.2,2.4,0.6,3.1c0.4,0.7,1,1,1.8,1s1.4-0.3,1.8-1
		c0.4-0.6,0.6-1.6,0.6-3V613.9z"/>
	<path class="st2" d="M1158.1,624.4h-3.4v-13.1l-4,1.3v-2.8l7.1-2.5h0.4L1158.1,624.4L1158.1,624.4z"/>
	<path class="st2" d="M1167.1,614.4h1.8c0.9,0,1.5-0.2,1.9-0.6c0.4-0.4,0.6-1,0.6-1.7s-0.2-1.2-0.6-1.6c-0.4-0.4-1-0.6-1.7-0.6
		c-0.6,0-1.2,0.2-1.6,0.5s-0.7,0.8-0.7,1.4h-3.4c0-0.9,0.2-1.7,0.7-2.4s1.2-1.3,2-1.7s1.8-0.6,2.9-0.6c1.8,0,3.2,0.4,4.2,1.3
		s1.5,2.1,1.5,3.6c0,0.8-0.2,1.5-0.7,2.2s-1.1,1.2-1.9,1.5c1,0.3,1.7,0.9,2.2,1.5s0.7,1.5,0.7,2.4c0,1.5-0.6,2.7-1.7,3.6
		c-1.1,0.9-2.6,1.4-4.4,1.4c-1.7,0-3.1-0.4-4.2-1.3s-1.6-2.1-1.6-3.6h3.4c0,0.6,0.2,1.2,0.7,1.6s1.1,0.6,1.8,0.6
		c0.8,0,1.4-0.2,1.9-0.6s0.7-1,0.7-1.7c0-1.7-0.9-2.6-2.8-2.6h-1.8L1167.1,614.4L1167.1,614.4z"/>
</g>
<g>
	<path class="st2" d="M1322.6,624.4h-11.7v-2.3l5.5-5.9c0.8-0.8,1.3-1.6,1.7-2.2s0.5-1.2,0.5-1.8c0-0.8-0.2-1.4-0.6-1.8
		s-0.9-0.7-1.6-0.7c-0.8,0-1.4,0.3-1.8,0.8s-0.7,1.2-0.7,2.1h-3.4c0-1,0.2-2,0.7-2.8s1.2-1.5,2.1-2s1.9-0.7,3.1-0.7
		c1.8,0,3.1,0.4,4.1,1.3s1.5,2,1.5,3.6c0,0.8-0.2,1.7-0.7,2.6s-1.2,1.9-2.2,3.1l-3.9,4.1h7.3L1322.6,624.4L1322.6,624.4z"/>
	<path class="st2" d="M1336.2,617.4c0,2.4-0.5,4.2-1.5,5.4s-2.4,1.9-4.3,1.9s-3.3-0.6-4.3-1.8s-1.5-3-1.5-5.3v-3.1
		c0-2.4,0.5-4.2,1.5-5.4s2.4-1.9,4.3-1.9s3.3,0.6,4.3,1.8s1.5,3,1.5,5.3V617.4z M1332.8,613.9c0-1.4-0.2-2.4-0.6-3.1s-1-1-1.8-1
		s-1.4,0.3-1.8,0.9s-0.6,1.6-0.6,2.9v4.2c0,1.4,0.2,2.4,0.6,3.1s1,1,1.8,1s1.4-0.3,1.8-1c0.4-0.6,0.6-1.6,0.6-3V613.9z"/>
	<path class="st2" d="M1346.7,624.4h-3.4v-13.1l-4,1.3v-2.8l7.1-2.5h0.4L1346.7,624.4L1346.7,624.4z"/>
	<path class="st2" d="M1362.2,618h1.9v2.7h-1.9v3.7h-3.4v-3.7h-7l-0.2-2.1l7.1-11.2h3.4L1362.2,618L1362.2,618z M1355.1,618h3.8v-6
		l-0.2,0.4L1355.1,618z"/>
</g>
<g>
	<path class="st2" d="M1511.2,624.4h-11.7v-2.3l5.5-5.9c0.8-0.8,1.3-1.6,1.7-2.2s0.5-1.2,0.5-1.8c0-0.8-0.2-1.4-0.6-1.8
		s-0.9-0.7-1.6-0.7c-0.8,0-1.4,0.3-1.8,0.8s-0.7,1.2-0.7,2.1h-3.4c0-1,0.2-2,0.7-2.8s1.2-1.5,2.1-2s1.9-0.7,3.1-0.7
		c1.8,0,3.1,0.4,4.1,1.3s1.5,2,1.5,3.6c0,0.8-0.2,1.7-0.7,2.6s-1.2,1.9-2.2,3.1l-3.9,4.1h7.3L1511.2,624.4L1511.2,624.4z"/>
	<path class="st2" d="M1524.8,617.4c0,2.4-0.5,4.2-1.5,5.4s-2.4,1.9-4.3,1.9s-3.3-0.6-4.3-1.8s-1.5-3-1.5-5.3v-3.1
		c0-2.4,0.5-4.2,1.5-5.4s2.4-1.9,4.3-1.9s3.3,0.6,4.3,1.8s1.5,3,1.5,5.3V617.4z M1521.4,613.9c0-1.4-0.2-2.4-0.6-3.1s-1-1-1.8-1
		s-1.4,0.3-1.8,0.9s-0.6,1.6-0.6,2.9v4.2c0,1.4,0.2,2.4,0.6,3.1s1,1,1.8,1s1.4-0.3,1.8-1c0.4-0.6,0.6-1.6,0.6-3V613.9z"/>
	<path class="st2" d="M1535.3,624.4h-3.4v-13.1l-4,1.3v-2.8l7.1-2.5h0.4L1535.3,624.4L1535.3,624.4z"/>
	<path class="st2" d="M1541.3,616l1-8.7h9.6v2.8h-6.8l-0.4,3.7c0.8-0.4,1.7-0.6,2.6-0.6c1.6,0,2.9,0.5,3.8,1.5s1.4,2.4,1.4,4.2
		c0,1.1-0.2,2.1-0.7,3s-1.1,1.5-2,2s-1.9,0.7-3.1,0.7c-1,0-2-0.2-2.9-0.6s-1.6-1-2.1-1.8s-0.8-1.6-0.8-2.6h3.4
		c0.1,0.7,0.3,1.3,0.7,1.7s1,0.6,1.7,0.6c0.8,0,1.4-0.3,1.8-0.8s0.6-1.3,0.6-2.3s-0.2-1.7-0.7-2.2s-1.2-0.8-2-0.8s-1.5,0.2-2,0.6
		l-0.3,0.3L1541.3,616z"/>
</g>
<g>
	<path class="st2" d="M1699.8,624.4h-11.7v-2.3l5.5-5.9c0.8-0.8,1.3-1.6,1.7-2.2s0.5-1.2,0.5-1.8c0-0.8-0.2-1.4-0.6-1.8
		s-0.9-0.7-1.6-0.7c-0.8,0-1.4,0.3-1.8,0.8s-0.7,1.2-0.7,2.1h-3.4c0-1,0.2-2,0.7-2.8s1.2-1.5,2.1-2s1.9-0.7,3.1-0.7
		c1.8,0,3.1,0.4,4.1,1.3s1.5,2,1.5,3.6c0,0.8-0.2,1.7-0.7,2.6s-1.2,1.9-2.2,3.1l-3.9,4.1h7.3L1699.8,624.4L1699.8,624.4z"/>
	<path class="st2" d="M1713.4,617.4c0,2.4-0.5,4.2-1.5,5.4s-2.4,1.9-4.3,1.9s-3.3-0.6-4.3-1.8s-1.5-3-1.5-5.3v-3.1
		c0-2.4,0.5-4.2,1.5-5.4s2.4-1.9,4.3-1.9s3.3,0.6,4.3,1.8s1.5,3,1.5,5.3V617.4z M1710,613.9c0-1.4-0.2-2.4-0.6-3.1s-1-1-1.8-1
		s-1.4,0.3-1.8,0.9s-0.6,1.6-0.6,2.9v4.2c0,1.4,0.2,2.4,0.6,3.1s1,1,1.8,1s1.4-0.3,1.8-1c0.4-0.6,0.6-1.6,0.6-3V613.9z"/>
	<path class="st2" d="M1723.9,624.4h-3.4v-13.1l-4,1.3v-2.8l7.1-2.5h0.4L1723.9,624.4L1723.9,624.4z"/>
	<path class="st2" d="M1738.6,607.2v2.8h-0.3c-1.5,0-2.8,0.4-3.7,1.2s-1.5,1.8-1.7,3.2c0.9-0.9,2.1-1.4,3.4-1.4
		c1.5,0,2.7,0.5,3.5,1.6s1.3,2.5,1.3,4.2c0,1.1-0.2,2.1-0.7,3s-1.2,1.6-2,2.1s-1.9,0.8-3,0.8c-1.8,0-3.2-0.6-4.4-1.9s-1.7-2.9-1.7-5
		v-1.2c0-1.9,0.3-3.5,1-4.9s1.7-2.5,3-3.3s2.8-1.2,4.6-1.2L1738.6,607.2L1738.6,607.2z M1735.3,615.8c-0.5,0-1,0.1-1.5,0.4
		c-0.4,0.3-0.8,0.7-1,1.1v1c0,1.1,0.2,2,0.7,2.6s1.1,1,1.9,1c0.7,0,1.3-0.3,1.8-0.9s0.7-1.3,0.7-2.2s-0.2-1.7-0.7-2.2
		C1736.7,616,1736.1,615.8,1735.3,615.8z"/>
</g>
<rect x="577.4" y="696.8" class="st3" width="32.9" height="32.9"/>
<g>
	<path class="st2" d="M1067.9,708.1l0.2,1.9c1.1-1.4,2.6-2.2,4.5-2.2c1.7,0,2.9,0.5,3.7,1.5c0.8,1,1.2,2.5,1.3,4.5v9.7
		c0,0.3-0.2,0.5-0.5,0.5h-3.9c-0.3,0-0.5-0.2-0.5-0.5V714c0-0.8-0.2-1.4-0.5-1.8c-0.3-0.4-0.9-0.6-1.8-0.6c-0.9,0-1.6,0.3-2.1,0.9
		c-0.1,0.1-0.1,0.2-0.1,0.3v10.5c0,0.3-0.2,0.5-0.5,0.5h-3.7c-0.3,0-0.5-0.2-0.5-0.5v-14.7c0-0.3,0.2-0.5,0.5-0.5L1067.9,708.1
		L1067.9,708.1z"/>
	<path class="st2" d="M1095,716.1c0,2.5-0.6,4.4-1.7,5.9s-2.6,2.2-4.5,2.2c-1.1,0-2-0.3-2.8-0.8c-0.3-0.3-0.8,0-0.8,0.4v5.6
		c0,0.3-0.2,0.5-0.5,0.5h-3.8c-0.3,0-0.5-0.2-0.5-0.5v-20.8c0-0.3,0.2-0.5,0.5-0.5h3.6c0.3,0,0.5,0.2,0.5,0.5l0.1,1
		c0.9-1.2,2.2-1.8,3.7-1.8c2,0,3.5,0.7,4.6,2.2c1.1,1.4,1.6,3.4,1.6,5.9v0.2H1095z M1090,715.8c0-2.8-0.8-4.2-2.5-4.2
		c-1.2,0-1.9,0.4-2.3,1.2c0,0.1,0,0.1,0,0.2v6c0,0.1,0,0.2,0.1,0.3c0.4,0.8,1.2,1.2,2.3,1.2c1.6,0,2.4-1.4,2.4-4.1L1090,715.8
		L1090,715.8z"/>
	<path class="st2" d="M1101.8,708.1l0.2,1.9c1.1-1.4,2.6-2.2,4.5-2.2c1.7,0,3,0.6,3.7,1.7c0.2,0.3,0.6,0.3,0.8,0.1
		c1-1.2,2.4-1.8,4.2-1.8c3.2,0,4.9,1.9,5,5.8v9.8c0,0.3-0.2,0.5-0.5,0.5h-3.9c-0.3,0-0.5-0.2-0.5-0.5v-9.5c0-0.8-0.1-1.4-0.4-1.8
		s-0.8-0.6-1.5-0.6c-1,0-1.7,0.4-2.2,1.3v0.2v10.3c0,0.3-0.2,0.5-0.5,0.5h-3.9c-0.3,0-0.5-0.2-0.5-0.5v-9.5c0-0.8-0.1-1.4-0.4-1.8
		s-0.8-0.6-1.5-0.6c-0.9,0-1.6,0.4-2.1,1.2c-0.1,0.1-0.1,0.2-0.1,0.3v10.3c0,0.3-0.2,0.5-0.5,0.5h-3.8c-0.3,0-0.5-0.2-0.5-0.5v-14.7
		c0-0.3,0.2-0.5,0.5-0.5h4.1V708.1z"/>
	<path class="st2" d="M1130.8,715.3c0-2.4,0.3-4.6,1-6.7c0.7-2.1,1.5-3.8,2.6-5.2c0.9-1.2,2-2.1,3.2-2.7c0.3-0.2,0.6,0,0.7,0.3
		l0.6,1.5c0.1,0.2,0,0.5-0.2,0.6c-1.2,1-2.2,2.5-2.9,4.5c-0.7,2.1-1.1,4.6-1.1,7.5v0.6c0,2.9,0.4,5.5,1.1,7.6
		c0.6,1.9,1.6,3.5,2.9,4.5c0.2,0.1,0.3,0.4,0.2,0.6l-0.6,1.5c-0.1,0.3-0.4,0.4-0.7,0.3c-1.1-0.5-2.2-1.5-3.2-2.8
		c-1.1-1.4-2-3.2-2.6-5.2s-0.9-4.2-1-6.4V715.3z"/>
	<path class="st2" d="M1145.6,708.1l0.2,1.9c1.1-1.4,2.6-2.2,4.5-2.2c1.7,0,2.9,0.5,3.7,1.5s1.2,2.5,1.3,4.5v9.7
		c0,0.3-0.2,0.5-0.5,0.5h-3.9c-0.3,0-0.5-0.2-0.5-0.5V714c0-0.8-0.2-1.4-0.5-1.8s-0.9-0.6-1.8-0.6c-0.9,0-1.6,0.3-2.1,0.9
		c-0.1,0.1-0.1,0.2-0.1,0.3v10.5c0,0.3-0.2,0.5-0.5,0.5h-3.8c-0.3,0-0.5-0.2-0.5-0.5v-14.7c0-0.3,0.2-0.5,0.5-0.5L1145.6,708.1
		L1145.6,708.1z"/>
	<path class="st2" d="M1157.4,715.9c0-1.9,0.4-3.4,1.2-4.8c0.7-1.1,2.3-2.3,3.4-2.7c0.9-0.3,1.9-0.5,3-0.5c2.4,0,4.2,0.7,5.6,2.2
		s2.1,3.5,2.1,6v0.2c0,2.5-0.7,4.4-2.1,5.9s-3.2,2.2-5.6,2.2c-2.3,0-4.1-0.7-5.4-2c-1.4-1.4-2.1-3.2-2.2-5.5L1157.4,715.9z
		 M1162.3,716.2c0,1.5,0.2,2.5,0.7,3.2s1.1,1,2,1c1.8,0,2.7-1.4,2.7-4.1v-0.5c0-2.8-0.9-4.3-2.7-4.3c-1.7,0-2.5,1.2-2.7,3.7V716.2z"
		/>
	<path class="st2" d="M1174.2,715.9c0-2.5,0.5-4.5,1.6-5.9s2.6-2.2,4.5-2.2c1,0,1.9,0.3,2.7,0.9c0.4,0.3,0.9,0,0.9-0.4V702
		c0-0.3,0.2-0.5,0.5-0.5h3.9c0.3,0,0.5,0.2,0.5,0.5v21.4c0,0.3-0.2,0.5-0.5,0.5h-3.4c-0.3,0-0.5-0.2-0.5-0.5l-0.1-1.2
		c-1,1.3-2.3,2-3.9,2c-1.9,0-3.4-0.7-4.5-2.2S1174.2,718.6,1174.2,715.9z M1179.1,716.2c0,2.8,0.8,4.2,2.5,4.2c1,0,1.8-0.5,2.2-1.3
		c0-0.1,0.1-0.2,0.1-0.3v-5.7c0-0.1,0-0.2-0.1-0.3c-0.4-0.8-1.2-1.3-2.2-1.3c-1.5,0-2.3,1.2-2.5,3.7V716.2z"/>
	<path class="st2" d="M1199.4,724.2c-2.4,0-4.4-0.7-5.9-2.2c-1.5-1.4-2.3-3.3-2.3-5.7V716c0-1.6,0.3-3.1,0.9-4.3s1.5-2.2,2.6-2.9
		c1.2-0.7,2.5-1,4.1-1c2.2,0,4,0.7,5.3,2.1c1.3,1.4,1.9,3.3,1.9,5.8v1.4c0,0.3-0.2,0.5-0.5,0.5h-8.5c-0.4,0-0.6,0.4-0.5,0.7
		c0.2,0.6,0.5,1,1,1.4c0.6,0.5,1.4,0.8,2.3,0.8c1.4,0,2.5-0.4,3.3-1.2c0.2-0.2,0.6-0.2,0.8,0.1l1.6,1.9c0.2,0.2,0.2,0.5,0,0.7
		c-0.6,0.6-1.4,1.2-2.3,1.6c0,0-0.1,0-0.1,0C1201.9,724,1200.7,724.2,1199.4,724.2z M1198.8,711.6c-1.2,0-2.1,0.8-2.5,2.2
		c-0.1,0.3,0.2,0.7,0.5,0.7h4.3v-0.4c0-0.8-0.2-1.4-0.6-1.8S1199.6,711.6,1198.8,711.6z"/>
	<path class="st2" d="M1211.1,719.1c0.8,0,1.4,0.2,1.9,0.7s0.8,1.1,0.8,1.8c0,0.5-0.2,1-0.4,1.4c-0.6,0.9-1.7,1.2-2.7,1.1
		c-0.6-0.1-1.1-0.3-1.6-0.7c-0.5-0.5-0.8-1.1-0.8-1.8s0.3-1.3,0.8-1.8C1209.6,719.4,1210.3,719.1,1211.1,719.1z"/>
	<path class="st2" d="M1222.4,708.1v16.4c0,1.9-0.5,3.3-1.6,4.3s-2.5,1.5-4.5,1.5c-0.6,0-1.3-0.1-1.8-0.1c-0.3,0-0.5-0.3-0.5-0.5
		v-3.2c0.6,0.1,1,0.1,1.4,0.1c1.4,0,2.1-0.7,2.1-2v-15.9c0-0.3,0.2-0.5,0.5-0.5L1222.4,708.1L1222.4,708.1z M1217.1,704
		c0-0.7,0.3-1.3,0.8-1.7s1.2-0.7,2-0.7s1.5,0.2,2,0.7s0.8,1,0.8,1.7s-0.3,1.3-0.8,1.7s-1.2,0.7-2,0.7s-1.5-0.2-2-0.7
		S1217.1,704.7,1217.1,704z"/>
	<path class="st2" d="M1233.5,719.5c0-0.4-0.2-0.8-0.7-1s-1.3-0.5-2.5-0.8s-2.2-0.6-3-1.1c-0.8-0.4-1.4-1-1.8-1.6s-0.6-1.4-0.6-2.2
		c0-1.5,0.6-2.7,1.8-3.6s2.8-1.4,4.7-1.4c2.1,0,3.8,0.5,5,1.4c1,0.8,1.7,1.8,1.9,3.1c0,0.3-0.2,0.6-0.5,0.6h-3.9
		c-0.3,0-0.5-0.2-0.5-0.4c-0.1-1-0.8-1.5-2-1.5c-0.5,0-1,0.1-1.3,0.4c-0.4,0.3-0.5,0.6-0.5,1.1c0,0.4,0.2,0.8,0.6,1.1
		s1.1,0.5,2.1,0.7c0.9,0.2,1.8,0.4,2.5,0.6c2.4,0.8,3.6,2.3,3.6,4.4c0,1.4-0.6,2.6-1.9,3.5s-2.9,1.4-5,1.4c-1.4,0-2.6-0.2-3.6-0.7
		s-1.9-1.2-2.5-2c-0.5-0.6-0.8-1.4-0.9-2.1c0-0.3,0.2-0.6,0.5-0.6h3.5c0.3,0,0.5,0.2,0.5,0.4c0.1,0.5,0.3,0.9,0.7,1.2
		c0.5,0.3,1.1,0.5,1.8,0.5c0.7,0,1.2-0.1,1.5-0.4C1233.3,720.3,1233.5,719.9,1233.5,719.5z"/>
	<path class="st2" d="M1248.4,715.7c0,2.3-0.3,4.5-1,6.5s-1.6,3.8-2.8,5.3c-1,1.3-2.2,2.2-3.3,2.8c-0.3,0.1-0.6,0-0.7-0.3l-0.6-1.5
		c-0.1-0.2,0-0.5,0.2-0.6c1.2-1,2.1-2.5,2.8-4.5c0.7-2.1,1.1-4.5,1.2-7.3v-0.9c0-2.9-0.4-5.5-1.1-7.6c-0.6-2-1.6-3.5-2.9-4.5
		c-0.2-0.1-0.3-0.4-0.2-0.6l0.6-1.5c0.1-0.3,0.4-0.4,0.7-0.3c1.2,0.5,2.2,1.5,3.3,2.8c1.2,1.5,2.1,3.2,2.8,5.2c0.7,2,1,4.2,1,6.4
		V715.7z"/>
</g>
<g>
	<path class="st2" d="M1516.2,718.3h-2.8v7.5h-5.1v-21.3h8.4c2.5,0,4.5,0.6,5.9,1.7s2.1,2.7,2.1,4.8c0,1.5-0.3,2.7-0.9,3.7
		s-1.5,1.8-2.8,2.4l4.5,8.6v0.2h-5.5L1516.2,718.3z M1513.4,714.4h3.3c1,0,1.7-0.3,2.2-0.8s0.7-1.2,0.7-2.2c0-0.9-0.2-1.6-0.7-2.2
		c-0.5-0.5-1.2-0.8-2.2-0.8h-3.3V714.4z"/>
	<path class="st2" d="M1537.1,724.2c-1,1.3-2.5,2-4.2,2s-3.1-0.5-3.9-1.5c-0.9-1-1.3-2.5-1.3-4.4V710h4.9v10.3c0,1.4,0.7,2,2,2
		c1.1,0,1.9-0.4,2.4-1.2V710h5v15.8h-4.6L1537.1,724.2z"/>
	<path class="st2" d="M1559.3,718.1c0,2.6-0.5,4.6-1.6,6s-2.6,2.1-4.5,2.1c-1.6,0-2.9-0.6-3.9-1.9l-0.2,1.6h-4.4v-22.5h4.9v7.9
		c0.9-1,2.1-1.6,3.6-1.6c2,0,3.5,0.7,4.6,2.1s1.6,3.4,1.6,6L1559.3,718.1L1559.3,718.1z M1554.3,717.8c0-1.5-0.2-2.6-0.6-3.3
		s-1-1-1.9-1c-1.1,0-1.9,0.4-2.3,1.3v6.3c0.4,0.8,1.2,1.3,2.3,1.3c1.2,0,1.9-0.6,2.2-1.7C1554.2,720.1,1554.3,719.1,1554.3,717.8z"
		/>
	<path class="st2" d="M1567.8,719l2.6-8.9h5.3l-6.5,18.5l-0.3,0.7c-0.9,2.1-2.5,3.1-4.9,3.1c-0.6,0-1.3-0.1-2-0.3v-3.5h0.6
		c0.7,0,1.2-0.1,1.6-0.3s0.6-0.6,0.8-1.1l0.4-1.1l-5.5-16h5.3L1567.8,719z"/>
	<path class="st2" d="M1576.4,717.8c0-1.6,0.3-3,0.8-4.2s1.3-2.2,2.3-2.8s2.1-1,3.4-1c1.7,0,2.9,0.6,3.9,1.7l0.2-1.4h4.5v15.2
		c0,1.4-0.3,2.6-1,3.6s-1.6,1.8-2.8,2.4s-2.7,0.8-4.3,0.8c-1.2,0-2.3-0.2-3.4-0.7s-1.9-1-2.5-1.7l2.1-2.9c0.9,1.1,2.1,1.6,3.6,1.6
		c2.2,0,3.3-1.1,3.3-3.4v-0.5c-0.9,1-2.1,1.6-3.6,1.6c-1.9,0-3.5-0.7-4.7-2.2s-1.8-3.5-1.8-5.9V717.8z M1581.3,718.1
		c0,1.3,0.2,2.3,0.7,3.1s1.2,1.1,2.1,1.1c1.1,0,1.8-0.4,2.3-1.1v-6.7c-0.5-0.7-1.2-1.1-2.3-1.1c-0.9,0-1.6,0.4-2.1,1.2
		S1581.3,716.7,1581.3,718.1z"/>
	<path class="st2" d="M1601.9,726.2c-2.4,0-4.4-0.7-5.9-2.2c-1.5-1.4-2.3-3.3-2.3-5.7v-0.4c0-1.6,0.3-3.1,0.9-4.3s1.5-2.2,2.6-2.9
		c1.2-0.7,2.5-1,4.1-1c2.2,0,4,0.7,5.3,2.1c1.3,1.4,1.9,3.3,1.9,5.8v1.9h-9.8c0.2,0.9,0.6,1.6,1.2,2.1s1.4,0.8,2.3,0.8
		c1.6,0,2.8-0.5,3.7-1.6l2.3,2.7c-0.6,0.8-1.5,1.5-2.6,2C1604.4,725.9,1603.2,726.2,1601.9,726.2z M1601.3,713.5
		c-1.4,0-2.3,1-2.6,2.9h5V716c0-0.8-0.2-1.4-0.6-1.8S1602.1,713.5,1601.3,713.5z"/>
	<path class="st2" d="M1615.2,710l0.2,1.9c1.1-1.4,2.6-2.2,4.5-2.2c2,0,3.4,0.8,4.1,2.4c1.1-1.6,2.6-2.4,4.7-2.4
		c3.2,0,4.9,1.9,5,5.8v10.3h-5v-10c0-0.8-0.1-1.4-0.4-1.8s-0.8-0.6-1.5-0.6c-1,0-1.7,0.4-2.2,1.3v0.2v10.8h-5v-10
		c0-0.8-0.1-1.4-0.4-1.8s-0.8-0.6-1.5-0.6c-0.9,0-1.7,0.4-2.2,1.3v11h-4.9V710H1615.2z"/>
	<path class="st2" d="M1644.7,721.4c0-0.4-0.2-0.8-0.7-1s-1.3-0.5-2.5-0.8s-2.2-0.6-3-1.1c-0.8-0.4-1.4-1-1.8-1.6s-0.6-1.4-0.6-2.2
		c0-1.5,0.6-2.7,1.8-3.6s2.8-1.4,4.7-1.4c2.1,0,3.8,0.5,5,1.4s1.9,2.2,1.9,3.7h-5c0-1.3-0.7-1.9-2-1.9c-0.5,0-1,0.1-1.3,0.4
		c-0.4,0.3-0.5,0.6-0.5,1.1c0,0.4,0.2,0.8,0.6,1.1s1.1,0.5,2.1,0.7s1.8,0.4,2.5,0.6c2.4,0.8,3.6,2.3,3.6,4.4c0,1.4-0.6,2.6-1.9,3.5
		s-2.9,1.4-5,1.4c-1.4,0-2.6-0.2-3.6-0.7s-1.9-1.2-2.5-2s-0.9-1.7-0.9-2.7h4.6c0,0.7,0.3,1.3,0.7,1.6c0.5,0.3,1.1,0.5,1.8,0.5
		c0.7,0,1.2-0.1,1.5-0.4S1644.7,721.9,1644.7,721.4z"/>
	<path class="st2" d="M1654.8,721.1c0.8,0,1.4,0.2,1.9,0.7s0.8,1.1,0.8,1.8s-0.3,1.3-0.8,1.8s-1.2,0.7-1.9,0.7c-0.8,0-1.4-0.2-2-0.7
		c-0.5-0.5-0.8-1.1-0.8-1.8s0.3-1.3,0.8-1.8C1653.4,721.3,1654,721.1,1654.8,721.1z"/>
	<path class="st2" d="M1660.2,717.8c0-1.6,0.3-3,0.9-4.2s1.5-2.2,2.7-2.8s2.5-1,4.1-1c2.4,0,4.2,0.7,5.6,2.2s2.1,3.5,2.1,6v0.2
		c0,2.5-0.7,4.4-2.1,5.9s-3.2,2.2-5.6,2.2c-2.3,0-4.1-0.7-5.4-2c-1.4-1.4-2.1-3.2-2.2-5.5L1660.2,717.8z M1665.1,718.1
		c0,1.5,0.2,2.5,0.7,3.2s1.1,1,2,1c1.8,0,2.7-1.4,2.7-4.1v-0.5c0-2.8-0.9-4.3-2.7-4.3c-1.7,0-2.5,1.2-2.7,3.7V718.1z"/>
	<path class="st2" d="M1687.3,714.5l-1.6-0.1c-1.6,0-2.5,0.5-3,1.5v10h-4.9V710h4.6l0.2,2c0.8-1.6,2-2.3,3.5-2.3
		c0.5,0,1,0.1,1.4,0.2L1687.3,714.5z"/>
	<path class="st2" d="M1688.5,717.8c0-1.6,0.3-3,0.8-4.2s1.3-2.2,2.3-2.8s2.1-1,3.4-1c1.7,0,2.9,0.6,3.9,1.7l0.2-1.4h4.5v15.2
		c0,1.4-0.3,2.6-1,3.6s-1.6,1.8-2.8,2.4s-2.7,0.8-4.3,0.8c-1.2,0-2.3-0.2-3.4-0.7s-1.9-1-2.5-1.7l2.1-2.9c0.9,1.1,2.1,1.6,3.6,1.6
		c2.2,0,3.3-1.1,3.3-3.4v-0.5c-0.9,1-2.1,1.6-3.6,1.6c-1.9,0-3.5-0.7-4.7-2.2s-1.8-3.5-1.8-5.9V717.8z M1693.4,718.1
		c0,1.3,0.2,2.3,0.7,3.1s1.2,1.1,2.1,1.1c1.1,0,1.8-0.4,2.3-1.1v-6.7c-0.5-0.7-1.2-1.1-2.3-1.1c-0.9,0-1.6,0.4-2.1,1.2
		S1693.4,716.7,1693.4,718.1z"/>
</g>
<path class="st4" d="M1008.1,696.8h31.8c0.3,0,0.5,0.2,0.5,0.5v31.8c0,0.3-0.2,0.5-0.5,0.5h-31.8c-0.3,0-0.5-0.2-0.5-0.5v-31.8
	C1007.6,697,1007.8,696.8,1008.1,696.8z"/>
<rect x="1452.3" y="697.4" class="st5" width="32.9" height="32.9"/>
<line class="st6" x1="555" y1="553.9" x2="1736.1" y2="309"/>
<path class="st7" d="M880,580.1c0,0,628.5-6.8,857.9-573.1"/>
<line class="st8" x1="1441.8" y1="561.4" x2="1736.1" y2="502.9"/>
</svg>
