<?xml version="1.0" encoding="utf-8"?>
<!-- Generator: Adobe Illustrator 19.1.0, SVG Export Plug-In . SVG Version: 6.00 Build 0)  -->
<svg version="1.1" id="Layer_1" xmlns="http://www.w3.org/2000/svg" xmlns:xlink="http://www.w3.org/1999/xlink" x="0px" y="0px"
	 width="1379px" height="688.9px" viewBox="446 43.1 1379 688.9" style="enable-background:new 446 43.1 1379 688.9;"
	 xml:space="preserve">
<style type="text/css">
	.st0{fill:none;stroke:#F7AA0A;stroke-width:8;stroke-miterlimit:10;}
	.st1{fill:none;stroke:#BE0006;stroke-width:8;stroke-miterlimit:10;}
	.st2{fill:none;stroke:#B8B7B5;stroke-miterlimit:10;}
	.st3{fill:none;stroke:#948F8F;stroke-miterlimit:10;}
	.st4{fill:#F7AA0A;}
	.st5{fill:#BE0006;}
	.st6{fill:#645E64;}
	.st7{fill:#FFFFFF;stroke:#A0A0A0;stroke-miterlimit:10;}
</style>
<polyline class="st0" points="555,484.5 619,484.5 644.8,464.1 685.2,449.9 722,439.3 767.6,416.4 815,397.7 839.6,387.1 
	881.7,373.5 909.8,360.8 932.6,334 946.6,319.6 962.4,348.5 1001,334 1030.8,350.5 1055.4,334.5 1087,334.5 1106,334.5 
	1155.5,319.8 1190.5,279.2 1237.8,256.5 1273,256.5 1323.8,240.8 1383.4,215.3 1409.8,224 1453.6,200.7 1471.2,224 1497.9,209.9 
	1533.5,189.3 1533.5,215 1549.9,209.9 1578.1,164.3 1622,132.6 1637.8,119.6 1655.4,152.5 1693,119.9 "/>
<polyline class="st1" points="562.4,386.9 626.2,373.4 672.8,380.3 699.2,373.5 715,387 744,364 785,364 843,364 909.8,361 945,361 
	962.4,348.6 971.2,368 996,368 1155.5,367.9 1185.2,334 1234,334 1250.1,319.6 1269.4,334 1331,334 1550,334 1571.2,302 1597,302 
	1627.3,286.9 1646.6,298 1672,298 1713.4,278.6 "/>
<line class="st2" x1="555.4" y1="59.1" x2="555.4" y2="580.1"/>
<line class="st3" x1="1736.1" y1="59.1" x2="1736.1" y2="580.1"/>
<line class="st2" x1="555.4" y1="580.1" x2="1736.1" y2="580.1"/>
<line class="st2" x1="518.4" y1="59.1" x2="555.1" y2="59.1"/>
<line class="st2" x1="518.4" y1="232.7" x2="555.1" y2="232.7"/>
<line class="st2" x1="518.4" y1="406.4" x2="555.1" y2="406.4"/>
<line class="st2" x1="518.4" y1="580.1" x2="555.1" y2="580.1"/>
<line class="st2" x1="1736.1" y1="59.1" x2="1772.8" y2="59.1"/>
<line class="st2" x1="1736.1" y1="319.6" x2="1772.8" y2="319.6"/>
<line class="st2" x1="1736.1" y1="189.3" x2="1772.8" y2="189.3"/>
<line class="st2" x1="1736.1" y1="449.8" x2="1772.8" y2="449.8"/>
<line class="st2" x1="1736.1" y1="580.1" x2="1772.8" y2="580.1"/>
<g>
	<path class="st4" d="M461.8,59.5h2.9v4.1h-2.9v5.5h-5.1v-5.5h-10.5l-0.2-3.2l10.7-16.9h5.1V59.5z M451.1,59.5h5.7v-9l-0.3,0.6
		L451.1,59.5z"/>
	<path class="st4" d="M484.7,58.5c0,3.5-0.7,6.2-2.2,8.1s-3.6,2.8-6.4,2.8c-2.8,0-4.9-0.9-6.4-2.8s-2.2-4.5-2.3-7.9V54
		c0-3.6,0.7-6.3,2.2-8.1s3.6-2.8,6.4-2.8s4.9,0.9,6.4,2.8s2.2,4.5,2.3,7.9V58.5z M479.6,53.3c0-2.1-0.3-3.7-0.9-4.6
		c-0.6-1-1.5-1.5-2.7-1.5c-1.2,0-2.1,0.5-2.6,1.4c-0.6,0.9-0.9,2.4-0.9,4.3v6.2c0,2.1,0.3,3.6,0.9,4.7c0.6,1.1,1.5,1.5,2.7,1.5
		s2.1-0.5,2.7-1.5c0.6-1,0.8-2.5,0.9-4.5v-6H479.6z"/>
	<path class="st4" d="M505.3,58.5c0,3.5-0.7,6.2-2.2,8.1s-3.6,2.8-6.4,2.8s-4.9-0.9-6.4-2.8s-2.2-4.5-2.3-7.9V54
		c0-3.6,0.7-6.3,2.2-8.1s3.6-2.8,6.4-2.8s4.9,0.9,6.4,2.8s2.2,4.5,2.3,7.9V58.5z M500.3,53.3c0-2.1-0.3-3.7-0.9-4.6
		c-0.6-1-1.5-1.5-2.7-1.5s-2.1,0.5-2.6,1.4c-0.6,0.9-0.9,2.4-0.9,4.3v6.2c0,2.1,0.3,3.6,0.9,4.7s1.5,1.5,2.7,1.5
		c1.2,0,2.1-0.5,2.7-1.5s0.8-2.5,0.9-4.5v-6H500.3z"/>
</g>
<g>
	<path class="st5" d="M1802.2,59.5h2.9v4.1h-2.9v5.5h-5.1v-5.5h-10.5l-0.2-3.2l10.7-16.9h5.1V59.5z M1791.5,59.5h5.7v-9l-0.3,0.6
		L1791.5,59.5z"/>
	<path class="st5" d="M1825,58.5c0,3.5-0.7,6.2-2.2,8.1s-3.6,2.8-6.4,2.8s-4.9-0.9-6.4-2.8s-2.2-4.5-2.3-7.9V54
		c0-3.6,0.7-6.3,2.2-8.1s3.6-2.8,6.4-2.8s4.9,0.9,6.4,2.8s2.2,4.5,2.3,7.9V58.5z M1820,53.3c0-2.1-0.3-3.7-0.9-4.6
		c-0.6-1-1.5-1.5-2.7-1.5s-2.1,0.5-2.6,1.4c-0.6,0.9-0.9,2.4-0.9,4.3v6.2c0,2.1,0.3,3.6,0.9,4.7s1.5,1.5,2.7,1.5s2.1-0.5,2.7-1.5
		s0.8-2.5,0.9-4.5L1820,53.3L1820,53.3z"/>
</g>
<g>
	<path class="st5" d="M1792.3,185.6h2.7c1.3,0,2.2-0.3,2.9-1s0.9-1.5,0.9-2.6c0-1-0.3-1.8-0.9-2.4s-1.5-0.9-2.5-0.9
		s-1.8,0.3-2.4,0.8s-1,1.2-1,2.1h-5.1c0-1.3,0.4-2.5,1.1-3.6s1.7-1.9,3-2.5s2.7-0.9,4.3-0.9c2.7,0,4.8,0.6,6.4,1.9s2.3,3.1,2.3,5.4
		c0,1.2-0.4,2.2-1.1,3.2s-1.7,1.7-2.8,2.3c1.4,0.5,2.5,1.3,3.2,2.3s1.1,2.2,1.1,3.7c0,2.3-0.8,4.1-2.5,5.5s-3.9,2.1-6.6,2.1
		c-2.6,0-4.6-0.7-6.3-2s-2.4-3.1-2.4-5.3h5.1c0,1,0.4,1.7,1.1,2.4s1.6,0.9,2.7,0.9c1.2,0,2.2-0.3,2.8-1s1-1.5,1-2.5
		c0-2.6-1.4-3.8-4.2-3.8h-2.7L1792.3,185.6L1792.3,185.6z"/>
	<path class="st5" d="M1825,190.1c0,3.5-0.7,6.2-2.2,8.1s-3.6,2.8-6.4,2.8s-4.9-0.9-6.4-2.8s-2.2-4.5-2.3-7.9v-4.7
		c0-3.6,0.7-6.3,2.2-8.1s3.6-2.8,6.4-2.8s4.9,0.9,6.4,2.8s2.2,4.5,2.3,7.9V190.1z M1820,184.9c0-2.1-0.3-3.7-0.9-4.6
		c-0.6-1-1.5-1.5-2.7-1.5s-2.1,0.5-2.6,1.4c-0.6,0.9-0.9,2.4-0.9,4.3v6.2c0,2.1,0.3,3.6,0.9,4.7s1.5,1.5,2.7,1.5s2.1-0.5,2.7-1.5
		s0.8-2.5,0.9-4.5L1820,184.9L1820,184.9z"/>
</g>
<g>
	<path class="st5" d="M1804.7,334h-17.5v-3.5l8.3-8.8c1.1-1.2,2-2.3,2.5-3.3s0.8-1.8,0.8-2.6c0-1.1-0.3-2-0.9-2.7s-1.4-1-2.5-1
		s-2.1,0.4-2.7,1.2s-1,1.8-1,3.1h-5.1c0-1.6,0.4-3,1.1-4.3s1.8-2.3,3.2-3s2.9-1.1,4.6-1.1c2.6,0,4.7,0.6,6.1,1.9s2.2,3.1,2.2,5.4
		c0,1.3-0.3,2.6-1,3.9s-1.8,2.8-3.4,4.6l-5.8,6.1h11v4.1H1804.7z"/>
	<path class="st5" d="M1825,323.4c0,3.5-0.7,6.2-2.2,8.1s-3.6,2.8-6.4,2.8s-4.9-0.9-6.4-2.8s-2.2-4.5-2.3-7.9V319
		c0-3.6,0.7-6.3,2.2-8.1s3.6-2.8,6.4-2.8s4.9,0.9,6.4,2.8s2.2,4.5,2.3,7.9V323.4z M1820,318.2c0-2.1-0.3-3.7-0.9-4.6
		c-0.6-1-1.5-1.5-2.7-1.5s-2.1,0.5-2.6,1.4c-0.6,0.9-0.9,2.4-0.9,4.3v6.2c0,2.1,0.3,3.6,0.9,4.7s1.5,1.5,2.7,1.5s2.1-0.5,2.7-1.5
		s0.8-2.5,0.9-4.5L1820,318.2L1820,318.2z"/>
</g>
<g>
	<path class="st5" d="M1799.5,463.8h-5.1v-19.6l-6.1,1.9V442l10.6-3.8h0.5L1799.5,463.8L1799.5,463.8z"/>
	<path class="st5" d="M1825,453.2c0,3.5-0.7,6.2-2.2,8.1s-3.6,2.8-6.4,2.8s-4.9-0.9-6.4-2.8s-2.2-4.5-2.3-7.9v-4.7
		c0-3.6,0.7-6.3,2.2-8.1s3.6-2.8,6.4-2.8s4.9,0.9,6.4,2.8s2.2,4.5,2.3,7.9V453.2z M1820,448.1c0-2.1-0.3-3.7-0.9-4.6
		c-0.6-1-1.5-1.5-2.7-1.5s-2.1,0.5-2.6,1.4c-0.6,0.9-0.9,2.4-0.9,4.3v6.2c0,2.1,0.3,3.6,0.9,4.7s1.5,1.5,2.7,1.5s2.1-0.5,2.7-1.5
		s0.8-2.5,0.9-4.5L1820,448.1L1820,448.1z"/>
</g>
<g>
	<path class="st5" d="M1804.4,581.2c0,3.5-0.7,6.2-2.2,8.1s-3.6,2.8-6.4,2.8s-4.9-0.9-6.4-2.8s-2.2-4.5-2.3-7.9v-4.7
		c0-3.6,0.7-6.3,2.2-8.1s3.6-2.8,6.4-2.8s4.9,0.9,6.4,2.8s2.2,4.5,2.3,7.9V581.2z M1799.3,576.1c0-2.1-0.3-3.7-0.9-4.6
		c-0.6-1-1.5-1.5-2.7-1.5s-2.1,0.5-2.6,1.4c-0.6,0.9-0.9,2.4-0.9,4.3v6.2c0,2.1,0.3,3.6,0.9,4.7s1.5,1.5,2.7,1.5s2.1-0.5,2.7-1.5
		s0.8-2.5,0.9-4.5L1799.3,576.1L1799.3,576.1z"/>
</g>
<g>
	<path class="st4" d="M452,228.5h2.7c1.3,0,2.2-0.3,2.9-1c0.7-0.7,0.9-1.5,0.9-2.6c0-1-0.3-1.8-0.9-2.4c-0.6-0.6-1.5-0.9-2.5-0.9
		s-1.8,0.3-2.4,0.8c-0.6,0.5-1,1.2-1,2.1h-5.1c0-1.3,0.4-2.5,1.1-3.6s1.7-1.9,3-2.5c1.3-0.6,2.7-0.9,4.3-0.9c2.7,0,4.8,0.6,6.4,1.9
		s2.3,3.1,2.3,5.4c0,1.2-0.4,2.2-1.1,3.2s-1.7,1.7-2.8,2.3c1.4,0.5,2.5,1.3,3.2,2.3c0.7,1,1.1,2.2,1.1,3.7c0,2.3-0.8,4.1-2.5,5.5
		c-1.7,1.4-3.9,2.1-6.6,2.1c-2.6,0-4.6-0.7-6.3-2s-2.4-3.1-2.4-5.3h5.1c0,1,0.4,1.7,1.1,2.4s1.6,0.9,2.7,0.9c1.2,0,2.2-0.3,2.8-1
		s1-1.5,1-2.5c0-2.6-1.4-3.8-4.2-3.8H452V228.5z"/>
	<path class="st4" d="M484.7,232.9c0,3.5-0.7,6.2-2.2,8.1s-3.6,2.8-6.4,2.8c-2.8,0-4.9-0.9-6.4-2.8s-2.2-4.5-2.3-7.9v-4.7
		c0-3.6,0.7-6.3,2.2-8.1s3.6-2.8,6.4-2.8s4.9,0.9,6.4,2.8s2.2,4.5,2.3,7.9V232.9z M479.6,227.7c0-2.1-0.3-3.7-0.9-4.6
		c-0.6-1-1.5-1.5-2.7-1.5c-1.2,0-2.1,0.5-2.6,1.4c-0.6,0.9-0.9,2.4-0.9,4.3v6.2c0,2.1,0.3,3.6,0.9,4.7c0.6,1.1,1.5,1.5,2.7,1.5
		s2.1-0.5,2.7-1.5c0.6-1,0.8-2.5,0.9-4.5v-6H479.6z"/>
	<path class="st4" d="M505.3,232.9c0,3.5-0.7,6.2-2.2,8.1s-3.6,2.8-6.4,2.8s-4.9-0.9-6.4-2.8s-2.2-4.5-2.3-7.9v-4.7
		c0-3.6,0.7-6.3,2.2-8.1s3.6-2.8,6.4-2.8s4.9,0.9,6.4,2.8s2.2,4.5,2.3,7.9V232.9z M500.3,227.7c0-2.1-0.3-3.7-0.9-4.6
		c-0.6-1-1.5-1.5-2.7-1.5s-2.1,0.5-2.6,1.4c-0.6,0.9-0.9,2.4-0.9,4.3v6.2c0,2.1,0.3,3.6,0.9,4.7s1.5,1.5,2.7,1.5
		c1.2,0,2.1-0.5,2.7-1.5s0.8-2.5,0.9-4.5v-6H500.3z"/>
</g>
<g>
	<path class="st4" d="M464.4,416.4h-17.5v-3.5l8.3-8.8c1.1-1.2,2-2.3,2.5-3.3s0.8-1.8,0.8-2.6c0-1.1-0.3-2-0.9-2.7s-1.4-1-2.5-1
		s-2.1,0.4-2.7,1.2c-0.6,0.8-1,1.8-1,3.1h-5.1c0-1.6,0.4-3,1.1-4.3s1.8-2.3,3.2-3s2.9-1.1,4.6-1.1c2.6,0,4.7,0.6,6.1,1.9
		s2.2,3.1,2.2,5.4c0,1.3-0.3,2.6-1,3.9c-0.7,1.3-1.8,2.8-3.4,4.6l-5.8,6.1h11L464.4,416.4L464.4,416.4z"/>
	<path class="st4" d="M484.7,405.8c0,3.5-0.7,6.2-2.2,8.1s-3.6,2.8-6.4,2.8c-2.8,0-4.9-0.9-6.4-2.8s-2.2-4.5-2.3-7.9v-4.7
		c0-3.6,0.7-6.3,2.2-8.1s3.6-2.8,6.4-2.8s4.9,0.9,6.4,2.8s2.2,4.5,2.3,7.9V405.8z M479.6,400.6c0-2.1-0.3-3.7-0.9-4.6
		c-0.6-1-1.5-1.5-2.7-1.5c-1.2,0-2.1,0.5-2.6,1.4c-0.6,0.9-0.9,2.4-0.9,4.3v6.2c0,2.1,0.3,3.6,0.9,4.7c0.6,1.1,1.5,1.5,2.7,1.5
		s2.1-0.5,2.7-1.5c0.6-1,0.8-2.5,0.9-4.5v-6H479.6z"/>
	<path class="st4" d="M505.3,405.8c0,3.5-0.7,6.2-2.2,8.1s-3.6,2.8-6.4,2.8s-4.9-0.9-6.4-2.8s-2.2-4.5-2.3-7.9v-4.7
		c0-3.6,0.7-6.3,2.2-8.1s3.6-2.8,6.4-2.8s4.9,0.9,6.4,2.8s2.2,4.5,2.3,7.9V405.8z M500.3,400.6c0-2.1-0.3-3.7-0.9-4.6
		c-0.6-1-1.5-1.5-2.7-1.5s-2.1,0.5-2.6,1.4c-0.6,0.9-0.9,2.4-0.9,4.3v6.2c0,2.1,0.3,3.6,0.9,4.7s1.5,1.5,2.7,1.5
		c1.2,0,2.1-0.5,2.7-1.5s0.8-2.5,0.9-4.5v-6H500.3z"/>
</g>
<g>
	<path class="st4" d="M459.2,591.8h-5.1v-19.6l-6.1,1.9V570l10.6-3.8h0.5v25.6H459.2z"/>
	<path class="st4" d="M484.7,581.2c0,3.5-0.7,6.2-2.2,8.1s-3.6,2.8-6.4,2.8c-2.8,0-4.9-0.9-6.4-2.8s-2.2-4.5-2.3-7.9v-4.7
		c0-3.6,0.7-6.3,2.2-8.1s3.6-2.8,6.4-2.8s4.9,0.9,6.4,2.8s2.2,4.5,2.3,7.9V581.2z M479.6,576.1c0-2.1-0.3-3.7-0.9-4.6
		c-0.6-1-1.5-1.5-2.7-1.5c-1.2,0-2.1,0.5-2.6,1.4c-0.6,0.9-0.9,2.4-0.9,4.3v6.2c0,2.1,0.3,3.6,0.9,4.7c0.6,1.1,1.5,1.5,2.7,1.5
		s2.1-0.5,2.7-1.5c0.6-1,0.8-2.5,0.9-4.5v-6H479.6z"/>
	<path class="st4" d="M505.3,581.2c0,3.5-0.7,6.2-2.2,8.1s-3.6,2.8-6.4,2.8s-4.9-0.9-6.4-2.8s-2.2-4.5-2.3-7.9v-4.7
		c0-3.6,0.7-6.3,2.2-8.1s3.6-2.8,6.4-2.8s4.9,0.9,6.4,2.8s2.2,4.5,2.3,7.9V581.2z M500.3,576.1c0-2.1-0.3-3.7-0.9-4.6
		c-0.6-1-1.5-1.5-2.7-1.5s-2.1,0.5-2.6,1.4c-0.6,0.9-0.9,2.4-0.9,4.3v6.2c0,2.1,0.3,3.6,0.9,4.7s1.5,1.5,2.7,1.5
		c1.2,0,2.1-0.5,2.7-1.5s0.8-2.5,0.9-4.5v-6H500.3z"/>
</g>
<g>
	<path class="st6" d="M568.2,624.4h-11.7v-2.3l5.5-5.9c0.8-0.8,1.3-1.6,1.7-2.2s0.5-1.2,0.5-1.8c0-0.8-0.2-1.4-0.6-1.8
		c-0.4-0.4-0.9-0.7-1.6-0.7c-0.8,0-1.4,0.3-1.8,0.8s-0.7,1.2-0.7,2.1h-3.4c0-1,0.2-2,0.7-2.8s1.2-1.5,2.1-2s1.9-0.7,3.1-0.7
		c1.8,0,3.1,0.4,4.1,1.3s1.5,2,1.5,3.6c0,0.8-0.2,1.7-0.7,2.6s-1.2,1.9-2.2,3.1l-3.9,4.1h7.3v2.6H568.2z"/>
	<path class="st6" d="M581.8,617.4c0,2.4-0.5,4.2-1.5,5.4s-2.4,1.9-4.3,1.9s-3.3-0.6-4.3-1.8s-1.5-3-1.5-5.3v-3.1
		c0-2.4,0.5-4.2,1.5-5.4s2.4-1.9,4.3-1.9s3.3,0.6,4.3,1.8s1.5,3,1.5,5.3V617.4z M578.4,613.9c0-1.4-0.2-2.4-0.6-3.1s-1-1-1.8-1
		s-1.4,0.3-1.8,0.9s-0.6,1.6-0.6,2.9v4.2c0,1.4,0.2,2.4,0.6,3.1s1,1,1.8,1s1.4-0.3,1.8-1c0.4-0.6,0.6-1.6,0.6-3V613.9z"/>
	<path class="st6" d="M592.3,624.4h-3.4v-13.1l-4,1.3v-2.8l7.1-2.5h0.4v17.1H592.3z"/>
	<path class="st6" d="M609.3,617.4c0,2.4-0.5,4.2-1.5,5.4s-2.4,1.9-4.3,1.9s-3.3-0.6-4.3-1.8s-1.5-3-1.5-5.3v-3.1
		c0-2.4,0.5-4.2,1.5-5.4s2.4-1.9,4.3-1.9s3.3,0.6,4.3,1.8s1.5,3,1.5,5.3V617.4z M605.9,613.9c0-1.4-0.2-2.4-0.6-3.1s-1-1-1.8-1
		s-1.4,0.3-1.8,0.9s-0.6,1.6-0.6,2.9v4.2c0,1.4,0.2,2.4,0.6,3.1s1,1,1.8,1s1.4-0.3,1.8-1c0.4-0.6,0.6-1.6,0.6-3V613.9z"/>
</g>
<g>
	<path class="st6" d="M900.4,702.6h5.1v14.6c0,1.4-0.3,2.6-0.9,3.6s-1.5,1.9-2.6,2.5s-2.4,0.9-3.8,0.9c-2.3,0-4.1-0.6-5.4-1.8
		s-1.9-2.8-1.9-5h5.2c0,1,0.2,1.7,0.5,2.1s0.9,0.7,1.7,0.7c0.7,0,1.3-0.3,1.6-0.8c0.4-0.5,0.6-1.3,0.6-2.2L900.4,702.6L900.4,702.6z
		"/>
	<path class="st6" d="M919.8,718.3c0-0.8-0.3-1.3-0.8-1.8s-1.5-0.9-2.8-1.3s-2.4-0.9-3.3-1.3c-2.8-1.4-4.1-3.2-4.1-5.6
		c0-1.2,0.3-2.2,1-3.1c0.7-0.9,1.7-1.6,2.9-2.1c1.3-0.5,2.7-0.8,4.2-0.8s2.9,0.3,4.1,0.8s2.2,1.3,2.8,2.3c0.7,1,1,2.2,1,3.5h-5.1
		c0-0.9-0.3-1.5-0.8-2s-1.3-0.7-2.2-0.7s-1.6,0.2-2.2,0.6s-0.8,0.9-0.8,1.5c0,0.5,0.3,1,0.9,1.5c0.6,0.4,1.6,0.9,3.1,1.4
		s2.7,1,3.6,1.5c2.3,1.3,3.5,3.2,3.5,5.5c0,1.9-0.7,3.3-2.1,4.4s-3.3,1.6-5.8,1.6c-1.7,0-3.3-0.3-4.7-0.9s-2.5-1.5-3.2-2.5
		s-1.1-2.3-1.1-3.7h5.2c0,1.1,0.3,2,0.9,2.5c0.6,0.5,1.6,0.8,2.9,0.8c0.8,0,1.5-0.2,2-0.5C919.5,719.4,919.8,718.9,919.8,718.3z"/>
	<path class="st6" d="M950.9,706.6h-6.4V724h-5.1v-17.4H933v-4h17.8v4H950.9z"/>
	<path class="st6" d="M961.4,712.5l-1.6-0.1c-1.6,0-2.5,0.5-3,1.5v10h-4.9v-15.8h4.6l0.2,2c0.8-1.6,2-2.3,3.5-2.3
		c0.5,0,1,0.1,1.4,0.2L961.4,712.5z"/>
	<path class="st6" d="M971.7,723.9c-0.2-0.3-0.3-0.8-0.5-1.4c-0.9,1.1-2.2,1.7-3.8,1.7c-1.5,0-2.8-0.5-3.8-1.4s-1.6-2-1.6-3.4
		c0-1.7,0.6-3,1.9-3.9s3.1-1.3,5.5-1.3h1.5v-0.8c0-1.5-0.6-2.2-1.9-2.2c-1.2,0-1.8,0.6-1.8,1.7h-4.9c0-1.5,0.7-2.8,2-3.7
		c1.3-1,3-1.4,5-1.4s3.6,0.5,4.8,1.5s1.8,2.3,1.8,4.1v7c0,1.5,0.2,2.6,0.7,3.3v0.2L971.7,723.9L971.7,723.9z M968.6,720.7
		c0.6,0,1.1-0.1,1.5-0.4s0.7-0.6,0.9-0.9v-2.5h-1.4c-1.7,0-2.6,0.8-2.6,2.3c0,0.4,0.2,0.8,0.5,1.1
		C967.8,720.6,968.2,720.7,968.6,720.7z"/>
	<path class="st6" d="M983.2,708.1l0.2,1.9c1.1-1.4,2.6-2.2,4.5-2.2c1.7,0,2.9,0.5,3.7,1.5s1.2,2.5,1.3,4.5V724h-5v-10
		c0-0.8-0.2-1.4-0.5-1.8s-0.9-0.6-1.8-0.6c-1,0-1.7,0.4-2.2,1.1v11.2h-4.9v-15.8L983.2,708.1L983.2,708.1z"/>
	<path class="st6" d="M1003.9,719.5c0-0.4-0.2-0.8-0.7-1s-1.3-0.5-2.5-0.8s-2.2-0.6-3-1.1c-0.8-0.4-1.4-1-1.8-1.6s-0.6-1.4-0.6-2.2
		c0-1.5,0.6-2.7,1.8-3.6s2.8-1.4,4.7-1.4c2.1,0,3.8,0.5,5,1.4s1.9,2.2,1.9,3.7h-5c0-1.3-0.7-1.9-2-1.9c-0.5,0-1,0.1-1.3,0.4
		c-0.4,0.3-0.5,0.6-0.5,1.1c0,0.4,0.2,0.8,0.6,1.1s1.1,0.5,2.1,0.7s1.8,0.4,2.5,0.6c2.4,0.8,3.6,2.3,3.6,4.4c0,1.4-0.6,2.6-1.9,3.5
		s-2.9,1.4-5,1.4c-1.4,0-2.6-0.2-3.6-0.7s-1.9-1.2-2.5-2s-0.9-1.7-0.9-2.7h4.6c0,0.7,0.3,1.3,0.7,1.6c0.5,0.3,1.1,0.5,1.8,0.5
		s1.2-0.1,1.5-0.4S1003.9,719.9,1003.9,719.5z"/>
	<path class="st6" d="M1012.1,723.9v-12.4h-2.3v-3.4h2.3v-1.3c0-1.8,0.5-3.2,1.6-4.2s2.6-1.5,4.5-1.5c0.7,0,1.5,0.1,2.3,0.3v3.6
		c-0.3-0.1-0.7-0.1-1.2-0.1c-1.5,0-2.2,0.6-2.2,1.9v1.2h3.1v3.4h-3.2v12.4L1012.1,723.9L1012.1,723.9z"/>
	<path class="st6" d="M1029.5,724.2c-2.4,0-4.4-0.7-5.9-2.2c-1.5-1.4-2.3-3.3-2.3-5.7V716c0-1.6,0.3-3.1,0.9-4.3s1.5-2.2,2.6-2.9
		c1.2-0.7,2.5-1,4.1-1c2.2,0,4,0.7,5.3,2.1c1.3,1.4,1.9,3.3,1.9,5.8v1.9h-9.8c0.2,0.9,0.6,1.6,1.2,2.1s1.4,0.8,2.3,0.8
		c1.6,0,2.8-0.5,3.7-1.6l2.3,2.7c-0.6,0.8-1.5,1.5-2.6,2C1032,724,1030.8,724.2,1029.5,724.2z M1029,711.6c-1.4,0-2.3,1-2.6,2.9h5
		v-0.4c0-0.8-0.2-1.4-0.6-1.8S1029.8,711.6,1029,711.6z"/>
	<path class="st6" d="M1047.8,712.5l-1.6-0.1c-1.6,0-2.5,0.5-3,1.5v10h-4.9v-15.8h4.6l0.2,2c0.8-1.6,2-2.3,3.5-2.3
		c0.5,0,1,0.1,1.4,0.2L1047.8,712.5z"/>
	<path class="st6" d="M1068.3,718.3c0-0.8-0.3-1.3-0.8-1.8c-0.5-0.4-1.5-0.9-2.8-1.3c-1.3-0.4-2.4-0.9-3.3-1.3
		c-2.8-1.4-4.1-3.2-4.1-5.6c0-1.2,0.3-2.2,1-3.1c0.7-0.9,1.7-1.6,2.9-2.1c1.3-0.5,2.7-0.8,4.2-0.8s2.9,0.3,4.1,0.8
		c1.2,0.5,2.2,1.3,2.8,2.3c0.7,1,1,2.2,1,3.5h-5.1c0-0.9-0.3-1.5-0.8-2s-1.3-0.7-2.2-0.7s-1.6,0.2-2.2,0.6c-0.6,0.4-0.8,0.9-0.8,1.5
		c0,0.5,0.3,1,0.9,1.5c0.6,0.4,1.6,0.9,3.1,1.4s2.7,1,3.6,1.5c2.3,1.3,3.5,3.2,3.5,5.5c0,1.9-0.7,3.3-2.1,4.4s-3.3,1.6-5.8,1.6
		c-1.7,0-3.3-0.3-4.7-0.9c-1.4-0.6-2.5-1.5-3.2-2.5c-0.7-1.1-1.1-2.3-1.1-3.7h5.2c0,1.1,0.3,2,0.9,2.5s1.5,0.8,2.9,0.8
		c0.8,0,1.5-0.2,2-0.5C1068,719.4,1068.3,718.9,1068.3,718.3z"/>
	<path class="st6" d="M1075.8,704c0-0.7,0.3-1.3,0.8-1.7s1.2-0.7,2-0.7s1.5,0.2,2,0.7s0.8,1,0.8,1.7s-0.3,1.3-0.8,1.7
		s-1.2,0.7-2,0.7s-1.5-0.2-2-0.7S1075.8,704.7,1075.8,704z M1081,723.9h-5v-15.8h5V723.9z"/>
	<path class="st6" d="M1089.9,720.1h7.2v3.8h-13.5v-2.8l7-9.3h-6.7V708h13v2.7L1089.9,720.1z"/>
	<path class="st6" d="M1107.2,724.2c-2.4,0-4.4-0.7-5.9-2.2c-1.5-1.4-2.3-3.3-2.3-5.7V716c0-1.6,0.3-3.1,0.9-4.3s1.5-2.2,2.6-2.9
		c1.2-0.7,2.5-1,4.1-1c2.2,0,4,0.7,5.3,2.1c1.3,1.4,1.9,3.3,1.9,5.8v1.9h-9.8c0.2,0.9,0.6,1.6,1.2,2.1c0.6,0.5,1.4,0.8,2.3,0.8
		c1.6,0,2.8-0.5,3.7-1.6l2.3,2.7c-0.6,0.8-1.5,1.5-2.6,2C1109.7,724,1108.5,724.2,1107.2,724.2z M1106.6,711.6c-1.4,0-2.3,1-2.6,2.9
		h5v-0.4c0-0.8-0.2-1.4-0.6-1.8S1107.4,711.6,1106.6,711.6z"/>
	<path class="st6" d="M1123.7,715.3c0-2.4,0.3-4.6,1-6.7c0.7-2.1,1.5-3.8,2.6-5.2c1.1-1.4,2.4-2.4,3.7-3l0.9,2.4
		c-1.4,1-2.4,2.6-3.2,4.7c-0.7,2.1-1.1,4.6-1.1,7.5v0.6c0,2.9,0.4,5.5,1.1,7.6c0.7,2.2,1.8,3.7,3.2,4.7l-0.9,2.4
		c-1.3-0.5-2.6-1.5-3.7-3c-1.1-1.4-2-3.2-2.6-5.2c-0.6-2-0.9-4.2-1-6.4V715.3z"/>
	<path class="st6" d="M1140.3,718l-1.4,1.4v4.5h-4.9v-22.5h4.9v12l0.5-0.7l3.7-4.6h5.9l-5.6,6.5l5.9,9.3h-5.7L1140.3,718z"/>
	<path class="st6" d="M1150.5,723.9v-21.3h7.7c2.7,0,4.8,0.5,6.3,1.5c1.4,1,2.1,2.5,2.1,4.4c0,1.1-0.3,2-0.8,2.8s-1.3,1.4-2.2,1.7
		c1.1,0.3,2,0.8,2.6,1.6s0.9,1.8,0.9,2.9c0,2.1-0.7,3.7-2,4.7s-3.3,1.6-5.9,1.6L1150.5,723.9L1150.5,723.9z M1155.7,711.5h2.7
		c1.1,0,1.9-0.2,2.4-0.6s0.7-1,0.7-1.8c0-0.9-0.3-1.5-0.8-1.9s-1.4-0.6-2.5-0.6h-2.5L1155.7,711.5L1155.7,711.5z M1155.7,714.9v5.1
		h3.4c0.9,0,1.6-0.2,2.1-0.6c0.5-0.4,0.7-1,0.7-1.8c0-1.8-0.9-2.7-2.7-2.7H1155.7z"/>
	<path class="st6" d="M1177.4,715.7c0,2.3-0.3,4.5-1,6.5s-1.6,3.8-2.8,5.3c-1.2,1.5-2.5,2.5-3.8,3l-0.9-2.4c1.4-1,2.4-2.6,3.1-4.7
		s1.1-4.5,1.2-7.3v-0.9c0-2.9-0.4-5.5-1.1-7.6c-0.7-2.2-1.8-3.7-3.2-4.7l0.9-2.4c1.4,0.5,2.6,1.5,3.8,3c1.2,1.5,2.1,3.2,2.8,5.2
		s1,4.2,1,6.4V715.7z"/>
</g>
<g>
	<path class="st6" d="M1310.4,704.6h5.1v14.6c0,1.4-0.3,2.6-0.9,3.6s-1.5,1.9-2.6,2.5s-2.4,0.9-3.8,0.9c-2.3,0-4.1-0.6-5.4-1.8
		s-1.9-2.8-1.9-5h5.2c0,1,0.2,1.7,0.5,2.1s0.9,0.7,1.7,0.7c0.7,0,1.3-0.3,1.6-0.8c0.4-0.5,0.6-1.3,0.6-2.2L1310.4,704.6
		L1310.4,704.6z"/>
	<path class="st6" d="M1329.8,720.2c0-0.8-0.3-1.3-0.8-1.8s-1.5-0.9-2.8-1.3s-2.4-0.9-3.3-1.3c-2.8-1.4-4.1-3.2-4.1-5.6
		c0-1.2,0.3-2.2,1-3.1c0.7-0.9,1.7-1.6,2.9-2.1c1.3-0.5,2.7-0.8,4.2-0.8s2.9,0.3,4.1,0.8s2.2,1.3,2.8,2.3c0.7,1,1,2.2,1,3.5h-5.1
		c0-0.9-0.3-1.5-0.8-2s-1.3-0.7-2.2-0.7c-0.9,0-1.6,0.2-2.2,0.6s-0.8,0.9-0.8,1.5c0,0.5,0.3,1,0.9,1.5c0.6,0.4,1.6,0.9,3.1,1.4
		s2.7,1,3.6,1.5c2.3,1.3,3.5,3.2,3.5,5.5c0,1.9-0.7,3.3-2.1,4.4s-3.3,1.6-5.8,1.6c-1.7,0-3.3-0.3-4.7-0.9s-2.5-1.5-3.2-2.5
		s-1.1-2.3-1.1-3.7h5.2c0,1.1,0.3,2,0.9,2.5s1.5,0.8,2.9,0.8c0.8,0,1.5-0.2,2-0.5C1329.5,721.4,1329.8,720.9,1329.8,720.2z"/>
	<path class="st6" d="M1352.9,718.3h-2.8v7.5h-5.1v-21.3h8.4c2.5,0,4.5,0.6,5.9,1.7s2.1,2.7,2.1,4.8c0,1.5-0.3,2.7-0.9,3.7
		s-1.5,1.8-2.8,2.4l4.5,8.6v0.2h-5.5L1352.9,718.3z M1350.1,714.4h3.3c1,0,1.7-0.3,2.2-0.8s0.7-1.2,0.7-2.2c0-0.9-0.2-1.6-0.7-2.2
		c-0.5-0.5-1.2-0.8-2.2-0.8h-3.3V714.4z"/>
	<path class="st6" d="M1372,726.2c-2.4,0-4.4-0.7-5.9-2.2c-1.5-1.4-2.3-3.3-2.3-5.7v-0.4c0-1.6,0.3-3.1,0.9-4.3s1.5-2.2,2.6-2.9
		c1.2-0.7,2.5-1,4.1-1c2.2,0,4,0.7,5.3,2.1c1.3,1.4,1.9,3.3,1.9,5.8v1.9h-9.8c0.2,0.9,0.6,1.6,1.2,2.1s1.4,0.8,2.3,0.8
		c1.6,0,2.8-0.5,3.7-1.6l2.3,2.7c-0.6,0.8-1.5,1.5-2.6,2C1374.5,725.9,1373.3,726.2,1372,726.2z M1371.5,713.5c-1.4,0-2.3,1-2.6,2.9
		h5V716c0-0.8-0.2-1.4-0.6-1.8S1372.2,713.5,1371.5,713.5z"/>
	<path class="st6" d="M1380.1,717.8c0-2.5,0.5-4.5,1.6-5.9s2.6-2.1,4.5-2.1c1.6,0,2.9,0.7,3.9,2l0.4-1.7h4.3V732h-5v-7.4
		c-0.9,1.1-2.1,1.6-3.6,1.6c-1.9,0-3.4-0.7-4.5-2.2C1380.6,722.5,1380.1,720.5,1380.1,717.8z M1385,718.1c0,2.8,0.8,4.3,2.5,4.3
		c1.1,0,1.9-0.4,2.3-1.3v-6.3c-0.4-0.8-1.2-1.3-2.3-1.3c-1.5,0-2.4,1.2-2.5,3.7V718.1z"/>
	<path class="st6" d="M1407,724.2c-1,1.3-2.5,2-4.2,2s-3.1-0.5-3.9-1.5c-0.9-1-1.3-2.5-1.3-4.4V710h4.9v10.3c0,1.4,0.7,2,2,2
		c1.1,0,1.9-0.4,2.4-1.2V710h5v15.8h-4.6L1407,724.2z"/>
	<path class="st6" d="M1422.1,726.2c-2.4,0-4.4-0.7-5.9-2.2c-1.5-1.4-2.3-3.3-2.3-5.7v-0.4c0-1.6,0.3-3.1,0.9-4.3s1.5-2.2,2.6-2.9
		c1.2-0.7,2.5-1,4.1-1c2.2,0,4,0.7,5.3,2.1c1.3,1.4,1.9,3.3,1.9,5.8v1.9h-9.8c0.2,0.9,0.6,1.6,1.2,2.1s1.4,0.8,2.3,0.8
		c1.6,0,2.8-0.5,3.7-1.6l2.3,2.7c-0.6,0.8-1.5,1.5-2.6,2C1424.6,725.9,1423.4,726.2,1422.1,726.2z M1421.6,713.5
		c-1.4,0-2.3,1-2.6,2.9h5V716c0-0.8-0.2-1.4-0.6-1.8S1422.4,713.5,1421.6,713.5z"/>
	<path class="st6" d="M1439.1,721.4c0-0.4-0.2-0.8-0.7-1s-1.3-0.5-2.5-0.8s-2.2-0.6-3-1.1c-0.8-0.4-1.4-1-1.8-1.6s-0.6-1.4-0.6-2.2
		c0-1.5,0.6-2.7,1.8-3.6s2.8-1.4,4.7-1.4c2.1,0,3.8,0.5,5,1.4s1.9,2.2,1.9,3.7h-5c0-1.3-0.7-1.9-2-1.9c-0.5,0-1,0.1-1.3,0.4
		c-0.4,0.3-0.5,0.6-0.5,1.1c0,0.4,0.2,0.8,0.6,1.1s1.1,0.5,2.1,0.7s1.8,0.4,2.5,0.6c2.4,0.8,3.6,2.3,3.6,4.4c0,1.4-0.6,2.6-1.9,3.5
		s-2.9,1.4-5,1.4c-1.4,0-2.6-0.2-3.6-0.7s-1.9-1.2-2.5-2s-0.9-1.7-0.9-2.7h4.6c0,0.7,0.3,1.3,0.7,1.6c0.5,0.3,1.1,0.5,1.8,0.5
		c0.7,0,1.2-0.1,1.5-0.4S1439.1,721.9,1439.1,721.4z"/>
	<path class="st6" d="M1451.9,706.1v3.9h2.6v3.4h-2.6v7.3c0,0.6,0.1,1,0.3,1.2s0.6,0.4,1.3,0.4c0.5,0,0.9,0,1.2-0.1v3.5
		c-0.9,0.3-1.8,0.4-2.8,0.4c-1.7,0-3-0.4-3.8-1.2s-1.2-2-1.2-3.6v-7.9h-2V710h2v-3.9H1451.9z"/>
	<path class="st6" d="M1464.8,721.4c0-0.4-0.2-0.8-0.7-1s-1.3-0.5-2.5-0.8s-2.2-0.6-3-1.1c-0.8-0.4-1.4-1-1.8-1.6s-0.6-1.4-0.6-2.2
		c0-1.5,0.6-2.7,1.8-3.6s2.8-1.4,4.7-1.4c2.1,0,3.8,0.5,5,1.4s1.9,2.2,1.9,3.7h-5c0-1.3-0.7-1.9-2-1.9c-0.5,0-1,0.1-1.3,0.4
		c-0.4,0.3-0.5,0.6-0.5,1.1c0,0.4,0.2,0.8,0.6,1.1s1.1,0.5,2.1,0.7c0.9,0.2,1.8,0.4,2.5,0.6c2.4,0.8,3.6,2.3,3.6,4.4
		c0,1.4-0.6,2.6-1.9,3.5s-2.9,1.4-5,1.4c-1.4,0-2.6-0.2-3.6-0.7s-1.9-1.2-2.5-2s-0.9-1.7-0.9-2.7h4.6c0,0.7,0.3,1.3,0.7,1.6
		c0.5,0.3,1.1,0.5,1.8,0.5c0.7,0,1.2-0.1,1.5-0.4C1464.6,722.2,1464.8,721.9,1464.8,721.4z"/>
</g>
<g>
	<path class="st6" d="M756.8,624.4h-11.7v-2.3l5.5-5.9c0.8-0.8,1.3-1.6,1.7-2.2s0.5-1.2,0.5-1.8c0-0.8-0.2-1.4-0.6-1.8
		c-0.4-0.4-0.9-0.7-1.6-0.7c-0.8,0-1.4,0.3-1.8,0.8s-0.7,1.2-0.7,2.1h-3.4c0-1,0.2-2,0.7-2.8s1.2-1.5,2.1-2s1.9-0.7,3.1-0.7
		c1.8,0,3.1,0.4,4.1,1.3s1.5,2,1.5,3.6c0,0.8-0.2,1.7-0.7,2.6s-1.2,1.9-2.2,3.1l-3.9,4.1h7.3v2.6H756.8z"/>
	<path class="st6" d="M770.4,617.4c0,2.4-0.5,4.2-1.5,5.4s-2.4,1.9-4.3,1.9s-3.3-0.6-4.3-1.8s-1.5-3-1.5-5.3v-3.1
		c0-2.4,0.5-4.2,1.5-5.4s2.4-1.9,4.3-1.9s3.3,0.6,4.3,1.8s1.5,3,1.5,5.3V617.4z M767,613.9c0-1.4-0.2-2.4-0.6-3.1
		c-0.4-0.7-1-1-1.8-1c-0.8,0-1.4,0.3-1.8,0.9c-0.4,0.6-0.6,1.6-0.6,2.9v4.2c0,1.4,0.2,2.4,0.6,3.1c0.4,0.7,1,1,1.8,1
		c0.8,0,1.4-0.3,1.8-1c0.4-0.6,0.6-1.6,0.6-3V613.9z"/>
	<path class="st6" d="M780.9,624.4h-3.4v-13.1l-4,1.3v-2.8l7.1-2.5h0.4L780.9,624.4L780.9,624.4z"/>
	<path class="st6" d="M794.7,624.4h-3.4v-13.1l-4,1.3v-2.8l7.1-2.5h0.4L794.7,624.4L794.7,624.4z"/>
</g>
<g>
	<path class="st6" d="M945.4,624.4h-11.7v-2.3l5.5-5.9c0.8-0.8,1.3-1.6,1.7-2.2s0.5-1.2,0.5-1.8c0-0.8-0.2-1.4-0.6-1.8
		s-0.9-0.7-1.6-0.7c-0.8,0-1.4,0.3-1.8,0.8s-0.7,1.2-0.7,2.1h-3.4c0-1,0.2-2,0.7-2.8s1.2-1.5,2.1-2s1.9-0.7,3.1-0.7
		c1.8,0,3.1,0.4,4.1,1.3s1.5,2,1.5,3.6c0,0.8-0.2,1.7-0.7,2.6s-1.2,1.9-2.2,3.1l-3.9,4.1h7.3v2.6H945.4z"/>
	<path class="st6" d="M959,617.4c0,2.4-0.5,4.2-1.5,5.4s-2.4,1.9-4.3,1.9c-1.9,0-3.3-0.6-4.3-1.8s-1.5-3-1.5-5.3v-3.1
		c0-2.4,0.5-4.2,1.5-5.4s2.4-1.9,4.3-1.9s3.3,0.6,4.3,1.8s1.5,3,1.5,5.3V617.4z M955.6,613.9c0-1.4-0.2-2.4-0.6-3.1s-1-1-1.8-1
		s-1.4,0.3-1.8,0.9s-0.6,1.6-0.6,2.9v4.2c0,1.4,0.2,2.4,0.6,3.1s1,1,1.8,1s1.4-0.3,1.8-1c0.4-0.6,0.6-1.6,0.6-3V613.9z"/>
	<path class="st6" d="M969.5,624.4h-3.4v-13.1l-4,1.3v-2.8l7.1-2.5h0.4L969.5,624.4L969.5,624.4z"/>
	<path class="st6" d="M986.7,624.4H975v-2.3l5.5-5.9c0.8-0.8,1.3-1.6,1.7-2.2s0.5-1.2,0.5-1.8c0-0.8-0.2-1.4-0.6-1.8
		s-0.9-0.7-1.6-0.7c-0.8,0-1.4,0.3-1.8,0.8s-0.7,1.2-0.7,2.1h-3.4c0-1,0.2-2,0.7-2.8s1.2-1.5,2.1-2s1.9-0.7,3.1-0.7
		c1.8,0,3.1,0.4,4.1,1.3s1.5,2,1.5,3.6c0,0.8-0.2,1.7-0.7,2.6s-1.2,1.9-2.2,3.1l-3.9,4.1h7.3v2.6H986.7z"/>
</g>
<g>
	<path class="st6" d="M1134,624.4h-11.7v-2.3l5.5-5.9c0.8-0.8,1.3-1.6,1.7-2.2s0.5-1.2,0.5-1.8c0-0.8-0.2-1.4-0.6-1.8
		s-0.9-0.7-1.6-0.7c-0.8,0-1.4,0.3-1.8,0.8c-0.4,0.5-0.7,1.2-0.7,2.1h-3.3c0-1,0.2-2,0.7-2.8s1.2-1.5,2.1-2c0.9-0.5,1.9-0.7,3.1-0.7
		c1.8,0,3.1,0.4,4.1,1.3s1.5,2,1.5,3.6c0,0.8-0.2,1.7-0.7,2.6s-1.2,1.9-2.2,3.1l-3.9,4.1h7.3L1134,624.4L1134,624.4z"/>
	<path class="st6" d="M1147.6,617.4c0,2.4-0.5,4.2-1.5,5.4s-2.4,1.9-4.3,1.9c-1.9,0-3.3-0.6-4.3-1.8s-1.5-3-1.5-5.3v-3.1
		c0-2.4,0.5-4.2,1.5-5.4s2.4-1.9,4.3-1.9c1.9,0,3.3,0.6,4.3,1.8s1.5,3,1.5,5.3V617.4z M1144.2,613.9c0-1.4-0.2-2.4-0.6-3.1
		c-0.4-0.7-1-1-1.8-1s-1.4,0.3-1.8,0.9c-0.4,0.6-0.6,1.6-0.6,2.9v4.2c0,1.4,0.2,2.4,0.6,3.1c0.4,0.7,1,1,1.8,1s1.4-0.3,1.8-1
		c0.4-0.6,0.6-1.6,0.6-3V613.9z"/>
	<path class="st6" d="M1158.1,624.4h-3.4v-13.1l-4,1.3v-2.8l7.1-2.5h0.4L1158.1,624.4L1158.1,624.4z"/>
	<path class="st6" d="M1167.1,614.4h1.8c0.9,0,1.5-0.2,1.9-0.6c0.4-0.4,0.6-1,0.6-1.7s-0.2-1.2-0.6-1.6c-0.4-0.4-1-0.6-1.7-0.6
		c-0.6,0-1.2,0.2-1.6,0.5s-0.7,0.8-0.7,1.4h-3.4c0-0.9,0.2-1.7,0.7-2.4s1.2-1.3,2-1.7s1.8-0.6,2.9-0.6c1.8,0,3.2,0.4,4.2,1.3
		s1.5,2.1,1.5,3.6c0,0.8-0.2,1.5-0.7,2.2s-1.1,1.2-1.9,1.5c1,0.3,1.7,0.9,2.2,1.5s0.7,1.5,0.7,2.4c0,1.5-0.6,2.7-1.7,3.6
		c-1.1,0.9-2.6,1.4-4.4,1.4c-1.7,0-3.1-0.4-4.2-1.3s-1.6-2.1-1.6-3.6h3.4c0,0.6,0.2,1.2,0.7,1.6s1.1,0.6,1.8,0.6
		c0.8,0,1.4-0.2,1.9-0.6s0.7-1,0.7-1.7c0-1.7-0.9-2.6-2.8-2.6h-1.8L1167.1,614.4L1167.1,614.4z"/>
</g>
<g>
	<path class="st6" d="M1322.6,624.4h-11.7v-2.3l5.5-5.9c0.8-0.8,1.3-1.6,1.7-2.2s0.5-1.2,0.5-1.8c0-0.8-0.2-1.4-0.6-1.8
		s-0.9-0.7-1.6-0.7c-0.8,0-1.4,0.3-1.8,0.8s-0.7,1.2-0.7,2.1h-3.4c0-1,0.2-2,0.7-2.8s1.2-1.5,2.1-2s1.9-0.7,3.1-0.7
		c1.8,0,3.1,0.4,4.1,1.3s1.5,2,1.5,3.6c0,0.8-0.2,1.7-0.7,2.6s-1.2,1.9-2.2,3.1l-3.9,4.1h7.3L1322.6,624.4L1322.6,624.4z"/>
	<path class="st6" d="M1336.2,617.4c0,2.4-0.5,4.2-1.5,5.4s-2.4,1.9-4.3,1.9s-3.3-0.6-4.3-1.8s-1.5-3-1.5-5.3v-3.1
		c0-2.4,0.5-4.2,1.5-5.4s2.4-1.9,4.3-1.9s3.3,0.6,4.3,1.8s1.5,3,1.5,5.3V617.4z M1332.8,613.9c0-1.4-0.2-2.4-0.6-3.1s-1-1-1.8-1
		s-1.4,0.3-1.8,0.9s-0.6,1.6-0.6,2.9v4.2c0,1.4,0.2,2.4,0.6,3.1s1,1,1.8,1s1.4-0.3,1.8-1c0.4-0.6,0.6-1.6,0.6-3V613.9z"/>
	<path class="st6" d="M1346.7,624.4h-3.4v-13.1l-4,1.3v-2.8l7.1-2.5h0.4L1346.7,624.4L1346.7,624.4z"/>
	<path class="st6" d="M1362.2,618h1.9v2.7h-1.9v3.7h-3.4v-3.7h-7l-0.2-2.1l7.1-11.2h3.4L1362.2,618L1362.2,618z M1355.1,618h3.8v-6
		l-0.2,0.4L1355.1,618z"/>
</g>
<g>
	<path class="st6" d="M1511.2,624.4h-11.7v-2.3l5.5-5.9c0.8-0.8,1.3-1.6,1.7-2.2s0.5-1.2,0.5-1.8c0-0.8-0.2-1.4-0.6-1.8
		s-0.9-0.7-1.6-0.7c-0.8,0-1.4,0.3-1.8,0.8s-0.7,1.2-0.7,2.1h-3.4c0-1,0.2-2,0.7-2.8s1.2-1.5,2.1-2s1.9-0.7,3.1-0.7
		c1.8,0,3.1,0.4,4.1,1.3s1.5,2,1.5,3.6c0,0.8-0.2,1.7-0.7,2.6s-1.2,1.9-2.2,3.1l-3.9,4.1h7.3L1511.2,624.4L1511.2,624.4z"/>
	<path class="st6" d="M1524.8,617.4c0,2.4-0.5,4.2-1.5,5.4s-2.4,1.9-4.3,1.9s-3.3-0.6-4.3-1.8s-1.5-3-1.5-5.3v-3.1
		c0-2.4,0.5-4.2,1.5-5.4s2.4-1.9,4.3-1.9s3.3,0.6,4.3,1.8s1.5,3,1.5,5.3V617.4z M1521.4,613.9c0-1.4-0.2-2.4-0.6-3.1s-1-1-1.8-1
		s-1.4,0.3-1.8,0.9s-0.6,1.6-0.6,2.9v4.2c0,1.4,0.2,2.4,0.6,3.1s1,1,1.8,1s1.4-0.3,1.8-1c0.4-0.6,0.6-1.6,0.6-3V613.9z"/>
	<path class="st6" d="M1535.3,624.4h-3.4v-13.1l-4,1.3v-2.8l7.1-2.5h0.4L1535.3,624.4L1535.3,624.4z"/>
	<path class="st6" d="M1541.3,616l1-8.7h9.6v2.8h-6.8l-0.4,3.7c0.8-0.4,1.7-0.6,2.6-0.6c1.6,0,2.9,0.5,3.8,1.5s1.4,2.4,1.4,4.2
		c0,1.1-0.2,2.1-0.7,3s-1.1,1.5-2,2s-1.9,0.7-3.1,0.7c-1,0-2-0.2-2.9-0.6s-1.6-1-2.1-1.8s-0.8-1.6-0.8-2.6h3.4
		c0.1,0.7,0.3,1.3,0.7,1.7s1,0.6,1.7,0.6c0.8,0,1.4-0.3,1.8-0.8s0.6-1.3,0.6-2.3s-0.2-1.7-0.7-2.2s-1.2-0.8-2-0.8s-1.5,0.2-2,0.6
		l-0.3,0.3L1541.3,616z"/>
</g>
<g>
	<path class="st6" d="M1699.8,624.4h-11.7v-2.3l5.5-5.9c0.8-0.8,1.3-1.6,1.7-2.2s0.5-1.2,0.5-1.8c0-0.8-0.2-1.4-0.6-1.8
		s-0.9-0.7-1.6-0.7c-0.8,0-1.4,0.3-1.8,0.8s-0.7,1.2-0.7,2.1h-3.4c0-1,0.2-2,0.7-2.8s1.2-1.5,2.1-2s1.9-0.7,3.1-0.7
		c1.8,0,3.1,0.4,4.1,1.3s1.5,2,1.5,3.6c0,0.8-0.2,1.7-0.7,2.6s-1.2,1.9-2.2,3.1l-3.9,4.1h7.3L1699.8,624.4L1699.8,624.4z"/>
	<path class="st6" d="M1713.4,617.4c0,2.4-0.5,4.2-1.5,5.4s-2.4,1.9-4.3,1.9s-3.3-0.6-4.3-1.8s-1.5-3-1.5-5.3v-3.1
		c0-2.4,0.5-4.2,1.5-5.4s2.4-1.9,4.3-1.9s3.3,0.6,4.3,1.8s1.5,3,1.5,5.3V617.4z M1710,613.9c0-1.4-0.2-2.4-0.6-3.1s-1-1-1.8-1
		s-1.4,0.3-1.8,0.9s-0.6,1.6-0.6,2.9v4.2c0,1.4,0.2,2.4,0.6,3.1s1,1,1.8,1s1.4-0.3,1.8-1c0.4-0.6,0.6-1.6,0.6-3V613.9z"/>
	<path class="st6" d="M1723.9,624.4h-3.4v-13.1l-4,1.3v-2.8l7.1-2.5h0.4L1723.9,624.4L1723.9,624.4z"/>
	<path class="st6" d="M1738.6,607.2v2.8h-0.3c-1.5,0-2.8,0.4-3.7,1.2s-1.5,1.8-1.7,3.2c0.9-0.9,2.1-1.4,3.4-1.4
		c1.5,0,2.7,0.5,3.5,1.6s1.3,2.5,1.3,4.2c0,1.1-0.2,2.1-0.7,3s-1.2,1.6-2,2.1s-1.9,0.8-3,0.8c-1.8,0-3.2-0.6-4.4-1.9s-1.7-2.9-1.7-5
		v-1.2c0-1.9,0.3-3.5,1-4.9s1.7-2.5,3-3.3s2.8-1.2,4.6-1.2L1738.6,607.2L1738.6,607.2z M1735.3,615.8c-0.5,0-1,0.1-1.5,0.4
		c-0.4,0.3-0.8,0.7-1,1.1v1c0,1.1,0.2,2,0.7,2.6s1.1,1,1.9,1c0.7,0,1.3-0.3,1.8-0.9s0.7-1.3,0.7-2.2s-0.2-1.7-0.7-2.2
		C1736.7,616,1736.1,615.8,1735.3,615.8z"/>
</g>
<rect x="489.5" y="483.6" class="st6" width="129.9" height="65.7"/>
<g>
	<path class="st4" d="M515.2,529.5h-5.1v-19.6l-6.1,1.9v-4.1l10.6-3.8h0.5v25.6H515.2z"/>
	<path class="st4" d="M535.8,529.5h-5.1v-19.6l-6.1,1.9v-4.1l10.6-3.8h0.5v25.6H535.8z"/>
	<path class="st4" d="M549.3,514.4h2.7c1.3,0,2.2-0.3,2.9-1c0.7-0.7,0.9-1.5,0.9-2.6c0-1-0.3-1.8-0.9-2.4c-0.6-0.6-1.5-0.9-2.5-0.9
		s-1.8,0.3-2.4,0.8s-1,1.2-1,2.1h-5.1c0-1.3,0.4-2.5,1.1-3.6s1.7-1.9,3-2.5s2.7-0.9,4.3-0.9c2.7,0,4.8,0.6,6.4,1.9
		c1.6,1.3,2.3,3.1,2.3,5.4c0,1.2-0.4,2.2-1.1,3.2s-1.7,1.7-2.8,2.3c1.4,0.5,2.5,1.3,3.2,2.3s1.1,2.2,1.1,3.7c0,2.3-0.8,4.1-2.5,5.5
		c-1.7,1.4-3.9,2.1-6.6,2.1c-2.6,0-4.6-0.7-6.3-2s-2.4-3.1-2.4-5.3h5.1c0,1,0.4,1.7,1.1,2.4c0.7,0.7,1.6,0.9,2.7,0.9
		c1.2,0,2.2-0.3,2.8-1s1-1.5,1-2.5c0-2.6-1.4-3.8-4.2-3.8h-2.7v-4.1H549.3z"/>
	<path class="st4" d="M571.9,521.8l-1.8,1.8v5.8H565v-27h5.1v15l1-1.3l4.9-5.7h6.1l-6.9,7.9l7.5,11.1h-5.8L571.9,521.8z"/>
	<path class="st4" d="M584.5,529.5v-25.6h9c3.1,0,5.5,0.6,7.1,1.8c1.6,1.2,2.4,2.9,2.4,5.2c0,1.3-0.3,2.4-1,3.3s-1.5,1.7-2.7,2.1
		c1.3,0.3,2.3,1,3.1,2c0.8,1,1.1,2.2,1.1,3.7c0,2.5-0.8,4.3-2.4,5.6c-1.6,1.3-3.8,1.9-6.7,1.9H584.5z M589.8,514.6h3.9
		c2.7,0,4-1.1,4-3.2c0-1.2-0.3-2-1-2.5c-0.7-0.5-1.7-0.8-3.2-0.8h-3.7L589.8,514.6L589.8,514.6z M589.8,518.3v6.9h4.5
		c1.2,0,2.2-0.3,2.9-0.9c0.7-0.6,1-1.4,1-2.5c0-2.3-1.2-3.5-3.6-3.6L589.8,518.3L589.8,518.3z"/>
</g>
<rect x="1672.5" y="86.8" class="st6" width="129.9" height="65.7"/>
<g>
	<path class="st4" d="M1693,117.6h2.7c1.3,0,2.2-0.3,2.9-1s0.9-1.5,0.9-2.6c0-1-0.3-1.8-0.9-2.4s-1.5-0.9-2.5-0.9s-1.8,0.3-2.4,0.8
		s-1,1.2-1,2.1h-5.1c0-1.3,0.4-2.5,1.1-3.6s1.7-1.9,3-2.5s2.7-0.9,4.3-0.9c2.7,0,4.8,0.6,6.4,1.9s2.3,3.1,2.3,5.4
		c0,1.2-0.4,2.2-1.1,3.2s-1.7,1.7-2.8,2.3c1.4,0.5,2.5,1.3,3.2,2.3s1.1,2.2,1.1,3.7c0,2.3-0.8,4.1-2.5,5.5s-3.9,2.1-6.6,2.1
		c-2.6,0-4.6-0.7-6.3-2s-2.4-3.1-2.4-5.3h5.1c0,1,0.4,1.7,1.1,2.4s1.6,0.9,2.7,0.9c1.2,0,2.2-0.3,2.8-1s1-1.5,1-2.5
		c0-2.6-1.4-3.8-4.2-3.8h-2.7L1693,117.6L1693,117.6z"/>
	<path class="st4" d="M1722.2,106.8v4.2h-0.5c-2.3,0-4.1,0.6-5.5,1.8s-2.2,2.8-2.5,4.8c1.4-1.4,3.1-2.1,5.2-2.1c2.2,0,4,0.8,5.3,2.4
		s2,3.7,2,6.3c0,1.7-0.4,3.2-1.1,4.5s-1.7,2.4-3.1,3.1s-2.8,1.1-4.5,1.1c-2.7,0-4.9-0.9-6.5-2.8s-2.5-4.4-2.5-7.5v-1.8
		c0-2.8,0.5-5.2,1.6-7.4s2.6-3.8,4.5-4.9s4.2-1.8,6.8-1.8L1722.2,106.8L1722.2,106.8z M1717.3,119.6c-0.8,0-1.6,0.2-2.2,0.6
		s-1.2,1-1.5,1.7v1.5c0,1.7,0.3,3,1,4s1.6,1.4,2.8,1.4c1.1,0,2-0.4,2.6-1.3c0.7-0.9,1-2,1-3.3c0-1.4-0.3-2.5-1-3.4
		C1719.3,120,1718.4,119.6,1717.3,119.6z"/>
	<path class="st4" d="M1745.8,113.8c0,1.2-0.3,2.3-0.9,3.3s-1.5,1.7-2.6,2.3c1.2,0.6,2.2,1.4,3,2.5s1.1,2.3,1.1,3.7
		c0,2.3-0.8,4.1-2.3,5.4s-3.7,2-6.3,2s-4.8-0.7-6.3-2s-2.3-3.1-2.3-5.4c0-1.4,0.4-2.7,1.1-3.7s1.7-1.9,2.9-2.5
		c-1.1-0.6-1.9-1.3-2.6-2.3s-0.9-2.1-0.9-3.3c0-2.2,0.7-3.9,2.2-5.2s3.4-1.9,5.9-1.9s4.5,0.6,5.9,1.9S1745.8,111.6,1745.8,113.8z
		 M1741.2,125.2c0-1.1-0.3-2-1-2.7s-1.5-1-2.6-1s-1.9,0.3-2.6,1s-1,1.6-1,2.7s0.3,2,0.9,2.6s1.5,1,2.6,1s2-0.3,2.6-1
		S1741.2,126.4,1741.2,125.2z M1740.7,114.1c0-1-0.3-1.8-0.8-2.4s-1.3-0.9-2.2-0.9c-0.9,0-1.7,0.3-2.2,0.9s-0.8,1.4-0.8,2.4
		s0.3,1.8,0.8,2.5s1.3,0.9,2.2,0.9s1.7-0.3,2.2-0.9S1740.7,115.1,1740.7,114.1z"/>
	<path class="st4" d="M1756.9,125l-1.8,1.8v5.8h-5.1v-27h5.1v15l1-1.3l4.9-5.7h6.1l-6.9,7.9l7.5,11.1h-5.8L1756.9,125z"/>
	<path class="st4" d="M1769.5,132.6V107h9c3.1,0,5.5,0.6,7.1,1.8s2.4,2.9,2.4,5.2c0,1.3-0.3,2.4-1,3.3s-1.5,1.7-2.7,2.1
		c1.3,0.3,2.3,1,3.1,2s1.1,2.2,1.1,3.7c0,2.5-0.8,4.3-2.4,5.6s-3.8,1.9-6.7,1.9H1769.5z M1774.8,117.8h3.9c2.7,0,4-1.1,4-3.2
		c0-1.2-0.3-2-1-2.5s-1.7-0.8-3.2-0.8h-3.7L1774.8,117.8L1774.8,117.8z M1774.8,121.5v6.9h4.5c1.2,0,2.2-0.3,2.9-0.9s1-1.4,1-2.5
		c0-2.3-1.2-3.5-3.6-3.6h-4.8V121.5z"/>
</g>
<rect x="1672.5" y="232.7" class="st7" width="81.9" height="65.7"/>
<g>
	<path class="st5" d="M1712.3,278.6h-17.5v-3.5l8.3-8.8c1.1-1.2,2-2.3,2.5-3.3s0.8-1.8,0.8-2.6c0-1.1-0.3-2-0.9-2.7s-1.4-1-2.5-1
		s-2.1,0.4-2.7,1.2s-1,1.8-1,3.1h-5.1c0-1.6,0.4-3,1.1-4.3s1.8-2.3,3.2-3s2.9-1.1,4.6-1.1c2.6,0,4.7,0.6,6.1,1.9s2.2,3.1,2.2,5.4
		c0,1.3-0.3,2.6-1,3.9s-1.8,2.8-3.4,4.6l-5.8,6.1h11v4.1H1712.3z"/>
	<path class="st5" d="M1733,278.6h-17.5v-3.5l8.3-8.8c1.1-1.2,2-2.3,2.5-3.3s0.8-1.8,0.8-2.6c0-1.1-0.3-2-0.9-2.7s-1.4-1-2.5-1
		s-2.1,0.4-2.7,1.2s-1,1.8-1,3.1h-5.1c0-1.6,0.4-3,1.1-4.3s1.8-2.3,3.2-3s2.9-1.1,4.6-1.1c2.6,0,4.7,0.6,6.1,1.9s2.2,3.1,2.2,5.4
		c0,1.3-0.3,2.6-1,3.9s-1.8,2.8-3.4,4.6l-5.8,6.1h11v4.1H1733z"/>
</g>
<rect x="539.4" y="373.5" class="st7" width="87.1" height="65.7"/>
<rect x="835.9" y="696.8" class="st4" width="32.9" height="32.9"/>
<rect x="1245.9" y="697.4" class="st5" width="32.9" height="32.9"/>
<g>
	<path class="st5" d="M577,419.4h-5.1v-19.6l-6.1,1.9v-4.1l10.6-3.8h0.5L577,419.4L577,419.4z"/>
	<path class="st5" d="M597.7,419.4h-5.1v-19.6l-6.1,1.9v-4.1l10.6-3.8h0.5v25.6H597.7z"/>
</g>
</svg>
