<?xml version="1.0" encoding="utf-8"?>
<!-- Generator: Adobe Illustrator 19.1.0, SVG Export Plug-In . SVG Version: 6.00 Build 0)  -->
<svg version="1.1" id="Layer_1" xmlns="http://www.w3.org/2000/svg" xmlns:xlink="http://www.w3.org/1999/xlink" x="0px" y="0px"
	 width="410.5px" height="121.9px" viewBox="0 0 410.5 121.9" style="enable-background:new 0 0 410.5 121.9;" xml:space="preserve"
	>
<style type="text/css">
	.st0{fill:#F7AA0A;stroke:#FFFFFF;stroke-opacity:0;}
	.st1{fill:#F7AA0A;stroke:#FFFFFF;stroke-width:1.0262;stroke-opacity:0;}
	.st2{fill:#F7AA0A;stroke:#FFFFFF;stroke-width:0.9083;stroke-opacity:0;}
	.st3{fill:#F7AA0A;stroke:#FFFFFF;stroke-width:1.0762;stroke-opacity:0;}
	.st4{fill:#F7AA0A;stroke:#FFFFFF;stroke-width:1.1129;stroke-opacity:0;}
	.st5{fill:#F7AA0A;stroke:#FFFFFF;stroke-width:1.1103;stroke-opacity:0;}
	.st6{fill:#5A8CE6;stroke:#FFFFFF;stroke-opacity:0;}
	.st7{fill:#C8DCEB;stroke:#FFFFFF;stroke-opacity:0;}
</style>
<g>
	<path class="st0" d="M87.3,36.8c-1.3,0-2.4,0.2-3.4,0.7c-2.1,1-4.9,0.5-7,1.6c-2,1-3,2.4-4.7,3.5c0.2-0.6,0.4-1.1,0.6-1.7
		c-0.2,0.3-0.4,0.5-0.7,0.8c-0.2,0.2-0.3,0.6-0.4,1.1c0,0.5,0,1,0,1.5c0,0.5,0.1,1.1,0,1.5c0,0.3-0.1,0.5-0.2,0.8
		c3.5-1.7,8.2-3.5,9.7-2c1.3,1.3,1.8,2.8,3.2,4.1c0.2,0.2,0.7,0.3,1.1,0.4c0.3,0,0.5,0,0.7-0.1c0.1-0.1,0.4,0,0.5-0.1
		c0.3-0.3,0.4-0.5,0.7-0.9c0.2-0.2,0.5-0.9,0.5-1.3c0-0.4-0.3-1.2-0.6-1.4c-0.1-0.1-0.7-0.5-0.7-0.6c0-0.5,1.6,0.7,1.7,0.7
		c0.1,0.1,0,0.4,0.1,0.5c0.2,0.2,0,0.4,0.1,0.6c0.4,0.7-0.3,1.9-0.6,2.3c-0.4,0.4,0.5,0.2,0.7,0c0.2-0.2,0.3-0.5,0.5-0.6
		c0,0,0-0.2,0-0.2c0.1,0,0.1,1.2,0,1.3c-0.4,0.4-0.8,0.8-1.5,1c1.6,1.2,4,2.2,5.2,3.4c0.3,0.3,2.3-0.1,2.5-0.3
		c1.5-1.5,2.6-4.2,4.4-6c0.6-0.6-0.5-3.3-0.6-3.5c-0.7-0.7-0.6-2.5-1.6-3.5C95.8,38.5,91.1,36.8,87.3,36.8L87.3,36.8z"/>
	<path class="st0" d="M73.7,33.9c-0.1,0-0.2,0.1-0.2,0.1c0,0-0.2,0-0.2,0c-0.2,0.2-0.7,0.3-1,0.6c-0.8,0.8-1.5,1.6-2.3,2.5
		c-3.9,1.4-7.5,2.6-11.9,3.1c0.3,0,0.7,0.1,1,0.1c-0.7,0.1-1.8,0-2.2,0.2c-0.1,0.1-0.6,0.2-0.7,0.2c0.2,0,0.8,0,0.9,0
		c0.6,0,1.1,0.2,1.7,0.2c0.8,0,1.7,0,2.6,0c1.5,0.5,2.8,1.2,3.8,2c0.6,0.5-0.1,3.6-0.2,4.2c-0.6,2.6,1.6,10.1,0.2,11.8
		c-0.6,0.7,0.3,2.9,0.6,4.3c0.7,0.5,1.4,2.3,1.6,2.7c0.2,0.4,0.7,0.8,0.7,1.2c0,0.1-0.9-0.9-1-1c-0.1-0.1-0.8-1.1-1.3-1.5
		c-0.1,0.3-0.1,0.8-0.1,1.4c0.3,0.3,0.6,0.6,0.8,0.9c0.3,0.6,0.6,1.2,1,1.6c0.3,0.3-0.7-0.2-0.9-0.3c-0.1-0.1-0.5-0.4-0.9-0.6
		c0,3.2,0.3,7.8,0.5,9.1c0.3,2.8-0.1,5.5-0.1,5.4c0-0.1-1.4,1.7-2.3,2.8c-1.4,1.6-3,4.2-4.6,6.3c0.7-0.7,1.6-1.6,2.5-2
		c2-0.9,7.1-4.8,10-6.9c0.7,0.5,2.1-1.6,4.1,0.4c0.3,0.3,1.1,2.9,0.9,2.9c-1.5,0-1.7,1.4-0.9,2.2c0.4,0.4,0.8,0.2,1.1-0.2
		c0.3-0.9,0.6-2.1,0.1-2.7c-0.1-0.1,0.1-0.5,0-0.6c-0.5-0.5-0.3-1.5-0.9-2.1c-0.2-0.2-1.1-0.7-1.3-1.2c0,0,0,0-0.1,0
		c-0.2-0.2-0.5-0.1-0.8-0.2c-0.2-0.2-0.6-0.7-0.2-1.7c0.6-1.7,0.8-4.7,0.6-6.4c-0.1-0.6,0-1.9,0.2-3.3c0,0,0,0,0,0
		c0.2-0.9,0.6-1.8,0.9-2.4c0.2-0.5,0-1.5,0.3-1.9c0.2-0.2,0.2-0.6,0.2-1c-1,0.3-2.3,0.6-2.7,0.7c0.1-0.1,0.1-0.1,0.2-0.2
		c0.1-0.1,0.6-0.2,0.8-0.3c0.8-0.4,1.4-0.8,1.9-1c0,0,0-0.1,0.1-0.1c0.7-0.7,0.1-2.7-0.6-4.2c0-0.4,0-0.7,0-1.1
		c0.3-2.1,0.3-4.2,0.2-6.4c-0.1,0-0.2,0-0.4,0c-0.1,0-1.4-0.1-1.7,0c0.1,0,0.3-0.2,0.6-0.3c0.2-0.1,0.9-0.2,1.5-0.2
		c0-0.4,0-0.8,0-1.1c-1.1,0.1-2.6,0.2-2.5,0c0.3-0.3,1.7-0.3,2.1-0.4c0,0,0.2-0.1,0.3-0.1c0-1.3,0-2.6,0.1-3.8
		c0.1-0.1,0.3-0.2,0.4-0.3c0.1-0.2,0.2-0.4,0.2-0.8c0-0.4-0.1-1-0.2-1.5c-0.1-0.5-0.2-1-0.2-1.5c0-0.5,0.1-0.8,0.3-1.1
		c0.2-0.3,0.4-0.5,0.6-0.8c0.1-0.3,0.1-0.6,0.2-0.9c0.2-1-0.4-2.5,0-3.5c0.1-0.2,0.5-0.9,0.5-1c0-0.1-0.1-0.1-0.1-0.1
		c-0.4,0.1-1.6,0.8-2.5,1.3C74.8,34.7,74.2,33.8,73.7,33.9L73.7,33.9z M72.8,64.7c-0.1,0.1-0.2,0.1-0.2,0.1
		C72.7,64.8,72.7,64.8,72.8,64.7L72.8,64.7z"/>
	<path class="st0" d="M37.2,1C36.6,1,36,1.1,35.4,1.3C31.6,2.6,28,4.2,24.3,5.5c-1.4,0.5-3,2-4.1,2.5c-4.5,2.2-8.5,4.6-12.6,7
		c-0.6,0.1-1.1,0.2-1.3,0c-3.4-3.4,3.2-5.3,2.2-7.3C6.9,4.5,1.9,8.5,1.2,9.2c-0.7,0.7-0.6,2.2-0.6,3.5c0,0.2-0.2,1.4,0,1.6
		c0.7,0.7,0.7,2,1.6,2.9c1.5,1.5,4.4,1.4,6.3,0.7c0,0,0,0.1,0.1,0.1c0.8-0.4,1.5-0.7,1.6-0.8c3.6-3,6.8-4.2,11.1-6.3
		c1.1-0.6,5.9-3.6,7-4.1c1.5-0.7,3.8-1.2,6-1.6c0.4-0.4,1-0.7,1.6-0.8C36.2,3.2,36.7,2.1,37.2,1L37.2,1z M43.2,35.1
		c-2.2,2.3-4.5,3.9-6.2,4.3c0,0,0.1,0,0.1,0.1c-1.5,0.4-2.9,0.8-3.6,1.5c-0.1,0.1-0.7-0.1-0.9,0c-3.9,2-9.3,1.4-12,4.1
		c-1.7,1.7,11-1.6,11.1-1.6c1.1,0,3.5-0.5,4.4-1c0.5-0.2,1.7,0,2.2,0c3.5,0,5.5,1.2,8.9,2.9c1,0.5,1.3,1.6,1.9,2.2
		c1.2,1.2,2.6,2.3,3.5,4.1c0.3,0.5-0.1,2.7,0.3,3.2c2.9,2.9-2.5,16.5-4.4,18.4c-2.2,2.2-4.7,4.4-6.7,6.3c-0.9,0.9-2.3,1-3.2,1.9
		c-0.5,0.5-1.8,0.3-2.5,0.6c-2.5,1.3-5,1.2-7.6,2.5c-0.7,0.4-2.1,0.5-3.8,0.5l-3.4-0.7c-1,0.6,0.8-0.5-0.4,0.2
		c-0.3,0.2-0.8,0.7-1.3,0.7c-0.2,0-1.5-0.6-1.7-0.4c-0.2,0.2-0.6,0.2-0.8,0.4l-0.7,0.7c-0.7,0.7,0.2,2.1,1.2,2.1
		c0.4,0,0.5-0.8,0.7-1c0.4-0.4,1.4-0.7,2.1-0.7c0,0-0.1,0.1-0.1,0.2v0.8c0,0.3,0,1.5-0.2,1.7c-0.1,0.2,0,0.5-0.2,0.7
		c0,0.1-0.2,0.2-0.1,0.2c0.3,0,0.3-2.3,1.5-2.3c0.8,0,1.2,0.6,1.9,1c0.3,0.2,0.8,0.2,1.1,0.3c0.2,0.1,0.4,0.1,0.6,0.2
		c0.1,0,0.4,0.3,0.4,0.2c0-0.2-1.4-0.9-1.8-1.7c2.5-0.5,5.3,0,7.9-0.5c4.2-0.8,8.2-1.8,12.1-3.7c0,0.2,0.1,0.3,0.1,0.4
		c0.1,0.1,0.9-0.3,1-0.4c0.9-0.4,3.4-0.4,4.2,0c0,0,0.4,0,0.8,0c-0.3-0.1-0.6-0.2-0.6-0.3c-0.1-0.1-1.5-0.4-1.9-0.8
		c-0.1-0.1-0.2-0.4-0.3-0.7c7.8-7.7,15.1-13.2,12.6-25.6c-0.7-3.3-1.3-7-3.2-9.8c-3.1-4.7-9.4-3.8-11.6-5.6c-0.4-0.1-0.9-0.2-1-0.4
		c0,0-0.1,0-0.1,0c0,0,0,0,0,0c0-0.1,0-0.1,0-0.2C44,38.7,48.2,37.8,43.2,35.1L43.2,35.1z M50,83.5c0.3,0.1,0.7,0.2,0.8,0.1
		C50.9,83.6,50.4,83.5,50,83.5L50,83.5z"/>
	<path class="st0" d="M37.3,2.4c-0.5,0-1.8,0.7-2.3,0.7c-1.8,0-12.7,5.5-13.7,6.5c-0.6,0.6-0.8,2.8-1.1,3.1c-1,1-1.5,3.5-2.2,5.9
		c-0.4,1.1-0.7,2.3-1.2,2.7c-0.2,0.2-0.1,0.6-0.2,0.8c-0.4,0.4-1.2,0.7-1.5,1c-0.1,0.1-1,0.2-1.2,0.3c-0.3,0.1-0.6,0.3-0.7,0.3
		c0.2,0,0.8,0.1,0.8,0.1c0.2,0.1,0.5,0.1,0.7,0.2c0.2,0.2,0.5,0.9,0.8,0.9c2.1,0-0.7-1.2,1.1-1.3c0.7,0.7,2.9,5.3,3.5,7.5
		c0,0,0,0,0,0.1c0,0.2,0.1,0.5,0.1,0.8c0,0.5,0.1,1,0.1,1.4c0.3,5.5-0.6,14.8-0.6,18.1c0,2.2-0.3,9.5,0.3,10.8
		c0.3,0.6-0.1,1.5-0.3,1.9c-1.1,2.2,0.9,12.1-0.5,14.1c0.3,0.4,0.5,0.9,0.8,1.2c0.1,0.1,1.3,4.5,1.9,6.8c2.7,0,5.5,0,7-0.7
		c1.6-0.8,3.5-1.3,4.9-2c0.3-0.2,1.7-0.8,2.4-1.1c-1-0.2-3.4-1-3.5-1c-0.4,0-1-0.1-1.5-0.3c0.1,0,0.1,0,0.2,0
		c-1.9-1.3-3.4-4.5-2.9-7c-0.9-5.2-0.3-13.2-0.3-17.8c0-4.9,0.6-9.9,0.6-15.1c-0.4,0.1-0.8,0.2-0.9,0.1c-0.2-0.2-0.3-2.2-0.5-3.3
		c-0.2-0.4-0.3-0.7-0.3-0.7c-0.4-0.4-0.8-1.1-1-1.6c0-0.1-0.4-0.7-0.3-0.7c0.2,0,0.9,1.1,1.1,1.2c0,0,0.1,0.1,0.1,0.1c0,0,0,0,0,0
		c0.2,0,0.4,0,0.4,0c0.3-0.3-0.2-1-0.2-1.1c0-0.3,0-0.6,0.1-1c0.3,0.3,0.6,0.4,0.8,0.2c0.8-0.8-0.7-4.6-1.1-5c-0.1-0.1,0-0.6,0-0.7
		c0-0.3-0.1-0.7-0.2-1.1c0-0.7,0-1.3,0.1-1.8c0.2,0.2,0.4,0.4,0.5,0.5c0.5,0.3,0.7-0.8,0.9-1.1c0.4-0.8-0.2-2.5-1-4
		c-0.1-3.1-0.4-7.3-0.6-9.2c0,0,0,0,0,0c0.1-0.5,0.2-1,0.5-1.3c0.3-0.3,0.9,0,1.3,0c-0.8,0.5,0.6,2.3,1.8,1.1
		c1.9-1.9,3.1-5.1,4.9-6.9c0.2-0.2,2.2-2.3,2-2.5C37.4,2.5,37.4,2.4,37.3,2.4L37.3,2.4z M36.3,82.5c0.3,0,0.5,0,0.5-0.1
		C36.8,82.4,36.6,82.5,36.3,82.5L36.3,82.5z M13.2,23.9C13.2,23.9,13.2,23.9,13.2,23.9C13.2,23.9,13.2,23.9,13.2,23.9L13.2,23.9z"/>
	<path class="st0" d="M11,64.9c-0.2,0-0.6,0.4-0.7,0.5c-0.6,0.3-1.4,0.5-1.8,0.9c-0.5,0.5-1.1,0.7-1.7,1.2c-0.4,0.4-0.6,0.9-1,1.2
		c-0.1,0.1,0.4,1.3,0.6,1.6c0.2,0.4,0.2,1,0.4,1.5c0.2,0.4,0.3,2,0.6,2.2c0.2,0.2,0.1,0,0.2-0.1c0.1-0.1,0.2,0.2,0.3,0.1
		c0.3-0.3,0.9-0.1,1.3-0.3c0.8-0.4,2.5,0.1,3.4-0.3c0.4-0.2,0.9-0.3,1.5-0.4c0,0,0.1,0.1,0.1,0.1c0,0,0,0,0,0
		c0.1,0.1,0.2,0.1,0.2,0.2c0.2,0.2,0.4,0.4,0.5,0.4c0,0,0,0,0,0c0.5,0.4,0.9,0.8,1.5,1.4c0.8,0.8,2,6.3,2.2,6.5
		c0.8,0.8,0.9,3.4,1.6,4.1c0.4,0.4,0.6,0.9,1,1.3c0.4,0.4,1.2,0.6,1.6,1c0.5,0.5,3-2.5,3.3-2.9c0.2-0.2,0.4-0.7,0.5-0.8
		c0.2-0.1,0.7-0.1,0.8-0.3c0-0.1,0-0.1-0.1-0.1l-4-4.2c-0.8,0-1.5-3.4-2.2-4.1c-2.1-2.1-3.7-3.9-5.5-5.8c-0.3-0.6-0.6-1.2-1.1-1.8
		c-0.5-0.5-1.3-1-1.7-1.8c-0.1-0.2-1.1-1.2-1.4-1.1c0,0,0,0-0.1,0c0,0,0,0-0.1,0.1C11.2,65,11.1,65,11,64.9C11,64.9,11,64.9,11,64.9
		L11,64.9z"/>
	<path class="st1" d="M46.2,30.7c-0.1,0.1-0.3,0.4-0.4,0.5c0,0.1-0.1,0.2-0.2,0.3c0.1-0.1,0.2-0.2,0.3-0.3
		C46,31.1,46.1,30.9,46.2,30.7L46.2,30.7z M45.6,31.5c-0.8,1-1.3,2.3-2.1,3.2c-0.6,0.6-1.1,1.5-0.8,1.9l0.5-0.4
		c-0.1-0.3,0.1-0.6,0.2-0.9c0.1-0.2,0.3-0.7,0.3-0.5c0,0.3,1,0.6,1.4,0.2c0.5-0.5-0.6-1.3-0.2-2.1c0.1-0.2,0.2-0.5,0.2-0.8
		C45.3,32,45.5,31.7,45.6,31.5L45.6,31.5z M40.6,38c-1.2,0.2-2.3,0.6-3.3,1c-1,0.1-2,0.2-3,0.5c-3.8,1.4-7.4,3-11.1,4.3
		c-1.4,0.5-3,2.1-4.1,2.7c-2.2,1.2-4.3,2.3-6.3,3.6c-0.2,0.5-0.3,1.1,0,1.7c0.3,0.5,0.6,0.9,0.9,1.1c2-1.1,4-2.1,6.3-3.3
		c1.1-0.6,5.9-3.8,7-4.3c1.5-0.8,3.8-1.2,6-1.7c0.7-0.7,1.6-1,2.8-1c0.3,0,0.7,0,1.1,0.1c0.3-0.1,0.5-0.1,0.6,0
		c0,0.1,0.1,0.1,0.2,0.2c0.5,0.1,1,0.2,1.5,0.4c1.1,0.1,2.5,0.1,3.3,0.9c1.3,1.4,4.3,2.4,5.8,4c1,1,0.9,3.2,1.6,4.5
		c0.3,0.5,1.2,4.8,1.1,5.6c0-0.1,0-0.2-0.1-0.3c-0.2-0.4-0.6-1.5-0.8-1.8l-0.7-0.7c-0.1-0.1-0.4-0.1-0.5-0.1c0,0,0,0,0,0
		c0,0,0,0,0-0.1c-0.3-0.3-0.6-0.1-0.8-0.3c-0.1-0.1-0.3,0-0.4-0.1c-1.1-0.6-2.2,1.3-2.2,2.3c0,0.6,1,1.8,1.7,2
		c0.2-0.2,0.8-0.1,1-0.2c0.3-0.1,0.7-0.5,0.9-0.5c0.1,0-0.4,0.3-0.7,0.6c-0.1,0.1-0.4,0.3-0.7,0.5c0,0.2,0.1,0.3,0.2,0.4
		c0,0,0,0.2,0,0.3c0.2,0.2,0.3,0.5,0.3,0.8c0.4,0,0.8-0.1,1.1-0.1c0.4,0,0.9-0.2,0.9-0.2c0,0.1-1,0.3-1.2,0.3
		c-0.3,0.1-0.5,0.2-0.8,0.3c0,0.3-0.1,0.7-0.1,1c0,0,0,0,0,0c-0.1,1-0.2,2.1-0.5,3.1c0,0.1,0,0.2,0,0.4c-0.1,0.4-0.3,0.7-0.4,1.1
		c-2.2,6.7-7.9,11.9-11.1,12.7c0,0,0.1,0,0.1,0.1c-1.5,0.4-2.9,0.8-3.6,1.6c-0.1,0.2-0.7-0.1-0.9,0c-3.9,2.1-9.3,1.5-12,4.3
		c-1.7,1.8,11-1.7,11.1-1.7c1.1,0,3.5-0.5,4.4-1c0.5-0.2,1.7,0,2.2,0c2.3,0,3.9,0.5,5.7,1.3c0.4-0.3,0.7-0.4,0.9-0.4
		c0.3,0,2.9-0.8,4-0.9c-0.3-0.1-0.7-0.4-0.8-0.7c-1.3-0.3-2.5-0.7-3.1-1.3c0,0,0,0,0,0c-0.1-0.1-0.2-0.1-0.3-0.2c0,0-0.7,0-0.7,0
		c0-0.2,3.3-2.8,3.8-3.3c0.8-0.9,1.6-1,2.5-1.9c1.4-1.5,3.5-3.5,4.9-5c0,0,2.9-2.4,3.1-2.6c0.6-0.6,1.1-1,1.7-1.4c0,0,0,0,0,0
		c0.2-0.8,1.1-2,1.2-2.1c0.2-0.2,0.3-0.5,0.5-0.8c0-0.1,0-0.3,0-0.4c0-2,0.1-3.8,0.1-5.6c0.2-1.8,0.2-3.7,0.1-5.4
		c0-1.1,0.2-6.2,0-6.4c-0.3-0.4-0.8-0.6-1.1-0.9c-0.1-0.1-0.3-0.2-0.5-0.2c-0.4,0.1-0.8,0.2-0.8,0.3c-0.3,0.3-0.8,0.4-1.1,0.8
		c-0.3,0.3-0.5,0.8-0.9,1.1c-0.4,0.4-0.6,0.7-0.9,1c0,0-0.3,0.6-0.3,0.4c0,0,0.3-0.4,0.3-0.4c0.3-0.3,0.2-0.9,0.4-1.1
		c0.7-0.7,1.7-1.4,2.1-2.5c0,0-0.1-0.1-0.1-0.1c-0.3-0.4-1-0.7-1.8-1.1c0,0.1,0,0.2,0,0.3c-0.3,0.5-1,1.9-1.3,2.2
		c-0.1,0.1-0.1,0.3-0.2,0.5c0,0.1,0,0.1,0,0.2c0,0,0,0.1-0.1,0.2c0,0.1-0.1,0.2-0.1,0.2c-0.1,0,0-0.1,0.1-0.2c0-0.1,0.1-0.2,0.1-0.3
		c0-0.3,0.1-0.8,0.3-1.1c0.1-0.1,0-0.4,0-0.4c0.2-0.3,0.6-1.5,0.4-1.8c0,0,0-0.1,0-0.1c0,0,0,0,0,0c-2.6-1.1-6.3-2.1-7.9-3
		c-0.7-0.4-1.6-0.3-2-0.7C44.4,37.9,41.7,39.4,40.6,38L40.6,38z"/>
	<path class="st2" d="M107.5,37.6c0.8,1.4,3.8,2.4,3.7,3.3c-2.1,1.6-5.2,2.4-6.2,5.2c-0.9,1.3-1.7,2.6-2.5,4
		c-0.2,0.3-0.5,0.6-0.7,0.8c-0.2,0.2-0.4,0.7-0.6,1c-0.1,0.3-0.5,0.6-0.6,0.8c-0.4,0.4-0.8,1.5-1.2,1.9c0,0,0,0.1,0,0.1
		c-0.4,0.2-0.8,0.3-1.2,0.5c-0.4,0.2-0.8,0-1.2,0.2c0,0-0.1,0-0.1,0c0.2,0.1,1.7,0.5,1.9,0.5c0.4,0,0.9,0.2,1.4,0.4c0,0,0,0,0,0
		c0,0,0.1,0.1,0.2,0.1c0.2,0.1,0.3,0.2,0.5,0.2c-0.3,0-0.7-0.1-1.3-0.3c0,0.1,0,0.2-0.1,0.2c0.3,0.3,0.6,0.5,0.9,0.7
		c0,0,0.3,0,0.3,0.1c0,0.1-0.2,0-0.3,0c-0.1,0-0.5,0-1-0.1c-0.1,0.6-0.1,1.3,0,2c0,2-0.1,4.1-0.1,6.1c0,0,0,0,0,0
		c-0.1,0.4-0.1,0.9,0,1.3c0,0.3,0,0.6,0,0.8c0,0,0,0,0,0c0,0.1-0.1,0.3-0.1,0.4c-0.1,0.1,0.1,0.4,0,0.5c-0.3,0.7-0.6,1.3-0.9,1.8
		c-0.1,0.2-0.6,1.3-0.3,1.6c0.1,0.1,0.3,0.4,0.4,0.5c0.1,0.1,0.4,0.1,0.5,0.1c0.2,0,0.3,0,0.5-0.1c0.1,1,0.1,2,0.2,2.9
		c1.3,2.4,3.6,4,5.6,5.8c2.3,2.1,5.1,3.4,7.4,5.5c1.4,1.7,3.1,5.8,5.5,3.1c3.5-2.6,7.4-4.6,10.3-7.9c1.7-0.2,3-2.2,4.5-3.2
		c1-1.5-0.5-3.5,0.5-5.1c0.6-1.8,0-3.8,0.2-5.6c-0.1-5.3-0.1-10.6-0.4-16c1.5,0.5,1.5,1,1.1,2.4c0.1,3,3.8,3.1,4,0.1
		c0.3-2.5-1.8-3.6-3.2-5.1c-2-1.3-3.9-2.5-6.1-3.3c-1.8-0.7-3.8-1-5.2-2.4c-2-0.8-3.9-1.6-6-2.1c-1.7-1-3.4-2-5.4-2.5
		C110.8,38.4,109.1,38.1,107.5,37.6L107.5,37.6z M117,44.6c1.5,0.6,3,1.8,4.5,2.5c1.5,1.3,4.3,1.4,4.7,3.7c0.2,0.5,0.3,0.9,0.4,1.4
		c0,0-0.1,0.1-0.1,0.1c-0.3,0.3,0.4,1.1,0.4,1.6c0,0.5-0.4,0.6-0.7,0.8c-0.3,0.3-0.1,4-0.4,4.7c-0.2,0.3,0,1.5-0.2,1.7
		c-0.6,0.6-0.3,5.2-0.9,6.4c-0.3,0.6,0.1,1.9,0.1,2.6v1.1c0,0.1-0.1,0.3-0.1,0.3c0.2,0.2,0.8,0,1,0.2c0.6,0.6-1,1.3-0.9,1.3
		c0,0,1,0.6,1,0.7c0,0.1-1,0.3-1.1,0.3c-0.2,0.2-0.4,5.4-0.2,5.6c0.3,0.3,0.7,0.4,1.1,0.4c-2.3,1.4-4.5,3.1-7,4.1c0,0,0,0-0.1,0
		c-0.5,0.3-1.1,0.5-1.6,0.7c-0.2,0.1-0.9,0.6-1,0.6c0,0,0.4-0.2,0.6-0.4c0.1-0.1,0.7-0.5,1.1-1c-0.1-0.3-0.1-0.7-0.2-1
		c-0.6,0.1-1.4,0.4-1.4,0.3c0-0.1,0.8-0.7,1.3-1c-0.1-0.7-0.3-1.5-0.6-2.1c-0.2,0.1-0.5,0.2-0.7,0.4c0.1-0.2,0.3-0.4,0.5-0.5
		c0,0,0.1-0.1,0.1-0.1c-0.3-0.5-0.7-1-1.3-1.3c-2.1-1.2-4.3-2.3-6.7-2.7c-2.8,0.3-3.7-2.5-3.2-5c0.4-3.3,0.5-6.6,0.4-10
		c0.1-1.2-0.1-2.5-0.1-3.7c0.1,0.1,0.3,0.1,0.4,0.2c0,0,0.1,0.2,0.2,0.2c0,0,0.7-1.2,0.8-1.3c1.1-1.1,1.3-2.7,2.4-3.8
		c0.2-0.2,0.2-0.5,0.4-0.7c0.3-0.3,1.2-1,1.2-1.3c0-0.3-0.5-1-0.8-1.4c0.1-0.1,0.2-0.3,0.2-0.4c0,0,0,0,0,0c0.4,0,0.6,0,1,0.2
		c0.1,0.1,1.3-1.9,1.6-2.3c0.1-0.1,0.5-0.6,0.8-1.1c0.9-0.4,1.9-0.7,2.8-1.1L117,44.6L117,44.6z M96.3,55.4c-0.1,0-0.1,0-0.2,0.1
		c-0.1,0.1,0.4,0,0.6,0.1C96.6,55.5,96.4,55.4,96.3,55.4L96.3,55.4z M116,80.8c0,0-0.2,0.3-0.2,0.3C115.8,81.1,115.8,81,116,80.8
		L116,80.8z"/>
	<path class="st3" d="M141,33.5c-0.1,0.1-0.1,0.1-0.2,0.2c0.1,0.1,0.1,0.2,0.2,0.2c0.1,0.1,0.4,0.3,0.4,0.6c0,0.1,1,1.7,1.2,1.9
		c0.9,0.9,1.7,3.1,1.8,5c-0.2-0.1-0.3-0.3-0.5-0.4c0,0,0-0.1-0.1-0.1c-1.4-1.4-2.9-3.2-4.4-4.7c-0.3-0.3-0.7-0.5-1-0.8
		c-0.2-0.2-1.3-1-1.3-1c-0.3,0.3,0.7,0.5,0.7,0.9c0,0.2,2.2,3.2,2.1,3.2c-0.1,0.1-0.3-0.1-0.3-0.1c0,0-0.2,0-0.5,0
		c-0.1,0-0.1,0-0.2,0c-0.1,0-0.2,0-0.3,0c-0.1,0-0.3-0.1-0.4-0.1c-0.5,0-0.9,0.1-1.4,0.1c-0.1,0-0.3,0-0.4,0c0.1,0,0.1,0,0.2,0
		c-0.2,0-0.5,0-0.8,0c0,0-0.1,0-0.2,0c0,0,0,0,0,0c0,0,0.1,0,0.1,0c-0.3,0-0.6,0-0.6,0c0,0-0.1,0.1-0.1,0.1c-0.4,0.1-0.8,0.1-1,0.3
		c-0.1,0-0.3,0.1-0.4,0.1c-0.3,0.1-0.7,0.3-0.7,0.3c0,0,0.6-0.2,1.2-0.3c0.5,0,1.7-0.1,2.1-0.2c0.7-0.3,1.7,0.7,2.5,0.2
		c0.1,0,0.1-0.1,0.2-0.2c0.1,0,0.2,0.1,0.4,0.1c0,0.1-0.1,0.1-0.1,0.2c0,0.2,0.4,0,0.6,0c0.1,0,0.4,0.2,0.5,0.1
		c0.6,0.2,1.1,0.5,1.5,0.8c0,0-0.1,0-0.1,0c0,0,0,0,0,0c0,0,0,0,0,0c-0.9,0.5-1.9,1.2-2.7,2c-0.4,0.4-0.3,1.3-0.6,1.6
		c-0.5,0.5,0,2.4,0,2.8c0.1-0.3,0.7-1.4,0.8-1.5c0.3-0.6,1.2-1.1,2.3-1.3c0,2.7,0.2,5.5,0,8.2c-0.3,3.9-0.3,8.1,0.2,11.9
		c0.1,0.9-0.2,11.3,0.2,11.7c0.4,0.5,1,1.3,1.4,2c1.9,3.4,4.6,6.1,6.2,9.7l1.3,2.9c0,0.1,0.4,0.9,0.5,1.1c0.1-0.2,0.9-1,1.1-1.8
		c0.6-2.1,1.9-3.6,3-5.3c1.6-2.4,3.8-4.8,5.2-6.4c0.3-0.3,0.4-0.8,0.5-1.3c1.6,1.9,3.3,3.8,4.8,5.8c0,0,0,0,0,0
		c0.2,0.3,0.4,0.6,0.7,0.9c0,0,0,0,0,0c0.5,0.7,1,1.3,1.4,2c0.5,0.8,0.8,2.1,1.4,2.7c0.2,0.3,0.9,2.4,1.1,2.4c0,0,1.9-4,2.7-5.3
		c1.1-1.7,2.6-3.2,3.6-4.9c0.9-1.5,1.5-3.3,2.2-4.4c0.5,0.2,1.1,0.2,1.6-0.3c0.3-0.3,0.3-1.6,0.1-2c-0.2-0.4,0.1-0.9-0.1-1.3
		c-0.4-0.8,0.2-1.9-0.2-2.7c-0.2-0.5,0.2-2.1-0.1-2.5c-0.4-0.4-0.2-3-0.5-4.1c0-0.3,0-0.7,0-1c0,0,0-0.1,0-0.1
		c-0.1-1.7-0.2-3.4-0.5-5c-0.2-1.1,0.1-2.2-0.2-3.3c-0.2-0.7-0.3-9.9-0.2-10.5c0-0.1,0.1-0.3,0.1-0.5c1.4-1.2,3.3-2.5,4.3-3.1
		c0.2-0.1,1.3-0.5,1.3-0.6c0-0.2-1.6,0.5-2.8,0.5c-1.3,0-11.2,1-11.4,1.3c-0.1,0-0.1,0-0.2,0c-0.1,0.1,0.6,4.2,0.6,4.8
		c0,1.5,0.7,5.3,1.3,6.6c0.5,1.1,0.4,3.3,0.8,4.6c0,0.1,0,0.4,0,0.7c-0.3,0.8-0.7,1.4-1.2,2c0,0,0.4,0.4,0.4,0.4
		c0.3,0.3,0.3,1.3,0.6,1.8c0.2,0.4-0.1,1.4,0.2,1.7c0.2,0.2,0,2.2,0.3,2.5c0.3,0.3-0.3,3.8,0,4.5c0.1,0.3,0.7,0.1,0.9,0.4
		c0.1,0.2-0.3,0.4-0.1,0.6c-0.2,0-0.3,0-0.3,0c0,0-0.6,0.2-0.4,0.3c0.2,0.2,2.2,1.2,2.2,1.3c0,0.2-1.9,0-2.1,0.4
		c0,0.1,0.2,1.3,0.3,1.5c0.2,0.2,0.6,0.2,1.1,0.3c-0.1,0.3-0.1,1.3-0.2,1.6c-0.1,0.3-0.2,0.7-0.3,1.1c-0.4,0.3-0.8,0.5-1.2,0.7
		c-0.9,0.3-2.1,0.4-2.7,1c-0.1,0.1-1.5-0.9-1.8-1c-1.7-1-3.7-1.6-5.3-2.5c0,0,0,0,0,0c0,0,0,0-0.1-0.1c-0.2-1.3-0.5-4-0.7-6.1
		c0.1-0.6,0.2-1.3,0.3-1.9c-0.1,0-0.3,0-0.4,0c0,0-0.7-0.1-0.9-0.1c0,0-0.1,0-0.1,0c0,0,0,0,0.1,0c0,0,0.1-0.1,0.1-0.1
		c0.3-0.1,0.6-0.1,0.9-0.2c0.1-0.1,0.3,0,0.4,0c0-0.1,0-0.2,0.1-0.4c0.1-0.5,0.1-1.1,0.1-1.7c-0.1-0.2-0.1-0.3-0.1-0.5
		c-0.3,0.1-0.7,0.2-0.9,0.2c-0.1,0-0.3,0-0.4,0c-0.1,0.1-0.2,0.2-0.2,0.1c0-0.1,0.1-0.1,0.2-0.1c0,0,0.1-0.1,0.1-0.1
		c0.2-0.2,0.8-0.4,1.2-0.4c-0.1-0.9,0.1-2.1,0.3-3.3c0,0-0.1,0-0.1,0c0,0,0.1-0.1,0.2-0.1c0-0.3,0.1-0.6,0.1-0.9
		c-0.5,0.1-1.1,0-1.5,0c0,0-0.1,0-0.1,0c0,0,0.1,0,0.1-0.1c0.2-0.1,0.5-0.1,0.7-0.2c0.1-0.1,0.5-0.1,0.8-0.2c0-0.3,0.1-0.6,0.1-0.9
		c-0.4,0-0.9,0.1-1.2,0.2c-0.3,0.1-0.7,0.2-0.7,0.2c0.1-0.1,0.3-0.1,0.7-0.2c0,0,0.1,0,0.1-0.1c0.4-0.2,0.9-0.3,1.2-0.5
		c0.1-0.2,0.2-0.4,0.1-0.7c-0.7-1.4,0.6-3.8-0.2-5.2c-0.3-0.7-0.8-5.2-0.8-6.2c0-0.9-0.7-4-0.6-4.1c0.3-0.3,3.2-2.2,4.6-3.2
		c0.1-0.3,0.2-0.5,0.2-0.6c-0.1-0.1-0.1-0.1-0.2-0.1c-0.3,0-0.7,0.3-0.9,0.3c-1.9,0-3.9,0.2-5.9,0.2c-0.2,0-1.3-0.2-1.4,0
		c0,0,0,0.2,0,0.3c-2.2-0.5-3.4,0-3.7,0.6c-0.2,0.4,0.6,5.3,0.8,5.9c0.2,0.8-0.2,1.9,0,2.8c0.2,0.7,0,1.9,0.3,2.6
		c0.8,1.9-0.5,5.5,0,7.9c0.3,1.6-0.1,2.9,0.3,4.4c0,0.1,0,0.1,0,0.2c0.1,1.2,0.2,2.9,0.2,3.4v0.9c0,0.1-0.2,0.1-0.1,0.2
		c0.2,0.2,0.7,0.3,1,0.5c0,0.2,0.1,0.3,0.1,0.5c-0.3,0.3-0.9,0.7-0.9,0.8c0.2,0.2,0.6,0.2,1,0.3c0,0.1,0,0.2,0,0.3
		c-0.4,0.1-1.1,0.3-1.1,0.5c0,0.3,0.3,2.8,0.2,2.9c-0.1,0.1-0.3,1.5-0.3,1.6c0,0.3,0.6,0,0.9,0c0.1,0,0.3,0,0.5,0
		c-0.2,0.2-0.5,0.4-0.6,0.6c-1.3,1.6-3.1,2.6-4.8,3.9c-0.2,0.1-0.9,0.8-0.9,0.8c-0.7-0.8-1.5-1.4-2.5-1.9c-0.3-0.2-0.5-0.7-0.8-0.9
		c-1.3-0.8-2.4-2.1-3.6-3.1c-0.1-0.1-0.1-0.2-0.1-0.3c0.1,0,0.2-0.1,0.4-0.1c0.7,0,2.7-0.4,2.9-0.5c0.4-0.4-0.2-1.7,0.1-2.2
		c0.2-0.4-0.2-1,0-1.3c0.1-0.1,0.1-0.7,0-0.7c-0.2,0-1.1-0.2-1.2-0.3c0,0,1.4-0.7,1.2-0.7c-0.1,0-0.1-2.4,0.1-2.7
		c0.2-0.2-0.3-1.3-0.3-1.3c-0.3-0.3,0.5-0.9,0.6-1c0.1-0.1-0.2-1.4,0.1-1.8c0.1-0.1-0.1-1.3-0.1-1.7c0-2.2-0.3-4.3-0.3-6.3
		c0-0.1,0-0.7,0-1.2c0,0,0,0,0,0c-0.2-0.4,0.1-1.2,0.1-1.5c0-0.4-0.1-1.3,0.1-1.5c0.1-0.1,0.2-0.1,0.3-0.1c0.3,0.7,0.7,1.3,1,1.5
		c0.1,0.1,1,1,1.5,0.6c0.3-0.3,0.6-0.4,0.8-0.7c0.2-0.2,0.3-0.8,0.4-1c0.1-0.1,0-0.6,0-0.7c0-1.9-0.2-4.3-1.3-5.5c0,0,0,0,0,0
		c0,0,0,0,0,0c-0.6-0.9-1.5-1.7-1.9-2.5c0-0.1-0.1-0.1-0.1-0.2c0,0.1-0.1,0.2,0,0.3c0.9,0.9,2.3,4.4,1.6,5.9c-0.5,0.9,0,1.1-1.1,1.1
		c-0.1,0-0.3,0.2-0.4,0c-0.7-0.7-1-1.7-1.4-2.6c0,0,0,0,0,0c0.2-0.2,0.2-1.6,0-2c-0.4-0.8,0.2-1.6-0.2-2.5c-0.8-1.7-1.5-4-2.9-5.4
		c-0.6-0.6-1.4-1.5-2.2-1.9C141.4,33.6,141.2,33.5,141,33.5L141,33.5z M135.9,38.4c0.2,0,0.3,0,0.5,0c-0.1,0-0.2,0-0.2,0
		C136.1,38.4,136,38.4,135.9,38.4L135.9,38.4z M161.6,59.9C161.6,59.9,161.6,59.9,161.6,59.9C161.6,59.9,161.6,60,161.6,59.9
		C161.6,59.9,161.6,59.9,161.6,59.9L161.6,59.9z M151.1,91C151.1,91.1,151.1,91.1,151.1,91C151.1,91.1,151.1,91.1,151.1,91
		C151.1,91.1,151.1,91,151.1,91L151.1,91z"/>
	<path class="st4" d="M199,37.7c-3.5,1-11.6,11.3-14.1,18.6c-0.3,0.9-2,4.7-0.7,5.6c1.1,0.8,2.2,2.6,3.5,3.5c1,0.8,2.4,0.9,3.9,0.8
		c-0.1-0.8-0.2-1.8,0-1.8c0.1,0,0.4,0.9,0.7,1.7c0.2,0,0.4-0.1,0.6-0.1c-0.2-0.5-0.3-0.9-0.1-1.1c0.1-0.1,0.4,0.4,0.7,1
		c1.5-0.3,3-0.8,4.5-1.2c0-0.7-0.1-1.3,0.2-1.3c0.2,0,0.2,0.8,0.3,1.2c0.2-0.1,0.4-0.1,0.6-0.2c0.1-0.3,0.2-1.3,0.2-1.3
		c0.1,0,0,0.2,0,0.2c0.1,0.2,0.2,0.6,0.2,1c2.2-0.6,4.2-1,5.2-0.2c0.9,0.7,1.5,2.6,2,3.2c2,3-2.6,16.3-4,18.2
		c-0.4,0.6-2.9,4.8-3.5,5.7c0.4-0.2,1.3-0.1,1.7-0.4c1.9-1.3,3.9-3.4,5.3-5.3c3.6-4.7,5.9-10.3,7.8-16.2c0.5-1.6,0.2-3.5,0.8-5.2
		c0.3-0.9-0.4-3-0.5-3.9c-1.4-10.5-14.6-0.9-17.5-3.1c-4.1-3.1-1.7-10.2-0.4-14C196.9,41.1,197.4,40.5,199,37.7L199,37.7z
		 M199.1,91.2c-0.2,0.1-0.3,0.2-0.2,0.4C198.9,91.6,199.1,91.3,199.1,91.2L199.1,91.2z"/>
	<path class="st4" d="M189.4,76.1c0,0-0.1,0-0.1,0c-1.3,0.6-2.3,2.2-3.6,2.9c-0.5,0.2,1.4,0.1,1.8,0.2c0.6,0.2,3.5,1.8,3.8,2.4
		c0.3,0.6,1.2,1.1,1.5,1.6l1.2,2.5c0.3,0.7,1.2,2.6,1.4,3.7c0.1,0.4,0,0.9,0.2,1.2c0,0.1,0.1,0.1,0.1,0.1c-0.6,1.2-1.3,3.1,1.3,2.7
		c3.1-0.4,4.4-3.1,5.9-5.1c0.2-0.2-0.2-0.5-0.2-0.5c-0.1-0.1-0.1-0.1-0.2-0.2c0.6-0.2,1.3-0.6,1.1-1c-0.6-1.2-2.3-2.5-3.3-3.5
		c-1-1-8.1-7.6-9.8-6.7C190.2,76.4,189.7,76.1,189.4,76.1L189.4,76.1z"/>
	<path class="st4" d="M189.1,75.3c-0.1,0-0.2,0-0.2,0.1c-0.7,1-3.4,2-5.2,3c0,0,0,0-0.1,0c-1.5,0.7-3.2,2.2-3.3,4.5
		c0,0.5,0.6,0.9,0.6,1.1c0.4,0.9,1.1,1.4,2,1.5c3.4,0.2,4-5,1.8-6.5c0.7-0.2,1.3-0.3,1.6-0.1c0,0,0.5,0.5,0.7,0.3
		c0.5-0.6,4.5-1.4,4.7-1.7c0.1-0.2-1.8-1.9-2.1-2C189.8,75.5,189.4,75.3,189.1,75.3L189.1,75.3z"/>
	<path class="st4" d="M199,38.1c-0.9-0.1-3.4,3.6-3.8,4.4l-0.3,2.3c-0.8,0.4-1.4,0.2-2.1,0.2c-0.1,0,1.1,0.9,1.3,1
		c0.3,0.3,0.8,0.6,1.3,0.8c0.1-0.3,0.2-0.6,0.5-0.9c0.1-0.1,0.1-0.7,0.3-0.7c0.1,0-0.6,1-0.5,1.7c0.3,0.1,0.5,0.2,0.8,0.4
		c0.4-0.4,0.7-1,1.1-1c0.1,0-0.3,0.8-0.3,1.3c0.5,0.2,0.9,0.4,1.3,0.5c0,0,0,0,0,0c0,0,0,0,0.1,0.1c0.4,0.4,1.4,0.2,1.8,0.5
		c0.1,0.1,0.4,0.1,0.7,0.1c0-0.2,0.1-0.4,0.1-0.5c0.2-0.3,0.3-0.7,0.3-1c0,0,0-0.1,0-0.1c0-0.1,0-0.1,0.1-0.1c0,0,0,0.1-0.1,0.1
		c0,0.2,0.1,0.5,0.1,0.6c-0.1,0.2-0.2,0.6-0.2,1c0.1,0,0.1,0.1,0.2,0.1c0.1,0.1,0.5,0,0.6,0.2c0.1,0.1,0.2,0.2,0.4,0.2
		c0.2-0.8,0.5-1.8,0.8-1.8c0.2,0-0.1,1-0.3,1.9c0.9,0,2.4-0.2,3.7-0.4c0.9,0.2,1.9,0.1,2.7,0.5c0.2,0.1,0.6-0.1,0.9,0
		c0.1,0.1,0.4,0.1,0.6,0.2c0,0,0,0,0,0c1.3,0.7,2.5,1.4,3.4,2.4c0.1,0.1,1,1.4,1.1,1.3c0.6-0.3,0.2-1.8,0.2-2.4
		c0-0.5,0.1-1.1-0.2-1.4c-0.1-0.1-0.3-0.3-0.6-0.4c0-0.2,0-0.4,0.1-0.6c0.1-0.3,0.6-2,0.6-2c-0.1-0.1-0.3-0.1-0.4-0.2
		c-0.6-0.6-1.5-0.9-2.4-1.3c-0.6-0.3-1.8-0.1-2.2-0.5c-0.1-0.1-0.4-0.1-0.7-0.1c-0.5-0.2-0.9-0.3-1.1-0.3c-0.4,0-2.3-0.5-2.6-0.8
		c-0.2-0.2-1.4-0.3-1.5-0.4c-0.1-0.1-0.1-0.2-0.2-0.4c-1.6-0.8-3.2-1.7-4.5-2.9c-0.4-0.4-0.5-1.2-0.9-1.6
		C199.1,38.1,199,38.1,199,38.1L199,38.1z"/>
	<path class="st4" d="M212,47.3c0,0.3-0.3,0.8-0.1,0.8C212.2,48.1,211.9,47,212,47.3c0.2,0.8,0.1,1.3,0.2,1.8
		c0.1,0.3,0.7,0.5,0.7,0.8c0.1,0.2,0.6,0.3,0.8,0.4c0.3,0.5,1.6,1.3,1.8,1.9c0,0.1,0.1,0.4,0.2,0.3c0.2-0.4,0.7-4.3,0.7-5.1
		c0.1-1.4,1.8-5.5,1.6-6.2c-0.1-0.3-0.4-0.6-0.6-1c-0.9-1.3-4.9-1.6-4.4,0.5c0.2,0.8,0,2,0.7,3c0.5,0.8,2.2,0.3,2,0.1
		c-0.2-0.1-0.2,0.4-0.1,0.5c0.1,0.2-0.6,1-0.7,1.2c-0.5,0.8-0.8,1.8-0.9,1.9c-0.2,0.1-0.6,0.5-0.4,0.6C214,48.4,212.5,47.5,212,47.3
		L212,47.3z"/>
	<path class="st5" d="M235.7,39.2c-0.2,0-1.2,1-1.6,1.4c-1.7,1.7-3.6,3.1-5.3,4.8c-1,0.3-2.1,0.6-2.6,1.1c-0.5,0.5-0.9,1-1.4,1.5
		c-0.3,0.3-0.7,2.3-0.9,2.5c-0.3,0.3-0.7,1-1,1.4c-0.2,0.2-0.5,0.5-0.7,0.7c-0.1,0-0.1,0.1-0.2,0.1c-0.7,0.2-1.5,0.7-2.2,0.7
		c-0.1,0-1.3,0.1-1.3,0.1c0,0,0.5,0.1,0.6,0.1c0.2,0.1,1.2,0,1.9,0.2c-0.8,0.8-1.6,1.6-2.4,2.3c-0.1,0.1-0.2,0.3-0.3,0.6
		c-0.3,0.1-0.6,0.3-0.7,0.3c0,0-1.9,0.6-2,0.6c0,0-0.1,0-0.1,0c-0.2,0.1-0.4,0.2-0.7,0.3c-0.1,0-0.2,0-0.2,0.1c0,0.1,1,0.1,1.1,0.1
		c0.4,0,0.8,0,1.2,0.2c0,0,0.5,0,1-0.1c-0.1,0.3-0.1,0.7,0,0.9c0.2,0.3,0.4,0.4,0.6,0.4c0,0.1-0.1,0.1-0.1,0.2c0,0,0,0,0,0.1
		c0.1,0,0.5,0,0.5,0h0.4c0,0,0.1,0,0.1,0c0,0-0.1,0-0.2,0.1c-0.2,0.2-0.5,0.4-0.8,0.7c0.3,1.6-0.1,3.3,0.2,4.9
		c0.7,3.3,1.1,8.6,0,11.8c-0.1,0.4-0.1,1.8-0.4,2.1c0,0-0.5,0.6-0.4,0.7c0.3-0.3,1.7-1,2-0.9c-0.2,0.2-0.4,0.4-0.3,0.7
		c0,0,0,0.1,0,0.2c0.3,0.3,0.4,0.5,0.8,0.7c0.2,0.1,1.4,0.3,1.5,0.4c0.3,0.3,0.7,0.4,1,0.7c0.1,0.1,0.2,0.3,0.2,0.3
		c0.2,0.2,0.6,0.3,0.8,0.6c0.1,0.3,0.4,0.6,0.6,1c0.3,0.5,0.5,2,0.8,2.4c0.5,0.5,0.9,1.1,1.2,1.5c0.2,0.2,0.6,0.3,0.8,0.4
		c0.2,0.2,1,0.1,1.6,0.1c0.3,0.3,0.9,0.5,1.2,0.8c0.3,0.2,0.6,0.5,1,0.7c0.4,0.3,0.9,1.4,1.1,1.8c0,0.1,1,1.3,1.1,1.3
		c0.3,0.1,0.5,0.3,0.7,0.5c0.2,0.2,0.9,0.8,1.3,0.6c0.1-0.1,0.4-0.1,0.5-0.2c0.3-0.3,0.6-0.7,0.8-1.1c0.5-0.4,1.3-0.9,1.8-1.3
		c1.8-1.2,3.3-2.8,4.9-4.1c1.5-1.1,3.2-1.9,4.7-3c1.3-0.9,2.7-2.6,3.9-3.2c0.1,0,0.2-0.1,0.3-0.1c0.1,0.1,0.2,0.2,0.3,0.3
		c0.4,1,0.6,3,0.6,3.9c0,0.2,0,0.6-0.1,0.7c-0.1,0.1,0,0.5-0.1,0.6c-0.1,0.1,0,0.4-0.1,0.4c-0.1,0.1,0,1.1-0.1,1.2
		c-0.1,0.1-0.8-1.5-1.7-0.6c-0.7,0.7-0.7,2.2,0,2.9c0.2,0.2,0.4,0.1,0.7,0.1c0.8,0,1.2-0.9,1.5-1.2c0.1-0.1,0-0.5,0.1-0.6
		c0.1-0.1-0.1-0.6,0-0.7c0.2-0.2,0.2-0.9,0.2-1.2c0-0.4,0.1-1.9,0.3-2.2c0.1-0.1,0.1-0.2,0-0.4c0,0,0,0,0,0c0,0,0.2-0.8,0.2-1
		c0-0.9,0.1-1.9,0.1-2.8c0.3-0.6,0.1-4,0.1-4.3c0-1.3,0.7-4.1,0.2-4.6c-1.1-1.1-11.2,0.1-13.8,0.2c0,0,0.1,0.1,0.2,0.2h1.3
		c0.1,0,0.3,0,0.5,0.1c0,0,0,0,0,0c0.8,0.6,3.3,1.6,3.7,2.1c0.7,0.7,1.2,1.4,1.8,2c0.1,0.1,0.1,0.1,0.1,0.2c0,0,0,0,0,0
		c-0.8,0.1-1.8,0.4-2,0.5c-0.8,0.4-2.1,0.6-3.2,1.1c-0.7,0.3-1.4,1.2-2.1,1.8c0.5,1.3,1.6,3.1,1.6,3.1c0,0-0.6-0.6-1.1-1.1
		c-0.3-0.3-0.7-1.1-1-1.2c-0.1,0-0.2-0.1-0.4-0.1c-0.2,0.1-0.5,0.3-0.9,0.6c0.1,0.1,0.1,0.2,0.1,0.2c0.4,0.8,1.1,1.4,1.6,2.2
		c0.8,1.6,1,2-0.2,0.1c-0.2-0.3-0.3-0.6-0.7-0.9c-0.3-0.3-0.5-0.6-0.8-0.9c-0.2-0.2-0.3-0.3-0.5-0.5c-0.9,0.7-1.8,1.5-2.1,2.1
		c-0.3,0.5-0.7,1.2-1,1.6c-0.6,0.6-1,1.1-1.4,1.8c-0.1,0.1-0.1,0.3-0.1,0.5c-0.1,0.1-0.1,0.1-0.2,0.2c-0.2-0.2-0.4-0.3-0.6-0.4
		c0-0.1,0-0.1,0-0.2c0.2-0.4-0.1-1.2-0.3-1.5c0,0-0.2-0.1-0.2-0.2c-0.2-0.5-1-0.6-1.3-0.9c0,0,0.3-0.4,0.3-0.4
		c0-0.1,0.1-0.2,0.1-0.2c-0.1,0-0.5-0.2-0.5-0.2c-0.1,0-0.2,0-0.2,0c-0.2-0.1-0.3-0.3-0.5-0.4c-0.3-0.2-0.6-0.3-1-0.4
		c-0.9-0.5-2.1-1.1-2.8-1.8c-0.1-0.1-0.4-0.1-0.5-0.2c-0.1-0.1-0.4-0.2-0.7-0.3c-0.8-0.6-1.4-1.2-1.9-1.7c0-0.1,0.1-0.2,0.1-0.3
		c0.4-0.8,1.1-1.2,1.4-1.9c0.2-0.3-0.7-1.1-1-1.7c-0.1-0.2,0-0.7,0-1c0-0.5,0.2-4.3,0.4-5c-0.2,0-0.5-0.4-0.7-0.5
		c-0.3-0.3-0.6-0.4-1-0.7c-0.2-0.2-0.2-0.6-0.4-0.9c-1-2-1-4.7,0.2-5.7c0-0.1,0.1-0.2,0.1-0.2c0.3-0.6,1-0.8,1.4-1.2
		c0.1-0.1,0.3-0.1,0.4-0.2c0.2-0.2,0.8-0.1,0.8-0.1c-0.6,0-1.2-0.8-1.2-1.5c0-0.6,0.2-1,0.6-1.4c0.3,0,0.6,0.1,0.7,0.2
		c0,0,0.4,0.4,0.5,0.3c0.1-0.1,0-0.4,0.2-0.6c0.3-0.3,0.6-1,1-1.3l4-4c0.4-0.4,3.1-0.6,3.2-0.8c0.4-0.4-0.6-2.2,0.1-2.8
		c0.7-0.7,2.2-1.4,3.2-2.4c0,0,0,0,0.1-0.1c0.4,0.3,0.8,0.6,0.9,0.7c1.9,1.9,6.3,3.1,8.4,5.3c0.4,0.4,1.3,0.3,1.8,0.7
		c0.2,0.2-0.8,1.7-1.1,2.1c-0.1,0.1-0.1,2-0.1,3.6c0,0-0.1,0-0.1,0c-0.1,0.5-0.2,1.1-0.1,1.3c0.2,0.5,0.2,1.1,0.2,1.7
		c-0.1-0.2-0.2-0.4-0.2-0.6c0-0.6-0.2-1.8-0.5-2.4c-0.3,0-0.5,0-0.7,0c-0.2-0.1-0.6-0.1-1.1-0.1c-0.1,0.2,0,2.3-0.2,3.5
		c0,0.2,0,0.5,0,0.6c0,0-0.2,0.4-0.1,0.1c0.1-0.1,0.1-0.4,0.2-0.7c0-0.3-0.2-0.7-0.2-0.9c0-0.8-0.3-1.9-0.6-2.6
		c-1.7-0.1-3.8-0.1-4.1,0.1c-0.8,0.4-1.2,1.1-1.9,1.4c-0.3,0.1-1.3-0.2-1.7-0.2c-1,0-4.5,0.6-5.7,1.2c-1-0.1-2,0.5-2.8,0.7
		c-0.6-0.2-1.2-0.4-1.7-0.4c-0.3,0-0.5,0.1-0.8,0.2c-0.4,0-0.8,0.1-1,0.3c-0.1,0.1-0.4,0.3-0.5,0.4c0,0-0.1,0.1-0.1,0.2l0,0
		c-0.4,0.3-0.7,0.7-0.8,1.1c-0.2,0.5-0.2,1-0.2,1.6c0,1,0.8,1.6,1.3,2.4c0.5,0.7,1,1.3,1.7,1.7c0.5,0.3,1.7-0.1,2.1-0.3
		c0.5-0.2,1-0.4,1.6-0.7c0.7-0.4,0.9-1.1,1.1-1.8c0.2-0.4,0.4-1.2,0.4-1.2c0.1-0.1,0.2-0.3,0.4-0.4c0.7-0.1,1.3-0.1,1.5-0.1
		c-0.3,0.8-0.7,1.7-0.6,1.7c0.1,0.1,1-0.6,1.1-0.7c0.3-0.3,1.6-0.6,2.2-0.9c0.1,0,0.2,0,0.3-0.1c0.2-0.1,0.5-0.1,0.7-0.1
		c0.1,0,0.3,0,0.4,0c0,0,0,0,0,0c0.4,0.1,0.8,0.2,1.2,0.3c0.3,0.2,0.7,0.3,1.1,0.6c2-0.2,4-0.4,5.6-0.4c2.3,0,4.4-0.5,6.7-0.5h3
		c0.2,0,0.5,0.4,0.5,0.2v-6c-0.2-0.2-0.3-0.3-0.4-0.4c-0.2-0.1-0.2-0.1-0.2-0.4c0-0.6,0.3-1,0.6-1.4v-0.1v-0.1c0,0,0.1-0.1,0.1-0.1
		c0.1-0.1,0.4-0.1,0.5-0.2c0.1-0.1-0.3-0.4-0.3-0.4c0-0.1-0.2-0.3-0.2-0.4c0,0-0.4-1.8-0.3-1.8c0.3-0.5,0.3-2,0.7-2.4
		c0.2-0.2,0.3-0.7,0.4-0.8c0.3-0.3,0.5-0.6,0.7-0.8c0,0,0.2-0.1,0.2-0.2c0-0.1-0.9,0.5-1,0.5c-0.5,0.2-0.9,0.6-1.3,1c0,0,0,0,0,0
		c-0.2,0.1-0.3,0.2-0.4,0.3c0,0-0.5,0.7-0.5,0.6c0,0,0.2-1.1,0-1.3c-0.7-0.7-1.6-0.6-2.7-0.6c-0.1,0,0.1-0.5,0.2-1.2
		c-0.2-0.1-0.3-0.2-0.5-0.2c-2.4-1.2-4.8-2.5-7.4-3.2c-1.6-0.4-3.3-1.8-4.6-2.6C238.2,40,236.6,40.1,235.7,39.2
		C235.7,39.2,235.7,39.2,235.7,39.2L235.7,39.2z M232.3,83.3C232.3,83.3,232.3,83.3,232.3,83.3C232.3,83.3,232.3,83.3,232.3,83.3
		L232.3,83.3z M248,60.2c0,0.1,0.1,0.1,0.1,0.2c0,0,0,0.1,0,0.1c0.1,0.1,0.1,0.2,0,0.2c0,0,0-0.1,0-0.2
		C248.1,60.4,248,60.3,248,60.2L248,60.2z M227.6,61.4c1.4-0.1,2.1,2.8,1.3,3.5c-0.2,0.2-1.3,1.2-1.7,1c-0.3-0.1-0.6-0.2-0.9-0.4
		c-0.6-0.6-1.5-1.7-1-2.8c0.5-1,1.1-1.2,1.6-1.2C227.2,61.5,227.4,61.4,227.6,61.4L227.6,61.4z"/>
	<path class="st0" d="M274.4,33.6c0,0-2.8,0.9-3.2,1.3c-1.9,1.9-9.1,4.4-13.6,5.2c0,0,0,0,0,0c-0.3-0.3-1.2,0.2-1.7,0
		c-0.3-0.1-0.5,0-0.7-0.2c-0.8-0.4-1.8-0.6-2.4-1.2c-0.2-0.2-0.6-0.1-0.8-0.3c-0.3-0.3-0.1-0.9-0.4-1.2c-0.3-0.3-0.7-0.6-1-0.9
		c-0.2-0.2-0.7-0.4-0.9-0.1c-0.3,0.7,0.8,1.4,1.2,1.8c0.5,0.5,1.1,0.9,1.8,1.2c0.4,0.2,0.8,0.5,1,0.7c0.1,0.1,0.1,0.1,0.2,0.1
		c0,0,0,0,0,0c0.6,0.7,8.2,1.1,8.5,1.5c0.1,0.1,0,1.1,0,1.3c0,0.9-0.6,6.3-0.9,7c-1.1,2.2,0.8,22.2,1.3,24.7c0.4,1.9,0.4,4,0.1,6
		c0,0,0,0,0,0c-0.1,0.1-0.1,0.2-0.2,0.4c-0.4,1.3-1.9,3.3-3.2,3.9c-0.7,0.3-1.2,1-1.4,1.2c0.4-0.1,2.1-0.2,2.4-0.2
		c0.1,0,0.2,0,0.3,0c-0.3,0.4-0.6,0.7-0.9,1.1c-0.7,0.7-1.3,1.5-1.8,2.2c-0.2,0.2-0.4,0.4-0.5,0.5c-0.3,0.3-0.3,0.6-0.5,0.8
		c0,0,0,0.2,0,0.2c0,0,0,0,0,0c-0.2,0.4-0.4,0.7-0.4,0.7c0.1-0.1,0.1-0.2,0.2-0.3c-0.2,0.5-0.3,1-0.5,1.4c-0.2,0.3-0.1,0.8-0.2,1.1
		c-0.3,0.8-0.2,1.8-0.2,2.7c0,0.2,0.1,0.6,0.2,0.7c0,0,0,0,0,0c-0.1-0.3,0.1-2.1,0.1-2.4c0-0.4,0.5-1.9,0.8-2.2
		c0.2-0.2,0.1-0.8,0.3-1c0.2-0.2,0.2-0.6,0.5-0.9c0.7-0.7,1.3-1.8,2.7-2c1-0.9,2.5-1.8,4-2.6c0.6,0,1.3,0,1.9,0c1.2,0,2.7-0.2,3.9,0
		c0.7,0.1,1.5,0.2,2.2,0.2c0.2,0,3.3,0.2,4.3,0.3c-0.2-0.1-0.5-0.2-0.5-0.2c-0.8-0.4-1.8-0.7-2.7-0.9c-1-0.2-2.7-0.7-4.2-1.2
		c0.5,0,0.9,0,1-0.1c0.1-0.1-1.2-0.2-1.6-0.2c-0.4-0.2-0.8-0.3-1.1-0.5c-0.1-0.1-0.4-0.2-0.5-0.3c0.2-0.1,0.3-0.3,0.4-0.4
		c2.2-2.2,1.7-11.5,5.1-14.9c0.7-0.7-0.8-2.7-1-2.9c0,0-0.1-0.2-0.1-0.4c-0.9-0.8-3.5-2.7-3.5-2.8c0-0.1,0.5,0.3,0.9,0.6
		c0.9,0.4,1.9,0.9,2.5,1.5c0,0,0.1,0,0.1,0c0-0.3,0.1-0.7,0.1-0.8c0-1.3,0-2.8,0-4.4c-0.6,0-1.3,0.1-1.7,0.1c-0.6,0-1.1,0.1-1.1,0.1
		c0-0.2,0.7-0.2,0.8-0.2c0.5-0.3,1.4-0.6,2-0.7c0-0.2,0-0.5,0-0.7c0,0,0,0,0,0c-0.4-0.2-0.6-0.3-1.1-0.3c-0.6,0,0.4-0.3,1.2-0.5
		c0.1-1.8,0.4-3.6,0.8-5c0.3-0.9-0.2-2.2,0-3.2c0.7-3,0-6.2,0.6-9.2c0.2-1.2,0.6-2.6,0.6-3.8C274.1,34.6,274.7,33.9,274.4,33.6
		L274.4,33.6z M277,86.4c0.2,0.1,0.4,0.1,0.4,0.1C277.3,86.4,277.2,86.4,277,86.4L277,86.4z M257.9,85.9
		C257.9,85.9,257.9,86,257.9,85.9C257.9,86,257.9,86,257.9,85.9L257.9,85.9z M256.1,97C256.1,97,256.1,97,256.1,97
		C256.2,97,256.2,97,256.1,97L256.1,97z"/>
	<path class="st0" d="M282.6,36.8c-4.7,0.1-9.5,1.4-11.2,4.1c0,0.1,0,0.2,0,0.3l1.4,0.3c-0.5-0.1-1.1,0-1.4-0.2
		c-0.1,1.9-0.3,4.4-0.1,4.6c0.4,0.4,0.7-0.3,1-0.3c0.8,0,2.3-0.7,3.2-1c1.5-0.5,7.3-0.4,8.5,0.6c0.3-0.5,0.6-1,1-1.2
		c0.2-0.1,0.5-0.3,0.7-0.4c0.1-0.1,0.1-0.1,0.2-0.1c0.1,0,0,0.1-0.1,0.1c0,0-0.1,0-0.1,0c-0.4,0.3-1.2,1.4-1.1,1.6
		c0,0,0.7-0.2,0.9-0.2c0.1,0,0.1,0,0.2,0c0.2,0,0.3-0.1,0.4,0c0,0,0,0,0,0c0.1,0,0.2,0,0.3,0c0.3,0,0.6,0,0.8,0.2c0,0,0,0,0,0
		c0.1,0,0.1,0,0.2,0c0.1,0,0.3,0,0.4,0.1c0.2,0,0.3,0,0.4,0.1c0.1,0.1,0.2,0.1,0.2,0.2c0,0,0,0.1-0.1,0.1c0,0,0.2,0.3,0.1,0.3
		c-0.1,0-0.3-0.1-0.3-0.2c-0.3-0.3-1.8,0.2-1.9,0.3c0,0-0.1,0.1-0.1,0.1c0.1,0.1,0.1,0.4,0.2,0.5c0,0,0,0,0,0
		c-0.4,0.1-0.7,0.3-0.8,0.6c-0.1,0.2-0.2,1.3,0,1.5c0,0,1.3,0.3,1.4,0.3c0,0.1-0.1,0.2-0.1,0.3c0,0-0.3,0.6-0.2,0.7
		c0.3,0.3,0.4,0.6,0.7,0.9c0.4,0.4,1.7,0.4,2.4,0.4c0,0,0,0,0,0c0,0.4-2,0.2-2.1,0.2c-0.1,0-0.9-0.2-0.9-0.1
		c0.3,0.5,0.7,0.8,1.2,1.1c0.4,0,0.9,0,1,0.1c0.4,0.4,1.1,0.3,1.9,0.3c3.4,0,4.7-2.1,6-4.8c0.6-1.2-0.3-3-0.6-3.8
		c-1-2-1.7-3.6-3.2-5.1C291.1,37.6,286.9,36.7,282.6,36.8L282.6,36.8z M271.3,41.3C271.3,41.3,271.4,41.2,271.3,41.3l-0.1-0.1
		C271.2,41.2,271.3,41.3,271.3,41.3L271.3,41.3z M271.2,41.2c0-0.1,0.1-0.2,0.2-0.3c0-1.2-0.1-2.1-0.5-1.7c-0.2,0.2,0.3,0.3,0.3,0.6
		C271.2,40.3,270.9,40.9,271.2,41.2L271.2,41.2z"/>
	<path class="st0" d="M311.4,31.6c-1.2,0.6-2.4,1.3-2.7,1.8c-0.7,1-2.7,1.9-3.2,3.3c-2.9,8.4-4.9,13.9-12.6,19.1
		c-1.2,0.8-3,0.2-4.2,0.8c1.1,0.1,5.3,0.6,6.1-0.3c0.5-0.7,2.9-2.2,4.8-3.4c-0.2,1-0.1,2.1,0.8,2.9c0.1,0.1,0.4-0.1,0.5,0
		c0.1,0.1,0.2,0.2,0.4,0.2c-0.2,0.9-0.3,1.6-0.4,1.9c-2.4,7.3,2.8,1.6,1.7,4.7c-0.3,0.8,0.2,1.9-0.1,2.7c-1.2,3.7-0.2,7.7-0.1,11.8
		c-0.6,0.8-0.8,7.1-1.4,7.8c-0.2,0.3-0.7,0.7-1,1c-0.5,0.7-1.5,1.4-2.5,1.9c-0.7,0.3-5.2,5.9-6.1,7.1c-0.2,0.3-1.3,1.6-1.1,1.7
		c0.2,0.2,2.1-2,2.6-2.4c0.9-0.8,2.6-1.7,4.1-2.7c0.5-0.1,0.9-0.4,1-0.5c0.1-0.2,0.6-0.1,0.8-0.3c0.3-0.4,1.1-0.5,1.3-0.8
		c0.4-0.6,0.9-1.2,1.1-2.1c0.1-0.1,0.3-0.1,0.4-0.2c0.4-0.6,1.3-1.4,1.4-1.6c0.2-0.3,1.1-0.4,1.3-0.7c0.4-0.5,1.6-0.8,2.1-1.4
		c0,0,1.1-0.4,2.5-0.8c0.4,0.1,0.9-0.1,1.4-0.4c0.3-0.1,0.7-0.2,1-0.3c0.3,0,0.6,0.1,0.8,0.1c0.2,0,2.6,0.4,2.6,0.5
		c0,0.1-0.5-0.5-0.5-0.6c-0.4-0.6-1.1-1.3-1.5-2c-0.3-0.4-0.7-0.9-1-1.3c-0.1-0.2-0.2-0.5-0.2-0.7c0.1-0.8,0.2-1.6,0.3-2.9
		c0-0.2,0-0.4,0.1-0.7c-1.4,0-3.8,0-3.8-0.2c0-0.1,0.2,0,0.3,0c0.4,0,2.2-0.1,3.5-0.2c0.1-1.4,0.1-2.3,0.1-3.2c-1.6,0-4.1,0-4.1-0.3
		c0-0.1,2.4-0.1,4.1-0.1c0-0.4,0-0.8,0-1.3c-1.2,0-2.6,0-3,0c-1.1,0,1.3-0.5,3-0.9c0-0.3,0-0.5,0.1-0.9c0.1-0.8-0.2-1.7-0.1-2.5
		c0.1-1.7,0.6-3.4,0.7-5.1c0.2-2.4,0-4.8,0.1-7.3c0.2,0,0.4,0,0.7,0c0.2,0,0.5,0.2,0.6,0.1c0.3-0.4,0.8-0.8,1.1-1.3
		c0,0,0-3.7-0.2-3.8c-0.5-0.4-1.4-2.9-1-4c0.3-0.8,0.6-6.2,0.5-7.3c-0.1-0.6,0-2.3-0.5-2.7c-0.1,0-0.1-0.1-0.2-0.1c0,0,0,0,0,0
		c0-0.3,0-0.5,0-0.8c0,0,0,0,0,0c-0.1-0.1-0.2-0.2-0.3-0.3c-0.6-0.5-1-1-1.9-1.3C311.6,31.6,311.5,31.6,311.4,31.6L311.4,31.6z"/>
	<path class="st6" d="M311.6,29.4c-4.4-0.1-7-5.1-4.7-11.8c0.2-0.7,2.3-3.1,2.3-3c0.1,0.1-1.7,3.8-0.9,3.7c0.1,0,1.2-3.2,1.9-4.1
		c0.6-0.7,4.3-7.5,3.7-7.9c-0.2-0.2-0.2,3.9-0.2,3.9c0.5-0.3,2.9-5.5,2.7-6.7c-0.1-0.5,0-1.8,0.2-2.1c0-0.1-0.2-0.9-0.1-0.9
		c0.2,0,0.2,3.5,0.2,3.6c0.4,2.7,0.2,6.8-1.4,7.9c-0.7,0.5-1.5,2.5-1.5,2c-0.1-0.5,1,0,1.3-0.4c0.2-0.2,1.9-2.1,2-2.1
		c0.2,0-0.2,0.5-0.1,0.7c0.2,1.6-4,6-3.8,7.1c0,0.2,3.4-1.8,3.4-1.8c0.1,0.9-1.1,2.7-1.6,3.4c-0.3,0.4-0.7,1.7-0.7,1.2
		c0-0.1,1.3-0.1,1.3-0.2c0.1-0.1,1.4-1.3,1.7-1.1c0.6,0.5,0,3.1-0.4,3.7c-0.2,0.3-0.9,0.3-1.1,0.6c-0.1,0.1-0.2,0.4-0.2,0.3
		c-0.1-0.5,3.9-0.9,2.6,0.8C316.9,27.7,313.9,28.6,311.6,29.4L311.6,29.4z"/>
	<path class="st7" d="M310.1,27.9c-0.2,0-0.7,0.1-0.6-0.1C309.5,27.6,310.3,28.1,310.1,27.9c-0.1-0.1-0.8-0.1-1-0.3
		c-0.3-0.2-0.5-0.6-0.8-0.9c-0.2-0.1,0.1-0.8-0.1-0.9c-0.6-1.1-2-4.2-0.9-5.3c0.2-0.3,0-1.4,0.2-1.4c0.1,0,0.6,1.4,0.7,1.5
		c0,0,0.5,0,0.5,0c0.2-0.2,0.2-1,0.4-1.3c0.8-0.9,1.2-2.4,2-3.3c1-1.1,1-2.4,1.7-3.3c0.1-0.1-0.1-0.3,0-0.3c0.1,0-0.4,1.3-0.4,1.3
		c-0.3,0.8-1.2,3.1-1.2,3.6c0,0.2-0.2,0.5-0.1,0.5c0.3,0.3,1.6-1.8,2-1.9c0,0-0.7,1.2-0.7,1.3c-0.2,0.4-1.9,4.7-1.4,5.2
		c0.1,0.1,2.3-2.1,2.3-1.9c0,0.4-1.6,3.8-1.2,4.2c0.2,0.1,3-1.8,3.2-1.6c0.2,0.2-1.9,2.1-1.6,2.3c0.4,0.3,1.3-0.2,1.8,0.2
		c1,0.9-2.9,2.5-3.7,2.6C311.4,28.2,310.4,28,310.1,27.9L310.1,27.9z"/>
	<path class="st0" d="M345.8,1.9c-1.4,0-2.9,0.4-4.8,1c0,0,0,0,0,0c-2.8,0.3-5.9,1.1-7.9,2.4c-0.8,0.1-2.2,1-3.3,1.9
		c0,0,0,0-0.1,0.1c-0.3,0.2-0.6,0.5-1.1,0.8c-0.3,0.2-0.3,0.5-0.6,0.7c-2.7,1.8-3.6,5.1-4.4,8c-0.1,0.5,0.1,1.2-0.1,1.7
		c-0.2,0.6-0.2,1.7,0,2.4c0.2,0.5,0.4,1.1,0.6,1.6c0.2,0.7,0.4,1.3,0.7,1.9c0,0.1,0.6,0.7,0.4,0.7c-0.1,0,0.4-0.1,0.6,0
		c0.1,0.1,0.3,0.1,0.4,0c0.3-0.3,0-0.9-0.1-1.2c-0.2-0.3-0.9,0.1-1,0c-0.1-0.1-1.5-4.7-0.9-5.3c0.3-0.3-0.1-1.2,0.2-1.5
		c0.5-0.5,0.7-3.1,1.3-3.7c0.7-0.7,1-1.5,1.7-2.1c0.4-0.4,0.8-0.7,1.1-0.9c0.1,0.3,0.1,0.7,0.4,0.9c0.7,0.7,2.5,0,3.6-0.6
		c0.1,0,0.1,0,0.2,0c-0.2,0.3-0.3,0.6-0.6,0.8c-0.2,0.2-0.3,1.2-0.6,1.5c-0.1,0.1-0.3,1.7-0.7,2c0,0-0.1,0.4-0.2,0.8
		c0.3,0.3,1,0.9,1.4,1.1c0.2,0,0.4,0,0.4,0.1c0,0.1-0.2,0-0.4-0.1c-0.2,0-0.3,0-0.4,0c-0.2-0.1-1.2-0.4-1.3-0.2l0,0
		c-0.1,0.2-0.2,1-0.4,1.6c0.4,0.4,1,0.8,1.2,0.9c0.1,0,0.3,0.2,0.5,0.3c0.2,0.1,0.4,0.1,0.4,0.2c0,0-0.2-0.1-0.4-0.2
		c-0.6-0.1-1.6-0.3-2.2-0.9c0,0,0,0,0,0c-0.3-0.1-0.6-0.3-1.1-0.5c-0.3,1.3-0.4,2.7-0.2,4c0.6,3.1-0.5,6.5,0.4,9.4
		c0.5,1.5,0.7,3.2,1.1,4.7c0.6,2.6,1.9,5,2.7,7.4c0.5,1.4,0.6,3.6,0.5,5.5c-0.7,0.7-1.4,1.5-1.8,2.4c0,0.1-0.1,0.2-0.1,0.3
		c-2.4,0-4.8-0.1-7.2-0.3l-0.6,0.8c-0.1,0-0.1,0-0.2,0c-0.4,0.4-0.4,2.6,0,3c0.4,0.4,3-0.2,3.6-0.2c1.4,0,3.1,0,4.6-0.2
		c0.4,1,0.9,1.7,1.6,2.3c0.1,0.9,0,1.8-0.3,2.6c-0.8,2.3-0.4,4.9-1.1,7.2c-0.6,1.8-1.4,3.5-2,5.4c-0.6,1.8-1.2,4.2-2.2,5.8
		c-1.2,1.9-2.8,3.8-3.8,5.8c-0.7,1.4-2.3,2.5-3.1,3.8c-1.4,2-2.2,3.6-3.8,5.2c-0.9,0.9-3.5,4.3-4,5.4c-0.4,0.7-1.1,1.4-1.1,2.2
		c0.6-0.6,2.3-1.8,2.7-2.4c1.8-2.6,3.9-3.9,6.1-6.1c0.7-0.7,2.2-1,2.9-1.8c1.5-1.5,3.4-3.4,5.8-4.3c1.4-0.5,2.9-0.7,4.3-1.3
		c0.7-0.4,3.8-0.2,4.3-0.7c0.2-0.2-0.6-0.9-1.5-1.9c-0.4,0-0.7,0.1-1,0.2c-0.5,0.3-2,0.7-2,0.7c-0.3-0.3,1.5-1,2.5-1.5
		c-0.6-0.7-1.1-1.4-1.3-2c-0.9,0.3-2.1,1-2.1,1.1c-0.2,0.2-0.6,0.4-0.9,0.6c-0.1,0.2-0.3,0.4-0.5,0.4c-0.1,0,0.1-0.1,0.1-0.1
		c0.1-0.1,0.2-0.2,0.4-0.3c0.1-0.1,0.2-0.3,0.2-0.3c0.6-0.6,1.4-0.9,2-1.5l0.7-0.7c0,0,0,0,0,0c0-0.2,0.1-0.4,0.3-0.5
		c0.7-0.7,0.1-3.1,0.9-3.8c0.8-0.8,0.8-2.4,1.6-3.1c2.1-2.1,2.7-5.4,4.3-8.5c0.4-0.9,0-2.3,0.4-3.1c0.3-0.6,0.2-1.3,0.2-1.9
		c0.4-0.2,1-0.4,1.3-0.7c0.8-0.8,1.2-1.8,1.2-2.9c2.4-0.2,5.6,0.2,7.3,0.2c0.4,0,1.2-0.1,2.1-0.2c0,1.2,0.2,2.3,0.4,3
		c0.2,0.7,0.3,1.6,0.3,2.4c0,0.4,0.2,0.8,0.2,1c0-0.2,0.2-1.2,0.2-1.3c0-1.1,0.3-2.5,0.3-3.7c0-0.5,0-1,0-1.5c0,0,0,0,0,0
		c-0.1-0.1-0.1-0.2-0.2-0.3c-0.2-0.3-0.6-0.5-0.9-0.7c0.3,0,0.6-0.1,0.6-0.1c0.1-0.1,0.4-0.1,0.7-0.1c0.1,0,0.3-0.1,0.3-0.1
		c0.2,0.2,0.3,1.1,0.4,1.2c0.2,0.2,1.6-0.5,1.9-0.7c0.6-0.3,2.9-0.2,3.1-0.4c0.2-0.2-0.5-0.1-0.6-0.1c-0.3-0.3-1-0.2-1.5-0.4
		c-0.4-0.2-2.3-1-2.5-1c-0.4,0-0.9,0.7-1,0.9c0,0-0.6-0.1-1.1-0.2c0.1-0.1,0.3-0.3,0.4-0.3c0.1-0.1,0.3-0.3,0.4-0.4c0,0-0.1,0-0.1,0
		c0-1.9-0.1-3.9-1-5.3c-0.2,0.5-0.5,2.9-0.6,5.4c-3.3,0-6.7,0.2-10.1,0.4c-0.4-0.8-1-1.7-1.7-2.3c-0.7-3.4-1.9-6.8-2.7-8.3
		c-0.5-0.9-0.4-2.2-0.9-3.1c-2.5-5-6.4-10.3-3.4-16.4c0.4-0.8,0.3-2.3,0.9-2.9c1.3-1.3,2.2-3,4.3-4c1.4-0.7,2.8-2.2,4.3-2.2
		c0.9,0,2.6-0.7,3.6-0.2c2.1,1,4.1,2.1,5.4,3.4c0.5,0.5,0.6,1.8,0.9,2.5c0.7,1.5-0.4,6.3,0.4,8.1c0.1,0.2,0.2,0.5,0.2,0.8
		c-0.1,0-0.2,0-0.4,0c0.4,0.3,0.8,0.6,1,0.8c0,0,0.1,0,0.2,0c0,0-0.1,0.1-0.1,0.1c-0.3,0.1-0.5,0.2-0.6,0.3
		c-0.5-0.5-0.9-0.7-1.3-0.7c-0.7,0-1.3,0.5-1.9,1.1c-0.8,0.8-1.3,3-1.3,4.4c0,0.4,0,2.8-0.1,2.9c-0.2,0.2-0.3,2.3-0.6,2.6
		c-0.2,0.2-0.7,1.4-0.7,1.5c0,0.1,0.5-0.8,1.2-1.1c0.5-0.2,0.9-0.6,1.4-1.1c0.4-0.3,0.7-0.7,0.7-0.7c1.3-1.3,3.4-2.7,4.7-4
		c0.8-0.8,0.7-1.9,1.2-2.9c0.1-0.2-0.1-0.6,0-0.8c0.6-1.2-0.2-1.7-1.1-1.7c0.9-1.8,1.1-4.3,1.4-6.2c0.1-0.3,0-4.1-0.9-6.7
		c-1-2.9-1.1-6.8-4-8.7C350.3,2.7,348.2,1.9,345.8,1.9L345.8,1.9z M354.4,60c0,0,0,0.1,0,0.1C354.5,60.1,354.5,60,354.4,60L354.4,60
		z M311.3,100.1c-0.1,0.1-0.2,0.3-0.2,0.3C311.1,100.6,311.3,100.3,311.3,100.1C311.3,100.2,311.3,100.1,311.3,100.1L311.3,100.1z
		 M337.3,48.6C337.4,48.6,337.4,48.6,337.3,48.6c0.3,0.3,1.6,1,2,1.2c0.5,0.2,1.2,0.9,1.4,1.2c0,0,0,0.2,0,0.2v2.2
		c0,0.2,0.3,1.2,0.1,1.3c-0.4,0.4-1.6,1.2-2.3,1.5c-0.2,0.1-1.9,1.2-2.1,1c-0.4-0.4-0.9-0.9-1.5-1.6c-0.3-0.3-1.2-1.2-1.4-1.3
		c-0.1-0.1,0-3.2,0.1-3.6c0.7-0.9,1.7-1,2.3-1.5C336,49.2,337,48.7,337.3,48.6L337.3,48.6z"/>
	<path class="st0" d="M323.5,47c-1.8,0.7-2.8,2.4-3.2,4.4c-0.3,0-0.6,0.1-1,0.2c-0.1,0.6-0.2,1,0,1.3c0,0,0.4,0,0.8,0
		c0,0.4,0,0.7,0,1.1c-0.3,0-0.7,0.1-1,0.3c0,0.5,0.1,1.2,0.3,1.2c0,0,0.5-0.1,0.8-0.3c0.2,1.1,0.6,2.2,1.2,2.9
		c0.3,0.4,1.3,1.8,1.9,1.4c-0.6-1-1.2-1.8-1.7-3c-0.1-0.3-0.2-0.9-0.2-1.7c0.3-0.1,0.7-0.2,0.7-0.2c0.3-0.2,2.1,0.3,2.1-0.2
		c0-0.3,0.1-1,0.1-1.2c0-0.2-0.3,0.2-0.4,0.2c-0.2,0-1.1-0.2-1.2,0c-0.2,0.3-0.8,0.5-1.3,0.5c0-0.4,0-0.9,0.1-1.3
		c0.8-0.1,1.6-0.3,1.9-0.3c0.2,0,0.9,0.2,1,0c0.2-0.3-0.2,0-0.1-0.4c0.1-0.2,0.2-0.3,0.2-0.6c0-0.2-0.2,0.2-0.3,0.2h-1.7
		c-0.3,0-0.6-0.1-0.8-0.1c0.1-0.6,0.2-1.1,0.4-1.3c0.1-0.2,0-0.5,0.1-0.7C322.9,48.6,323.1,47.8,323.5,47L323.5,47z"/>
	<path class="st0" d="M334.5,52.7c0.1-0.4,0.9-2.3,1.1-2.3c0.2,0,0.6,0,0.9,0c0.5-0.1,0.9-0.3,1.4-0.2c0,0,1.7,2.4,1.7,2.4
		c0,0-0.5,1-0.6,1.2c-0.2,0.5-0.3,1-0.4,1.5c0,0.1-0.7-0.1-0.8-0.1c-0.7-0.1-1.3,0.3-1.9,0.2C335.9,55.3,334.9,53.3,334.5,52.7
		L334.5,52.7z"/>
	<path class="st0" d="M364.7,17.7c0,0,0,0.1,0,0.3C364.7,17.8,364.7,17.7,364.7,17.7L364.7,17.7z M364.7,18c0,0.2-0.1,0.6-0.2,1
		c0.1-0.1,0.1-0.3,0.2-0.4C364.7,18.6,364.7,18.3,364.7,18L364.7,18z M364.5,19c-0.3,0.7-0.4,1.9-0.4,2.5c0,1.2-2.2,8.6-3,9.5
		c0,0,0-0.3,0-0.3c-0.2,0-0.1,0.2-0.1,0.4c-0.5,0.5-1.1,1.3-1.5,2c-0.9,0.8-1.8,1.6-2.8,2.6c-0.2,0.2-0.7,0.2-1,0.5
		c-0.2,0.2,1,3.2,1.1,3.3c0,0,0,0,0,0c1.3-0.6,3.1-1.8,3.1-1.8c0.1,0.1-0.7,0.9-0.8,1c-0.5,0.5-0.7,1.6-1.1,2.1
		c-0.1,0.1,0,0.8,0,1.6c1.2,2.9,3,6.4,4.5,9c1.1,0.2,2.3,0.4,2.6,0.3c-0.2,0.1-0.5,0.4-0.6,0.4c-0.1,0.1-0.7,0-0.8,0.2
		c-0.1,0.1-0.3,0.2-0.5,0.4c0.9,1.5,1.5,2.6,1.7,2.7c3.5,1.8-3.5,6.3-1.7,7.2c1.5,0.8,10.1,2.5,10.6,4c0.4,1.3-13.5,19-15.4,22.8
		c-0.8,1.6-8.3,13.9-7.9,15.1c0,0.1,2.3-3.1,2.9-3.6c3.1-3,5.8-4.4,8.9-7.5c1.8-1.8,4.6-3.2,6-3.8c-1.3,0.7-2.5,2-2.9,2.8
		c-1,1.9-3.5,3.4-5.1,4.9c-4.7,4.5-7.6,10.8-10.3,15.9c-0.3,0.6-3.3,5.8-1.1,7c5.7,3,10.2-0.3,13-7.4c-0.9,1.7-2.5,2-3.1,3
		c-1,1.9-7.6,2.7-7.2,0.3c1.4-8.8,17.5-23.6,26.4-32.2c0.9-0.9,6.2-4.1,6.5-4.7c0.1-0.2,0-0.6,0-0.9c-1.2,0.8-3.7,2.1-4.9,2.5
		c-1.2,0.4-12,6.3-12.1,5.8c-0.2-0.7,0.9-1.2,1.4-1.8c3.7-3.6,6.9-11,11.7-15.6c6.2-6,11.3-18.6,15.9-26.8c-0.8-0.2-1.7-0.3-1.5-0.5
		c0.1-0.1,1.1-0.2,2-0.4c0.2-0.4,0.5-0.8,0.7-1.1c-0.3,0-0.6,0-0.7,0h-1c0.3-0.1,0.9-0.2,0.9-0.2c0.2,0,0.6,0,1-0.1
		c0.4-0.6,0.8-1.2,1.2-1.8c-0.8-0.6-1.9,0.2-3,0.2c0,0-0.1,0-0.1,0c-0.1,0-0.1,0.1-0.1,0c0-0.1,0.1,0,0.1,0c0.3-0.1,0.9-0.5,1.5-0.5
		c0.4,0,1.3-0.2,2.1-0.4c0,0,0.1-0.1,0.1-0.1c1.2-0.6,3.4-1.7,3.5-1.8c0.4-0.4,1.7-2.6,1.9-3c0.2-0.5,0.8-0.9,1.1-1.3
		c0.6-0.9,1.2-1.7,1.7-2.6c0.4-0.7,1.2-3.6,1.5-3.9c0.1-0.1,0.8-1.8,0.7-1.9c-0.3-0.3-4.9-0.8-5.6-0.4c-0.3,0.2-2.1,0.8-2.4,0.8
		c-0.1,0-1.2,0.6-1.2,0.7c0,0.1,0.5-0.2,0.6-0.2c0.2-0.2,0.8,0,1-0.2c0.4-0.4,3.4-0.2,3.7,0.1c0.1,0.1,0.3,0.1,0.4,0.2
		c0.4,0.4-0.2,1.4-0.7,2c-0.6,0-1.3,0.1-1.7,0.2c-4.8,1.5-11.3,1.3-13.5,5.6c-2.8,5.3-2.2,14.8-3.7,17.8c-1.1,2.2-3.6,0.9-4.4,0.3
		c0.1,0.9-1.2,4.6-1.3,4.8c-0.7,1.3-3,8.3-3.3,8.4c-1.2,0.4-8.8-13.6-11-15.8c-0.8-0.8-0.2-5.1-1.1-5.6c-1.5-0.8,0.6-7.5-0.9-7
		c-0.7,0.2-1.9,0.5-3.1,0.8c-0.1-0.3-0.2-0.6-0.3-0.8c-0.1-0.1-0.2-1-0.3-1.8c0.2-0.3,0.3-0.6,0.4-0.7c0.1-0.1,0.2-0.1,0.3-0.2
		c0,0.1,0,0.1,0.1,0.2c0.1,0.1,0.3,0.2,0.5,0.3c0.7,0.7,2.9-0.8,3-1c0.4-0.4-0.7-1.8-0.8-1.9c-0.1-0.1,0.1-0.5,0-0.6
		c-0.9-0.9-0.5-3.1-0.5-4.7c0-1.4,0.2-2.5,0.2-3.7C364.4,19.7,364.4,19.4,364.5,19L364.5,19z M382.5,49.6c0-0.2-0.1-0.3-0.2-0.2
		C382.2,49.4,382.3,49.5,382.5,49.6L382.5,49.6z M384.3,78.3c0.6-0.4,0.9-0.7,0.2-0.5C384.4,77.9,384.3,78.1,384.3,78.3L384.3,78.3z
		 M361.7,112.9c0.4-0.8-2.7,0.6-2.2,1.4C359.9,115,360.9,113.4,361.7,112.9L361.7,112.9z M395.7,40.3c0,0,0.1,0,0.2,0
		C395.8,40.4,395.7,40.4,395.7,40.3C395.7,40.3,395.7,40.3,395.7,40.3L395.7,40.3z M365.1,51.8C365.2,51.8,365.2,51.8,365.1,51.8
		C365.2,51.8,365.1,51.8,365.1,51.8C365.1,51.8,365.1,51.8,365.1,51.8L365.1,51.8z"/>
</g>
</svg>
