<?xml version="1.0" encoding="utf-8"?>
<!-- Generator: Adobe Illustrator 19.1.0, SVG Export Plug-In . SVG Version: 6.00 Build 0)  -->
<svg version="1.1" id="Layer_1" xmlns="http://www.w3.org/2000/svg" xmlns:xlink="http://www.w3.org/1999/xlink" x="0px" y="0px"
	 width="1280px" height="720px" viewBox="0 0 1280 720" style="enable-background:new 0 0 1280 720;" xml:space="preserve">
<style type="text/css">
	.st0{fill:#FF1AE9;}
	.st1{fill:#00659B;}
	.st2{fill:#8CBC1A;}
	.st3{fill:#F98700;}
	.st4{fill:#CC0000;}
	.st5{fill:#323133;}
	.st6{fill:#F7AA0A;}
	.st7{fill:none;stroke:#323133;stroke-width:4;stroke-miterlimit:10;}
	.st8{opacity:0.62;}
	.st9{fill:url(#SVGID_1_);}
	.st10{fill:url(#SVGID_2_);}
	.st11{fill:#BE0006;}
	.st12{fill:url(#SVGID_3_);}
	.st13{font-family:'Roboto-Black';}
	.st14{font-size:120px;}
	.st15{fill:#0098CE;}
	.st16{fill:#FDC400;}
	.st17{fill:#F5F4F5;}
	.st18{fill:#645E64;}
	.st19{font-size:57px;}
	.st20{fill:#F7AA0A;stroke:#FFFFFF;stroke-opacity:0;}
	.st21{fill:#F7AA0A;stroke:#FFFFFF;stroke-width:1.0262;stroke-opacity:0;}
	.st22{fill:#F7AA0A;stroke:#FFFFFF;stroke-width:0.9083;stroke-opacity:0;}
	.st23{fill:#F7AA0A;stroke:#FFFFFF;stroke-width:1.0762;stroke-opacity:0;}
	.st24{fill:#F7AA0A;stroke:#FFFFFF;stroke-width:1.1129;stroke-opacity:0;}
	.st25{fill:#F7AA0A;stroke:#FFFFFF;stroke-width:1.1103;stroke-opacity:0;}
	.st26{fill:#5A8CE6;stroke:#FFFFFF;stroke-opacity:0;}
	.st27{fill:#C8DCEB;stroke:#FFFFFF;stroke-opacity:0;}
	.st28{font-family:'Roboto-Light';}
	.st29{font-size:35.0403px;}
	.st30{fill:url(#SVGID_4_);}
	.st31{fill:url(#SVGID_5_);}
	.st32{fill:#FFFFFF;stroke:#000000;stroke-miterlimit:10;}
	.st33{fill:#FFFFFF;stroke:#F7AA0A;stroke-miterlimit:10;}
</style>
<text transform="matrix(1 0 0 1 112.4152 336.0173)" class="st5 st13 st14">Modular JavaScript</text>
<text transform="matrix(1 0 0 1 112.4152 232.0173)" class="st5 st13 st19">Writing</text>
<g>
	<path class="st20" d="M853.3,454.1c-1.3,0-2.4,0.2-3.4,0.7c-2.1,1-4.9,0.5-7,1.6c-2,1-3,2.4-4.7,3.5c0.2-0.6,0.4-1.1,0.6-1.7
		c-0.2,0.3-0.4,0.5-0.7,0.8c-0.2,0.2-0.3,0.6-0.4,1.1s0,1,0,1.5c0,0.5,0.1,1.1,0,1.5c0,0.3-0.1,0.5-0.2,0.8c3.5-1.7,8.2-3.5,9.7-2
		c1.3,1.3,1.8,2.8,3.2,4.1c0.2,0.2,0.7,0.3,1.1,0.4c0.3,0,0.5,0,0.7-0.1c0.1-0.1,0.4,0,0.5-0.1c0.3-0.3,0.4-0.5,0.7-0.9
		c0.2-0.2,0.5-0.9,0.5-1.3c0-0.4-0.3-1.2-0.6-1.4c-0.1-0.1-0.7-0.5-0.7-0.6c0-0.5,1.6,0.7,1.7,0.7c0.1,0.1,0,0.4,0.1,0.5
		c0.2,0.2,0,0.4,0.1,0.6c0.4,0.7-0.3,1.9-0.6,2.3c-0.4,0.4,0.5,0.2,0.7,0c0.2-0.2,0.3-0.5,0.5-0.6c0,0,0-0.2,0-0.2
		c0.1,0,0.1,1.2,0,1.3c-0.4,0.4-0.8,0.8-1.5,1c1.6,1.2,4,2.2,5.2,3.4c0.3,0.3,2.3-0.1,2.5-0.3c1.5-1.5,2.6-4.2,4.4-6
		c0.6-0.6-0.5-3.3-0.6-3.5c-0.7-0.7-0.6-2.5-1.6-3.5C861.7,455.8,857.1,454.1,853.3,454.1L853.3,454.1z"/>
	<path class="st20" d="M839.6,451.2c-0.1,0-0.2,0.1-0.2,0.1c0,0-0.2,0-0.2,0c-0.2,0.2-0.7,0.3-1,0.6c-0.8,0.8-1.5,1.6-2.3,2.5
		c-3.9,1.4-7.5,2.6-11.9,3.1c0.3,0,0.7,0.1,1,0.1c-0.7,0.1-1.8,0-2.2,0.2c-0.1,0.1-0.6,0.2-0.7,0.2c0.2,0,0.8,0,0.9,0
		c0.6,0,1.1,0.2,1.7,0.2c0.8,0,1.7,0,2.6,0c1.5,0.5,2.8,1.2,3.8,2c0.6,0.5-0.1,3.6-0.2,4.2c-0.6,2.6,1.6,10.1,0.2,11.8
		c-0.6,0.7,0.3,2.9,0.6,4.3c0.7,0.5,1.4,2.3,1.6,2.7c0.2,0.4,0.7,0.8,0.7,1.2c0,0.1-0.9-0.9-1-1c-0.1-0.1-0.8-1.1-1.3-1.5
		c-0.1,0.3-0.1,0.8-0.1,1.4c0.3,0.3,0.6,0.6,0.8,0.9c0.3,0.6,0.6,1.2,1,1.6c0.3,0.3-0.7-0.2-0.9-0.3c-0.1-0.1-0.5-0.4-0.9-0.6
		c0,3.2,0.3,7.8,0.5,9.1c0.3,2.8-0.1,5.5-0.1,5.4c0-0.1-1.4,1.7-2.3,2.8c-1.4,1.6-3,4.2-4.6,6.3c0.7-0.7,1.6-1.6,2.5-2
		c2-0.9,7.1-4.8,10-6.9c0.7,0.5,2.1-1.6,4.1,0.4c0.3,0.3,1.1,2.9,0.9,2.9c-1.5,0-1.7,1.4-0.9,2.2c0.4,0.4,0.8,0.2,1.1-0.2
		c0.3-0.9,0.6-2.1,0.1-2.7c-0.1-0.1,0.1-0.5,0-0.6c-0.5-0.5-0.3-1.5-0.9-2.1c-0.2-0.2-1.1-0.7-1.3-1.2c0,0,0,0-0.1,0
		c-0.2-0.2-0.5-0.1-0.8-0.2c-0.2-0.2-0.6-0.7-0.2-1.7c0.6-1.7,0.8-4.7,0.6-6.4c-0.1-0.6,0-1.9,0.2-3.3c0,0,0,0,0,0
		c0.2-0.9,0.6-1.8,0.9-2.4c0.2-0.5,0-1.5,0.3-1.9c0.2-0.2,0.2-0.6,0.2-1c-1,0.3-2.3,0.6-2.7,0.7c0.1-0.1,0.1-0.1,0.2-0.2
		c0.1-0.1,0.6-0.2,0.8-0.3c0.8-0.4,1.4-0.8,1.9-1c0,0,0-0.1,0.1-0.1c0.7-0.7,0.1-2.7-0.6-4.2c0-0.4,0-0.7,0-1.1
		c0.3-2.1,0.3-4.2,0.2-6.4c-0.1,0-0.2,0-0.4,0c-0.1,0-1.4-0.1-1.7,0c0.1,0,0.3-0.2,0.6-0.3c0.2-0.1,0.9-0.2,1.5-0.2
		c0-0.4,0-0.8,0-1.1c-1.1,0.1-2.6,0.2-2.5,0c0.3-0.3,1.7-0.3,2.1-0.4c0,0,0.2-0.1,0.3-0.1c0-1.3,0-2.6,0.1-3.8
		c0.1-0.1,0.3-0.2,0.4-0.3c0.1-0.2,0.2-0.4,0.2-0.8c0-0.4-0.1-1-0.2-1.5c-0.1-0.5-0.2-1-0.2-1.5c0-0.5,0.1-0.8,0.3-1.1
		c0.2-0.3,0.4-0.5,0.6-0.8c0.1-0.3,0.1-0.6,0.2-0.9c0.2-1-0.4-2.5,0-3.5c0.1-0.2,0.5-0.9,0.5-1c0-0.1-0.1-0.1-0.1-0.1
		c-0.4,0.1-1.6,0.8-2.5,1.3C840.7,451.9,840.1,451,839.6,451.2L839.6,451.2z M838.8,482c-0.1,0.1-0.2,0.1-0.2,0.1
		C838.6,482,838.7,482,838.8,482L838.8,482z"/>
	<path class="st20" d="M803.1,418.2c-0.6,0.1-1.2,0.2-1.8,0.4c-3.8,1.3-7.4,2.9-11.1,4.1c-1.4,0.5-3,2-4.1,2.5
		c-4.5,2.2-8.5,4.6-12.6,7c-0.6,0.1-1.1,0.2-1.3,0c-3.4-3.4,3.2-5.3,2.2-7.3c-1.6-3.1-6.6,0.9-7.3,1.6c-0.7,0.7-0.6,2.2-0.6,3.5
		c0,0.2-0.2,1.4,0,1.6c0.7,0.7,0.7,2,1.6,2.9c1.5,1.5,4.4,1.4,6.3,0.7c0,0,0,0.1,0.1,0.1c0.8-0.4,1.5-0.7,1.6-0.8
		c3.6-3,6.8-4.2,11.1-6.3c1.1-0.6,5.9-3.6,7-4.1c1.5-0.7,3.8-1.2,6-1.6c0.4-0.4,1-0.7,1.6-0.8C802.2,420.4,802.6,419.3,803.1,418.2
		L803.1,418.2z M809.2,452.3c-2.2,2.3-4.5,3.9-6.2,4.3c0,0,0.1,0,0.1,0.1c-1.5,0.4-2.9,0.8-3.6,1.5c-0.1,0.1-0.7-0.1-0.9,0
		c-3.9,2-9.3,1.4-12,4.1c-1.7,1.7,11-1.6,11.1-1.6c1.1,0,3.5-0.5,4.4-1c0.5-0.2,1.7,0,2.2,0c3.5,0,5.5,1.2,8.9,2.9
		c1,0.5,1.3,1.6,1.9,2.2c1.2,1.2,2.6,2.3,3.5,4.1c0.3,0.5-0.1,2.7,0.3,3.2c2.9,2.9-2.5,16.5-4.4,18.4c-2.2,2.2-4.7,4.4-6.7,6.3
		c-0.9,0.9-2.3,1-3.2,1.9c-0.5,0.5-1.8,0.3-2.5,0.6c-2.5,1.3-5,1.2-7.6,2.5c-0.7,0.4-2.1,0.5-3.8,0.5l-3.4-0.7
		c-1,0.6,0.8-0.5-0.4,0.2c-0.3,0.2-0.8,0.7-1.3,0.7c-0.2,0-1.5-0.6-1.7-0.4c-0.2,0.2-0.6,0.2-0.8,0.4l-0.7,0.7
		c-0.7,0.7,0.2,2.1,1.2,2.1c0.4,0,0.5-0.8,0.7-1c0.4-0.4,1.4-0.7,2.1-0.7c0,0-0.1,0.1-0.1,0.2v0.8c0,0.3,0,1.5-0.2,1.7
		c-0.1,0.2,0,0.5-0.2,0.7c0,0.1-0.2,0.2-0.1,0.2c0.3,0,0.3-2.3,1.5-2.3c0.8,0,1.2,0.6,1.9,1c0.3,0.2,0.8,0.2,1.1,0.3
		c0.2,0.1,0.4,0.1,0.6,0.2c0.1,0,0.4,0.3,0.4,0.2c0-0.2-1.4-0.9-1.8-1.7c2.5-0.5,5.3,0,7.9-0.5c4.2-0.8,8.2-1.8,12.1-3.7
		c0,0.2,0.1,0.3,0.1,0.4c0.1,0.1,0.9-0.3,1-0.4c0.9-0.4,3.4-0.4,4.2,0c0,0,0.4,0,0.8,0c-0.3-0.1-0.6-0.2-0.6-0.3
		c-0.1-0.1-1.5-0.4-1.9-0.8c-0.1-0.1-0.2-0.4-0.3-0.7c7.8-7.7,15.1-13.2,12.6-25.6c-0.7-3.3-1.3-7-3.2-9.8
		c-3.1-4.7-9.4-3.8-11.6-5.6c-0.4-0.1-0.9-0.2-1-0.4c0,0-0.1,0-0.1,0c0,0,0,0,0,0c0-0.1,0-0.1,0-0.2
		C809.9,455.9,814.1,455,809.2,452.3L809.2,452.3z M815.9,500.8c0.3,0.1,0.7,0.2,0.8,0.1C816.8,500.8,816.4,500.8,815.9,500.8
		L815.9,500.8z"/>
	<path class="st20" d="M803.2,419.7c-0.5,0-1.8,0.7-2.3,0.7c-1.8,0-12.7,5.5-13.7,6.5c-0.6,0.6-0.8,2.8-1.1,3.1
		c-1,1-1.5,3.5-2.2,5.9c-0.4,1.1-0.7,2.3-1.2,2.7c-0.2,0.2-0.1,0.6-0.2,0.8c-0.4,0.4-1.2,0.7-1.5,1c-0.1,0.1-1,0.2-1.2,0.3
		c-0.3,0.1-0.6,0.3-0.7,0.3c0.2,0,0.8,0.1,0.8,0.1c0.2,0.1,0.5,0.1,0.7,0.2c0.2,0.2,0.5,0.9,0.8,0.9c2.1,0-0.7-1.2,1.1-1.3
		c0.7,0.7,2.9,5.3,3.5,7.5c0,0,0,0,0,0.1c0,0.2,0.1,0.5,0.1,0.8c0,0.5,0.1,1,0.1,1.4c0.3,5.5-0.6,14.8-0.6,18.1
		c0,2.2-0.3,9.5,0.3,10.8c0.3,0.6-0.1,1.5-0.3,1.9c-1.1,2.2,0.9,12.1-0.5,14.1c0.3,0.4,0.5,0.9,0.8,1.2c0.1,0.1,1.3,4.5,1.9,6.8
		c2.7,0,5.5,0,7-0.7c1.6-0.8,3.5-1.3,4.9-2c0.3-0.2,1.7-0.8,2.4-1.1c-1-0.2-3.4-1-3.5-1c-0.4,0-1-0.1-1.5-0.3c0.1,0,0.1,0,0.2,0
		c-1.9-1.3-3.4-4.5-2.9-7c-0.9-5.2-0.3-13.2-0.3-17.8c0-4.9,0.6-9.9,0.6-15.1c-0.4,0.1-0.8,0.2-0.9,0.1c-0.2-0.2-0.3-2.2-0.5-3.3
		c-0.2-0.4-0.3-0.7-0.3-0.7c-0.4-0.4-0.8-1.1-1-1.6c0-0.1-0.4-0.7-0.3-0.7c0.2,0,0.9,1.1,1.1,1.2c0,0,0.1,0.1,0.1,0.1c0,0,0,0,0,0
		c0.2,0,0.4,0,0.4,0c0.3-0.3-0.2-1-0.2-1.1c0-0.3,0-0.6,0.1-1c0.3,0.3,0.6,0.4,0.8,0.2c0.8-0.8-0.7-4.6-1.1-5c-0.1-0.1,0-0.6,0-0.7
		c0-0.3-0.1-0.7-0.2-1.1c0-0.7,0-1.3,0.1-1.8c0.2,0.2,0.4,0.4,0.5,0.5c0.5,0.3,0.7-0.8,0.9-1.1c0.4-0.8-0.2-2.5-1-4
		c-0.1-3.1-0.4-7.3-0.6-9.2c0,0,0,0,0,0c0.1-0.5,0.2-1,0.5-1.3c0.3-0.3,0.9,0,1.3,0c-0.8,0.5,0.6,2.3,1.8,1.1
		c1.9-1.9,3.1-5.1,4.9-6.9c0.2-0.2,2.2-2.3,2-2.5C803.4,419.7,803.3,419.7,803.2,419.7L803.2,419.7z M802.2,499.8
		c0.3,0,0.5,0,0.5-0.1C802.7,499.7,802.5,499.7,802.2,499.8L802.2,499.8z M779.2,441.1C779.1,441.1,779.1,441.1,779.2,441.1
		C779.1,441.2,779.1,441.1,779.2,441.1L779.2,441.1z"/>
	<path class="st20" d="M776.9,482.1c-0.2,0-0.6,0.4-0.7,0.5c-0.6,0.3-1.4,0.5-1.8,0.9c-0.5,0.5-1.1,0.7-1.7,1.2
		c-0.4,0.4-0.6,0.9-1,1.2c-0.1,0.1,0.4,1.3,0.6,1.6c0.2,0.4,0.2,1,0.4,1.5c0.2,0.4,0.3,2,0.6,2.2c0.2,0.2,0.1,0,0.2-0.1
		c0.1-0.1,0.2,0.2,0.3,0.1c0.3-0.3,0.9-0.1,1.3-0.3c0.8-0.4,2.5,0.1,3.4-0.3c0.4-0.2,0.9-0.3,1.5-0.4c0,0,0.1,0.1,0.1,0.1
		c0,0,0,0,0,0c0.1,0.1,0.2,0.1,0.2,0.2c0.2,0.2,0.4,0.4,0.5,0.4c0,0,0,0,0,0c0.5,0.4,0.9,0.8,1.5,1.4c0.8,0.8,2,6.3,2.2,6.5
		c0.8,0.8,0.9,3.4,1.6,4.1c0.4,0.4,0.6,0.9,1,1.3c0.4,0.4,1.2,0.6,1.6,1c0.5,0.5,3-2.5,3.3-2.9c0.2-0.2,0.4-0.7,0.5-0.8
		c0.2-0.1,0.7-0.1,0.8-0.3c0-0.1,0-0.1-0.1-0.1l-4-4.2c-0.8,0-1.5-3.4-2.2-4.1c-2.1-2.1-3.7-3.9-5.5-5.8c-0.3-0.6-0.6-1.2-1.1-1.8
		c-0.5-0.5-1.3-1-1.7-1.8c-0.1-0.2-1.1-1.2-1.4-1.1c0,0,0,0-0.1,0c0,0,0,0-0.1,0.1C777.1,482.3,777,482.2,776.9,482.1
		C777,482.1,776.9,482.1,776.9,482.1L776.9,482.1z"/>
	<path class="st21" d="M812.1,448c-0.1,0.1-0.3,0.4-0.4,0.5c0,0.1-0.1,0.2-0.2,0.3c0.1-0.1,0.2-0.2,0.3-0.3
		C811.9,448.4,812,448.1,812.1,448L812.1,448z M811.6,448.7c-0.8,1-1.3,2.3-2.1,3.2c-0.6,0.6-1.1,1.5-0.8,1.9l0.5-0.4
		c-0.1-0.3,0.1-0.6,0.2-0.9c0.1-0.2,0.3-0.7,0.3-0.5c0,0.3,1,0.6,1.4,0.2c0.5-0.5-0.6-1.3-0.2-2.1c0.1-0.2,0.2-0.5,0.2-0.8
		C811.3,449.2,811.4,449,811.6,448.7L811.6,448.7z M806.5,455.3c-1.2,0.2-2.3,0.6-3.3,1c-1,0.1-2,0.2-3,0.5c-3.8,1.4-7.4,3-11.1,4.3
		c-1.4,0.5-3,2.1-4.1,2.7c-2.2,1.2-4.3,2.3-6.3,3.6c-0.2,0.5-0.3,1.1,0,1.7c0.3,0.5,0.6,0.9,0.9,1.1c2-1.1,4-2.1,6.3-3.3
		c1.1-0.6,5.9-3.8,7-4.3c1.5-0.8,3.8-1.2,6-1.7c0.7-0.7,1.6-1,2.8-1c0.3,0,0.7,0,1.1,0.1c0.3-0.1,0.5-0.1,0.6,0
		c0,0.1,0.1,0.1,0.2,0.2c0.5,0.1,1,0.2,1.5,0.4c1.1,0.1,2.5,0.1,3.3,0.9c1.3,1.4,4.3,2.4,5.8,4c1,1,0.9,3.2,1.6,4.5
		c0.3,0.5,1.2,4.8,1.1,5.6c0-0.1,0-0.2-0.1-0.3c-0.2-0.4-0.6-1.5-0.8-1.8l-0.7-0.7c-0.1-0.1-0.4-0.1-0.5-0.1c0,0,0,0,0,0
		c0,0,0,0,0-0.1c-0.3-0.3-0.6-0.1-0.8-0.3c-0.1-0.1-0.3,0-0.4-0.1c-1.1-0.6-2.2,1.3-2.2,2.3c0,0.6,1,1.8,1.7,2
		c0.2-0.2,0.8-0.1,1-0.2c0.3-0.1,0.7-0.5,0.9-0.5c0.1,0-0.4,0.3-0.7,0.6c-0.1,0.1-0.4,0.3-0.7,0.5c0,0.2,0.1,0.3,0.2,0.4
		c0,0,0,0.2,0,0.3c0.2,0.2,0.3,0.5,0.3,0.8c0.4,0,0.8-0.1,1.1-0.1c0.4,0,0.9-0.2,0.9-0.2c0,0.1-1,0.3-1.2,0.3
		c-0.3,0.1-0.5,0.2-0.8,0.3c0,0.3-0.1,0.7-0.1,1c0,0,0,0,0,0c-0.1,1-0.2,2.1-0.5,3.1c0,0.1,0,0.2,0,0.4c-0.1,0.4-0.3,0.7-0.4,1.1
		c-2.2,6.7-7.9,11.9-11.1,12.7c0,0,0.1,0,0.1,0.1c-1.5,0.4-2.9,0.8-3.6,1.6c-0.1,0.2-0.7-0.1-0.9,0c-3.9,2.1-9.3,1.5-12,4.3
		c-1.7,1.8,11-1.7,11.1-1.7c1.1,0,3.5-0.5,4.4-1c0.5-0.2,1.7,0,2.2,0c2.3,0,3.9,0.5,5.7,1.3c0.4-0.3,0.7-0.4,0.9-0.4
		c0.3,0,2.9-0.8,4-0.9c-0.3-0.1-0.7-0.4-0.8-0.7c-1.3-0.3-2.5-0.7-3.1-1.3c0,0,0,0,0,0c-0.1-0.1-0.2-0.1-0.3-0.2c0,0-0.7,0-0.7,0
		c0-0.2,3.3-2.8,3.8-3.3c0.8-0.9,1.6-1,2.5-1.9c1.4-1.5,3.5-3.5,4.9-5c0,0,2.9-2.4,3.1-2.6c0.6-0.6,1.1-1,1.7-1.4c0,0,0,0,0,0
		c0.2-0.8,1.1-2,1.2-2.1c0.2-0.2,0.3-0.5,0.5-0.8c0-0.1,0-0.3,0-0.4c0-2,0.1-3.8,0.1-5.6c0.2-1.8,0.2-3.7,0.1-5.4
		c0-1.1,0.2-6.2,0-6.4c-0.3-0.4-0.8-0.6-1.1-0.9c-0.1-0.1-0.3-0.2-0.5-0.2c-0.4,0.1-0.8,0.2-0.8,0.3c-0.3,0.3-0.8,0.4-1.1,0.8
		c-0.3,0.3-0.5,0.8-0.9,1.1c-0.4,0.4-0.6,0.7-0.9,1c0,0-0.3,0.6-0.3,0.4c0,0,0.3-0.4,0.3-0.4c0.3-0.3,0.2-0.9,0.4-1.1
		c0.7-0.7,1.7-1.4,2.1-2.5c0,0-0.1-0.1-0.1-0.1c-0.3-0.4-1-0.7-1.8-1.1c0,0.1,0,0.2,0,0.3c-0.3,0.5-1,1.9-1.3,2.2
		c-0.1,0.1-0.1,0.3-0.2,0.5c0,0.1,0,0.1,0,0.2c0,0,0,0.1-0.1,0.2c0,0.1-0.1,0.2-0.1,0.2c-0.1,0,0-0.1,0.1-0.2c0-0.1,0.1-0.2,0.1-0.3
		c0-0.3,0.1-0.8,0.3-1.1c0.1-0.1,0-0.4,0-0.4c0.2-0.3,0.6-1.5,0.4-1.8c0,0,0-0.1,0-0.1c0,0,0,0,0,0c-2.6-1.1-6.3-2.1-7.9-3
		c-0.7-0.4-1.6-0.3-2-0.7C810.4,455.2,807.6,456.7,806.5,455.3L806.5,455.3z"/>
	<path class="st22" d="M873.4,454.8c0.8,1.4,3.8,2.4,3.7,3.3c-2.1,1.6-5.2,2.4-6.2,5.2c-0.9,1.3-1.7,2.6-2.5,4
		c-0.2,0.3-0.5,0.6-0.7,0.8c-0.2,0.2-0.4,0.7-0.6,1c-0.1,0.3-0.5,0.6-0.6,0.8c-0.4,0.4-0.8,1.5-1.2,1.9c0,0,0,0.1,0,0.1
		c-0.4,0.2-0.8,0.3-1.2,0.5c-0.4,0.2-0.8,0-1.2,0.2c0,0-0.1,0-0.1,0c0.2,0.1,1.7,0.5,1.9,0.5c0.4,0,0.9,0.2,1.4,0.4c0,0,0,0,0,0
		c0,0,0.1,0.1,0.2,0.1c0.2,0.1,0.3,0.2,0.5,0.2c-0.3,0-0.7-0.1-1.3-0.3c0,0.1,0,0.2-0.1,0.2c0.3,0.3,0.6,0.5,0.9,0.7
		c0,0,0.3,0,0.3,0.1c0,0.1-0.2,0-0.3,0c-0.1,0-0.5,0-1-0.1c-0.1,0.6-0.1,1.3,0,2c0,2-0.1,4.1-0.1,6.1c0,0,0,0,0,0
		c-0.1,0.4-0.1,0.9,0,1.3c0,0.3,0,0.6,0,0.8c0,0,0,0,0,0c0,0.1-0.1,0.3-0.1,0.4c-0.1,0.1,0.1,0.4,0,0.5c-0.3,0.7-0.6,1.3-0.9,1.8
		c-0.1,0.2-0.6,1.3-0.3,1.6c0.1,0.1,0.3,0.4,0.4,0.5c0.1,0.1,0.4,0.1,0.5,0.1c0.2,0,0.3,0,0.5-0.1c0.1,1,0.1,2,0.2,2.9
		c1.3,2.4,3.6,4,5.6,5.8c2.3,2.1,5.1,3.4,7.4,5.5c1.4,1.7,3.1,5.8,5.5,3.1c3.5-2.6,7.4-4.6,10.3-7.9c1.7-0.2,3-2.2,4.5-3.2
		c1-1.5-0.5-3.5,0.5-5.1c0.6-1.8,0-3.8,0.2-5.6c-0.1-5.3-0.1-10.6-0.4-16c1.5,0.5,1.5,1,1.1,2.4c0.1,3,3.8,3.1,4,0.1
		c0.3-2.5-1.8-3.6-3.2-5.1c-2-1.3-3.9-2.5-6.1-3.3c-1.8-0.7-3.8-1-5.2-2.4c-2-0.8-3.9-1.6-6-2.1c-1.7-1-3.4-2-5.4-2.5
		C876.8,455.7,875.1,455.3,873.4,454.8L873.4,454.8z M882.9,461.8c1.5,0.6,3,1.8,4.5,2.5c1.5,1.3,4.3,1.4,4.7,3.7
		c0.2,0.5,0.3,0.9,0.4,1.4c0,0-0.1,0.1-0.1,0.1c-0.3,0.3,0.4,1.1,0.4,1.6c0,0.5-0.4,0.6-0.7,0.8c-0.3,0.3-0.1,4-0.4,4.7
		c-0.2,0.3,0,1.5-0.2,1.7c-0.6,0.6-0.3,5.2-0.9,6.4c-0.3,0.6,0.1,1.9,0.1,2.6v1.1c0,0.1-0.1,0.3-0.1,0.3c0.2,0.2,0.8,0,1,0.2
		c0.6,0.6-1,1.3-0.9,1.3c0,0,1,0.6,1,0.7c0,0.1-1,0.3-1.1,0.3c-0.2,0.2-0.4,5.4-0.2,5.6c0.3,0.3,0.7,0.4,1.1,0.4
		c-2.3,1.4-4.5,3.1-7,4.1c0,0,0,0-0.1,0c-0.5,0.3-1.1,0.5-1.6,0.7c-0.2,0.1-0.9,0.6-1,0.6c0,0,0.4-0.2,0.6-0.4
		c0.1-0.1,0.7-0.5,1.1-1c-0.1-0.3-0.1-0.7-0.2-1c-0.6,0.1-1.4,0.4-1.4,0.3c0-0.1,0.8-0.7,1.3-1c-0.1-0.7-0.3-1.5-0.6-2.1
		c-0.2,0.1-0.5,0.2-0.7,0.4c0.1-0.2,0.3-0.4,0.5-0.5c0,0,0.1-0.1,0.1-0.1c-0.3-0.5-0.7-1-1.3-1.3c-2.1-1.2-4.3-2.3-6.7-2.7
		c-2.8,0.3-3.7-2.5-3.2-5c0.4-3.3,0.5-6.6,0.4-10c0.1-1.2-0.1-2.5-0.1-3.7c0.1,0.1,0.3,0.1,0.4,0.2c0,0,0.1,0.2,0.2,0.2
		c0,0,0.7-1.2,0.8-1.3c1.1-1.1,1.3-2.7,2.4-3.8c0.2-0.2,0.2-0.5,0.4-0.7c0.3-0.3,1.2-1,1.2-1.3c0-0.3-0.5-1-0.8-1.4
		c0.1-0.1,0.2-0.3,0.2-0.4c0,0,0,0,0,0c0.4,0,0.6,0,1,0.2c0.1,0.1,1.3-1.9,1.6-2.3c0.1-0.1,0.5-0.6,0.8-1.1c0.9-0.4,1.9-0.7,2.8-1.1
		L882.9,461.8L882.9,461.8z M862.2,472.6c-0.1,0-0.1,0-0.2,0.1c-0.1,0.1,0.4,0,0.6,0.1C862.5,472.7,862.4,472.6,862.2,472.6
		L862.2,472.6z M881.9,498c0,0-0.2,0.3-0.2,0.3C881.7,498.3,881.8,498.2,881.9,498L881.9,498z"/>
	<path class="st23" d="M907,450.7c-0.1,0.1-0.1,0.1-0.2,0.2c0.1,0.1,0.1,0.2,0.2,0.2c0.1,0.1,0.4,0.3,0.4,0.6c0,0.1,1,1.7,1.2,1.9
		c0.9,0.9,1.7,3.1,1.8,5c-0.2-0.1-0.3-0.3-0.5-0.4c0,0,0-0.1-0.1-0.1c-1.4-1.4-2.9-3.2-4.4-4.7c-0.3-0.3-0.7-0.5-1-0.8
		c-0.2-0.2-1.3-1-1.3-1c-0.3,0.3,0.7,0.5,0.7,0.9c0,0.2,2.2,3.2,2.1,3.2c-0.1,0.1-0.3-0.1-0.3-0.1c0,0-0.2,0-0.5,0
		c-0.1,0-0.1,0-0.2,0c-0.1,0-0.2,0-0.3,0c-0.1,0-0.3-0.1-0.4-0.1c-0.5,0-0.9,0.1-1.4,0.1c-0.1,0-0.3,0-0.4,0c0.1,0,0.1,0,0.2,0
		c-0.2,0-0.5,0-0.8,0c0,0-0.1,0-0.2,0c0,0,0,0,0,0c0,0,0.1,0,0.1,0c-0.3,0-0.6,0-0.6,0c0,0-0.1,0.1-0.1,0.1c-0.4,0.1-0.8,0.1-1,0.3
		c-0.1,0-0.3,0.1-0.4,0.1c-0.3,0.1-0.7,0.3-0.7,0.3c0,0,0.6-0.2,1.2-0.3c0.5,0,1.7-0.1,2.1-0.2c0.7-0.3,1.7,0.7,2.5,0.2
		c0.1,0,0.1-0.1,0.2-0.2c0.1,0,0.2,0.1,0.4,0.1c0,0.1-0.1,0.1-0.1,0.2c0,0.2,0.4,0,0.6,0c0.1,0,0.4,0.2,0.5,0.1
		c0.6,0.2,1.1,0.5,1.5,0.8c0,0-0.1,0-0.1,0c0,0,0,0,0,0c0,0,0,0,0,0c-0.9,0.5-1.9,1.2-2.7,2c-0.4,0.4-0.3,1.3-0.6,1.6
		c-0.5,0.5,0,2.4,0,2.8c0.1-0.3,0.7-1.4,0.8-1.5c0.3-0.6,1.2-1.1,2.3-1.3c0,2.7,0.2,5.5,0,8.2c-0.3,3.9-0.3,8.1,0.2,11.9
		c0.1,0.9-0.2,11.3,0.2,11.7c0.4,0.5,1,1.3,1.4,2c1.9,3.4,4.6,6.1,6.2,9.7l1.3,2.9c0,0.1,0.4,0.9,0.5,1.1c0.1-0.2,0.9-1,1.1-1.8
		c0.6-2.1,1.9-3.6,3-5.3c1.6-2.4,3.8-4.8,5.2-6.4c0.3-0.3,0.4-0.8,0.5-1.3c1.6,1.9,3.3,3.8,4.8,5.8c0,0,0,0,0,0
		c0.2,0.3,0.4,0.6,0.7,0.9c0,0,0,0,0,0c0.5,0.7,1,1.3,1.4,2c0.5,0.8,0.8,2.1,1.4,2.7c0.2,0.3,0.9,2.4,1.1,2.4c0,0,1.9-4,2.7-5.3
		c1.1-1.7,2.6-3.2,3.6-4.9c0.9-1.5,1.5-3.3,2.2-4.4c0.5,0.2,1.1,0.2,1.6-0.3c0.3-0.3,0.3-1.6,0.1-2c-0.2-0.4,0.1-0.9-0.1-1.3
		c-0.4-0.8,0.2-1.9-0.2-2.7c-0.2-0.5,0.2-2.1-0.1-2.5c-0.4-0.4-0.2-3-0.5-4.1c0-0.3,0-0.7,0-1c0,0,0-0.1,0-0.1
		c-0.1-1.7-0.2-3.4-0.5-5c-0.2-1.1,0.1-2.2-0.2-3.3c-0.2-0.7-0.3-9.9-0.2-10.5c0-0.1,0.1-0.3,0.1-0.5c1.4-1.2,3.3-2.5,4.3-3.1
		c0.2-0.1,1.3-0.5,1.3-0.6c0-0.2-1.6,0.5-2.8,0.5c-1.3,0-11.2,1-11.4,1.3c-0.1,0-0.1,0-0.2,0c-0.1,0.1,0.6,4.2,0.6,4.8
		c0,1.5,0.7,5.3,1.3,6.6c0.5,1.1,0.4,3.3,0.8,4.6c0,0.1,0,0.4,0,0.7c-0.3,0.8-0.7,1.4-1.2,2c0,0,0.4,0.4,0.4,0.4
		c0.3,0.3,0.3,1.3,0.6,1.8c0.2,0.4-0.1,1.4,0.2,1.7c0.2,0.2,0,2.2,0.3,2.5c0.3,0.3-0.3,3.8,0,4.5c0.1,0.3,0.7,0.1,0.9,0.4
		c0.1,0.2-0.3,0.4-0.1,0.6c-0.2,0-0.3,0-0.3,0c0,0-0.6,0.2-0.4,0.3c0.2,0.2,2.2,1.2,2.2,1.3c0,0.2-1.9,0-2.1,0.4
		c0,0.1,0.2,1.3,0.3,1.5c0.2,0.2,0.6,0.2,1.1,0.3c-0.1,0.3-0.1,1.3-0.2,1.6c-0.1,0.3-0.2,0.7-0.3,1.1c-0.4,0.3-0.8,0.5-1.2,0.7
		c-0.9,0.3-2.1,0.4-2.7,1c-0.1,0.1-1.5-0.9-1.8-1c-1.7-1-3.7-1.6-5.3-2.5c0,0,0,0,0,0c0,0,0,0-0.1-0.1c-0.2-1.3-0.5-4-0.7-6.1
		c0.1-0.6,0.2-1.3,0.3-1.9c-0.1,0-0.3,0-0.4,0c0,0-0.7-0.1-0.9-0.1c0,0-0.1,0-0.1,0c0,0,0,0,0.1,0c0,0,0.1-0.1,0.1-0.1
		c0.3-0.1,0.6-0.1,0.9-0.2c0.1-0.1,0.3,0,0.4,0c0-0.1,0-0.2,0.1-0.4c0.1-0.5,0.1-1.1,0.1-1.7c-0.1-0.2-0.1-0.3-0.1-0.5
		c-0.3,0.1-0.7,0.2-0.9,0.2c-0.1,0-0.3,0-0.4,0c-0.1,0.1-0.2,0.2-0.2,0.1c0-0.1,0.1-0.1,0.2-0.1c0,0,0.1-0.1,0.1-0.1
		c0.2-0.2,0.8-0.4,1.2-0.4c-0.1-0.9,0.1-2.1,0.3-3.3c0,0-0.1,0-0.1,0c0,0,0.1-0.1,0.2-0.1c0-0.3,0.1-0.6,0.1-0.9
		c-0.5,0.1-1.1,0-1.5,0c0,0-0.1,0-0.1,0c0,0,0.1,0,0.1-0.1c0.2-0.1,0.5-0.1,0.7-0.2c0.1-0.1,0.5-0.1,0.8-0.2c0-0.3,0.1-0.6,0.1-0.9
		c-0.4,0-0.9,0.1-1.2,0.2c-0.3,0.1-0.7,0.2-0.7,0.2c0.1-0.1,0.3-0.1,0.7-0.2c0,0,0.1,0,0.1-0.1c0.4-0.2,0.9-0.3,1.2-0.5
		c0.1-0.2,0.2-0.4,0.1-0.7c-0.7-1.4,0.6-3.8-0.2-5.2c-0.3-0.7-0.8-5.2-0.8-6.2c0-0.9-0.7-4-0.6-4.1c0.3-0.3,3.2-2.2,4.6-3.2
		c0.1-0.3,0.2-0.5,0.2-0.6c-0.1-0.1-0.1-0.1-0.2-0.1c-0.3,0-0.7,0.3-0.9,0.3c-1.9,0-3.9,0.2-5.9,0.2c-0.2,0-1.3-0.2-1.4,0
		c0,0,0,0.2,0,0.3c-2.2-0.5-3.4,0-3.7,0.6c-0.2,0.4,0.6,5.3,0.8,5.9c0.2,0.8-0.2,1.9,0,2.8c0.2,0.7,0,1.9,0.3,2.6
		c0.8,1.9-0.5,5.5,0,7.9c0.3,1.6-0.1,2.9,0.3,4.4c0,0.1,0,0.1,0,0.2c0.1,1.2,0.2,2.9,0.2,3.4v0.9c0,0.1-0.2,0.1-0.1,0.2
		c0.2,0.2,0.7,0.3,1,0.5c0,0.2,0.1,0.3,0.1,0.5c-0.3,0.3-0.9,0.7-0.9,0.8c0.2,0.2,0.6,0.2,1,0.3c0,0.1,0,0.2,0,0.3
		c-0.4,0.1-1.1,0.3-1.1,0.5c0,0.3,0.3,2.8,0.2,2.9c-0.1,0.1-0.3,1.5-0.3,1.6c0,0.3,0.6,0,0.9,0c0.1,0,0.3,0,0.5,0
		c-0.2,0.2-0.5,0.4-0.6,0.6c-1.3,1.6-3.1,2.6-4.8,3.9c-0.2,0.1-0.9,0.8-0.9,0.8c-0.7-0.8-1.5-1.4-2.5-1.9c-0.3-0.2-0.5-0.7-0.8-0.9
		c-1.3-0.8-2.4-2.1-3.6-3.1c-0.1-0.1-0.1-0.2-0.1-0.3c0.1,0,0.2-0.1,0.4-0.1c0.7,0,2.7-0.4,2.9-0.5c0.4-0.4-0.2-1.7,0.1-2.2
		c0.2-0.4-0.2-1,0-1.3c0.1-0.1,0.1-0.7,0-0.7c-0.2,0-1.1-0.2-1.2-0.3c0,0,1.4-0.7,1.2-0.7c-0.1,0-0.1-2.4,0.1-2.7
		c0.2-0.2-0.3-1.3-0.3-1.3c-0.3-0.3,0.5-0.9,0.6-1c0.1-0.1-0.2-1.4,0.1-1.8c0.1-0.1-0.1-1.3-0.1-1.7c0-2.2-0.3-4.3-0.3-6.3
		c0-0.1,0-0.7,0-1.2c0,0,0,0,0,0c-0.2-0.4,0.1-1.2,0.1-1.5c0-0.4-0.1-1.3,0.1-1.5c0.1-0.1,0.2-0.1,0.3-0.1c0.3,0.7,0.7,1.3,1,1.5
		c0.1,0.1,1,1,1.5,0.6c0.3-0.3,0.6-0.4,0.8-0.7c0.2-0.2,0.3-0.8,0.4-1c0.1-0.1,0-0.6,0-0.7c0-1.9-0.2-4.3-1.3-5.5c0,0,0,0,0,0
		c0,0,0,0,0,0c-0.6-0.9-1.5-1.7-1.9-2.5c0-0.1-0.1-0.1-0.1-0.2c0,0.1-0.1,0.2,0,0.3c0.9,0.9,2.3,4.4,1.6,5.9c-0.5,0.9,0,1.1-1.1,1.1
		c-0.1,0-0.3,0.2-0.4,0c-0.7-0.7-1-1.7-1.4-2.6c0,0,0,0,0,0c0.2-0.2,0.2-1.6,0-2c-0.4-0.8,0.2-1.6-0.2-2.5c-0.8-1.7-1.5-4-2.9-5.4
		c-0.6-0.6-1.4-1.5-2.2-1.9C907.3,450.9,907.1,450.8,907,450.7L907,450.7z M901.8,455.7c0.2,0,0.3,0,0.5,0c-0.1,0-0.2,0-0.2,0
		C902,455.6,901.9,455.6,901.8,455.7L901.8,455.7z M927.5,477.2C927.5,477.2,927.5,477.2,927.5,477.2
		C927.5,477.2,927.5,477.2,927.5,477.2C927.5,477.2,927.5,477.2,927.5,477.2L927.5,477.2z M917,508.3C917,508.3,917,508.3,917,508.3
		C917,508.3,917,508.3,917,508.3C917,508.3,917,508.3,917,508.3L917,508.3z"/>
	<path class="st24" d="M965,455c-3.5,1.1-11.6,11.3-14.1,18.6c-0.3,0.9-2,4.7-0.7,5.6c1.1,0.8,2.2,2.6,3.5,3.5
		c1,0.8,2.4,0.9,3.9,0.8c-0.1-0.8-0.2-1.8,0-1.8c0.1,0,0.4,0.9,0.7,1.7c0.2,0,0.4-0.1,0.6-0.1c-0.2-0.5-0.3-0.9-0.1-1.1
		c0.1-0.1,0.4,0.4,0.7,1c1.5-0.3,3-0.8,4.5-1.2c0-0.7-0.1-1.3,0.2-1.3c0.2,0,0.2,0.8,0.3,1.2c0.2-0.1,0.4-0.1,0.6-0.2
		c0.1-0.3,0.2-1.3,0.2-1.3c0.1,0,0,0.2,0,0.2c0.1,0.2,0.2,0.6,0.2,1c2.2-0.6,4.2-1,5.2-0.2c0.9,0.7,1.5,2.6,2,3.2
		c2,3-2.6,16.3-4,18.2c-0.4,0.6-2.9,4.8-3.5,5.7c0.4-0.2,1.3-0.1,1.7-0.4c1.9-1.3,3.9-3.4,5.3-5.3c3.6-4.7,5.9-10.3,7.8-16.2
		c0.5-1.6,0.2-3.5,0.8-5.2c0.3-0.9-0.4-3-0.5-3.9c-1.4-10.5-14.6-0.9-17.5-3.1c-4.1-3.1-1.7-10.2-0.4-14
		C962.9,458.4,963.3,457.8,965,455L965,455z M965.1,508.5c-0.2,0.1-0.3,0.2-0.2,0.4C964.8,508.9,965,508.6,965.1,508.5L965.1,508.5z
		"/>
	<path class="st24" d="M955.4,493.3c0,0-0.1,0-0.1,0c-1.3,0.6-2.3,2.2-3.6,2.9c-0.5,0.2,1.4,0.1,1.8,0.2c0.6,0.2,3.5,1.8,3.8,2.4
		c0.3,0.6,1.2,1.1,1.5,1.6l1.2,2.5c0.3,0.7,1.2,2.6,1.4,3.7c0.1,0.4,0,0.9,0.2,1.2c0,0.1,0.1,0.1,0.1,0.1c-0.6,1.2-1.3,3.1,1.3,2.7
		c3.1-0.4,4.4-3.1,5.9-5.1c0.2-0.2-0.2-0.5-0.2-0.5c-0.1-0.1-0.1-0.1-0.2-0.2c0.6-0.2,1.3-0.6,1.1-1c-0.6-1.2-2.3-2.5-3.3-3.5
		c-1-1-8.1-7.6-9.8-6.7C956.1,493.6,955.7,493.3,955.4,493.3L955.4,493.3z"/>
	<path class="st24" d="M955.1,492.6c-0.1,0-0.2,0-0.2,0.1c-0.7,1-3.4,2-5.2,3c0,0,0,0-0.1,0c-1.5,0.7-3.2,2.2-3.3,4.5
		c0,0.5,0.6,0.9,0.6,1.1c0.4,0.9,1.1,1.4,2,1.5c3.4,0.2,4-5,1.8-6.5c0.7-0.2,1.3-0.3,1.6-0.1c0,0,0.5,0.5,0.7,0.3
		c0.5-0.6,4.5-1.4,4.7-1.7c0.1-0.2-1.8-1.9-2.1-2C955.7,492.7,955.3,492.6,955.1,492.6L955.1,492.6z"/>
	<path class="st24" d="M964.9,455.3c-0.9-0.1-3.4,3.6-3.8,4.4l-0.3,2.3c-0.8,0.4-1.4,0.2-2.1,0.2c-0.1,0,1.1,0.9,1.3,1
		c0.3,0.3,0.8,0.6,1.3,0.8c0.1-0.3,0.2-0.6,0.5-0.9c0.1-0.1,0.1-0.7,0.3-0.7c0.1,0-0.6,1-0.5,1.7c0.3,0.1,0.5,0.2,0.8,0.4
		c0.4-0.4,0.7-1,1.1-1c0.1,0-0.3,0.8-0.3,1.3c0.5,0.2,0.9,0.4,1.3,0.5c0,0,0,0,0,0c0,0,0,0,0.1,0.1c0.4,0.4,1.4,0.2,1.8,0.5
		c0.1,0.1,0.4,0.1,0.7,0.1c0-0.2,0.1-0.4,0.1-0.5c0.2-0.3,0.3-0.7,0.3-1c0,0,0-0.1,0-0.1c0-0.1,0-0.1,0.1-0.1c0,0,0,0.1-0.1,0.1
		c0,0.2,0.1,0.5,0.1,0.6c-0.1,0.2-0.2,0.6-0.2,1c0.1,0,0.1,0.1,0.2,0.1c0.1,0.1,0.5,0,0.6,0.2c0.1,0.1,0.2,0.2,0.4,0.2
		c0.2-0.8,0.5-1.8,0.8-1.8c0.2,0-0.1,1-0.3,1.9c0.9,0,2.4-0.2,3.7-0.4c0.9,0.2,1.9,0.1,2.7,0.5c0.2,0.1,0.6-0.1,0.9,0
		c0.1,0.1,0.4,0.1,0.6,0.2c0,0,0,0,0,0c1.3,0.7,2.5,1.4,3.4,2.4c0.1,0.1,1,1.4,1.1,1.3c0.6-0.3,0.2-1.8,0.2-2.4
		c0-0.5,0.1-1.1-0.2-1.4c-0.1-0.1-0.3-0.3-0.6-0.4c0-0.2,0-0.4,0.1-0.6c0.1-0.3,0.6-2,0.6-2c-0.1-0.1-0.3-0.1-0.4-0.2
		c-0.6-0.6-1.5-0.9-2.4-1.3c-0.6-0.3-1.8-0.1-2.2-0.5c-0.1-0.1-0.4-0.1-0.7-0.1c-0.5-0.2-0.9-0.3-1.1-0.3c-0.4,0-2.3-0.5-2.6-0.8
		c-0.2-0.2-1.4-0.3-1.5-0.4c-0.1-0.1-0.1-0.2-0.2-0.4c-1.6-0.8-3.2-1.7-4.5-2.9c-0.4-0.4-0.5-1.2-0.9-1.6
		C965,455.4,965,455.3,964.9,455.3L964.9,455.3z"/>
	<path class="st24" d="M977.9,464.5c0,0.3-0.3,0.8-0.1,0.8S977.8,464.2,977.9,464.5c0.2,0.8,0.1,1.3,0.2,1.8
		c0.1,0.3,0.7,0.5,0.7,0.8c0.1,0.2,0.6,0.3,0.8,0.4c0.3,0.5,1.6,1.3,1.8,1.9c0,0.1,0.1,0.4,0.2,0.3c0.2-0.4,0.7-4.3,0.7-5.1
		c0.1-1.4,1.8-5.5,1.6-6.2c-0.1-0.3-0.4-0.6-0.6-1c-0.9-1.3-4.9-1.6-4.4,0.5c0.2,0.8,0,2,0.7,3c0.5,0.8,2.2,0.3,2,0.1
		c-0.2-0.1-0.2,0.4-0.1,0.5c0.1,0.2-0.6,1-0.7,1.2c-0.5,0.8-0.8,1.8-0.9,1.9c-0.2,0.1-0.6,0.5-0.4,0.6
		C979.9,465.7,978.4,464.8,977.9,464.5L977.9,464.5z"/>
	<path class="st25" d="M1001.6,456.4c-0.2,0-1.2,1-1.6,1.4c-1.7,1.7-3.6,3.1-5.3,4.8c-1,0.3-2.1,0.6-2.6,1.1c-0.5,0.5-0.9,1-1.4,1.5
		c-0.3,0.3-0.7,2.3-0.9,2.5c-0.3,0.3-0.7,1-1,1.4c-0.2,0.2-0.5,0.5-0.7,0.7c-0.1,0-0.1,0.1-0.2,0.1c-0.7,0.2-1.5,0.7-2.2,0.7
		c-0.1,0-1.3,0.1-1.3,0.1c0,0,0.5,0.1,0.6,0.1c0.2,0.1,1.2,0,1.9,0.2c-0.8,0.8-1.6,1.6-2.4,2.3c-0.1,0.1-0.2,0.3-0.3,0.6
		c-0.3,0.1-0.6,0.3-0.7,0.3c0,0-1.9,0.6-2,0.6c0,0-0.1,0-0.1,0c-0.2,0.1-0.4,0.2-0.7,0.3c-0.1,0-0.2,0-0.2,0.1c0,0.1,1,0.1,1.1,0.1
		c0.4,0,0.8,0,1.2,0.2c0,0,0.5,0,1-0.1c-0.1,0.3-0.1,0.7,0,0.9c0.2,0.3,0.4,0.4,0.6,0.4c0,0.1-0.1,0.1-0.1,0.2c0,0,0,0,0,0.1
		c0.1,0,0.5,0,0.5,0h0.4c0,0,0.1,0,0.1,0c0,0-0.1,0-0.2,0.1c-0.2,0.2-0.5,0.4-0.8,0.7c0.3,1.6-0.1,3.3,0.2,4.9
		c0.7,3.3,1.1,8.6,0,11.8c-0.1,0.4-0.1,1.8-0.4,2.1c0,0-0.5,0.6-0.4,0.7c0.3-0.3,1.7-1,2-0.9c-0.2,0.2-0.4,0.4-0.3,0.7
		c0,0,0,0.1,0,0.2c0.3,0.3,0.4,0.5,0.8,0.7c0.2,0.1,1.4,0.3,1.5,0.4c0.3,0.3,0.7,0.4,1,0.7c0.1,0.1,0.2,0.3,0.2,0.3
		c0.2,0.2,0.6,0.3,0.8,0.6c0.1,0.3,0.4,0.6,0.6,1c0.3,0.5,0.5,2,0.8,2.4c0.5,0.5,0.9,1.1,1.2,1.5c0.2,0.2,0.6,0.3,0.8,0.4
		c0.2,0.2,1,0.1,1.6,0.1c0.3,0.3,0.9,0.5,1.2,0.8c0.3,0.2,0.6,0.5,1,0.7c0.4,0.3,0.9,1.4,1.1,1.8c0,0.1,1,1.3,1.1,1.3
		c0.3,0.1,0.5,0.3,0.7,0.5c0.2,0.2,0.9,0.8,1.3,0.6c0.1-0.1,0.4-0.1,0.5-0.2c0.3-0.3,0.6-0.7,0.8-1.1c0.5-0.4,1.3-0.9,1.8-1.3
		c1.8-1.2,3.3-2.8,4.9-4.1c1.5-1.1,3.2-1.9,4.7-3c1.3-0.9,2.7-2.6,3.9-3.2c0.1,0,0.2-0.1,0.3-0.1c0.1,0.1,0.2,0.2,0.3,0.3
		c0.4,1,0.6,3,0.6,3.9c0,0.2,0,0.6-0.1,0.7c-0.1,0.1,0,0.5-0.1,0.6c-0.1,0.1,0,0.4-0.1,0.4c-0.1,0.1,0,1.1-0.1,1.2
		c-0.1,0.1-0.8-1.5-1.7-0.6c-0.7,0.7-0.7,2.2,0,2.9c0.2,0.2,0.4,0.1,0.7,0.1c0.8,0,1.2-0.9,1.5-1.2c0.1-0.1,0-0.5,0.1-0.6
		c0.1-0.1-0.1-0.6,0-0.7c0.2-0.2,0.2-0.9,0.2-1.2c0-0.4,0.1-1.9,0.3-2.2c0.1-0.1,0.1-0.2,0-0.4c0,0,0,0,0,0c0,0,0.2-0.8,0.2-1
		c0-0.9,0.1-1.9,0.1-2.8c0.3-0.6,0.1-4,0.1-4.3c0-1.3,0.7-4.1,0.2-4.6c-1.1-1.1-11.2,0.1-13.8,0.2c0,0,0.1,0.1,0.2,0.2h1.3
		c0.1,0,0.3,0,0.5,0.1c0,0,0,0,0,0c0.8,0.6,3.3,1.6,3.7,2.1c0.7,0.7,1.2,1.4,1.8,2c0.1,0.1,0.1,0.1,0.1,0.2c0,0,0,0,0,0
		c-0.8,0.1-1.8,0.4-2,0.5c-0.8,0.4-2.1,0.6-3.2,1.1c-0.7,0.3-1.4,1.2-2.1,1.8c0.5,1.3,1.6,3.1,1.6,3.1c0,0-0.6-0.6-1.1-1.1
		c-0.3-0.3-0.7-1.1-1-1.2c-0.1,0-0.2-0.1-0.4-0.1c-0.2,0.1-0.5,0.3-0.9,0.6c0.1,0.1,0.1,0.2,0.1,0.2c0.4,0.8,1.1,1.4,1.6,2.2
		c0.8,1.6,1,2-0.2,0.1c-0.2-0.3-0.3-0.6-0.7-0.9c-0.3-0.3-0.5-0.6-0.8-0.9c-0.2-0.2-0.3-0.3-0.5-0.5c-0.9,0.7-1.8,1.5-2.1,2.1
		c-0.3,0.5-0.7,1.2-1,1.6c-0.6,0.6-1,1.1-1.4,1.8c-0.1,0.1-0.1,0.3-0.1,0.5c-0.1,0.1-0.1,0.1-0.2,0.2c-0.2-0.2-0.4-0.3-0.6-0.4
		c0-0.1,0-0.1,0-0.2c0.2-0.4-0.1-1.2-0.3-1.5c0,0-0.2-0.1-0.2-0.2c-0.2-0.5-1-0.6-1.3-0.9c0,0,0.3-0.4,0.3-0.4
		c0-0.1,0.1-0.2,0.1-0.2c-0.1,0-0.5-0.2-0.5-0.2c-0.1,0-0.2,0-0.2,0c-0.2-0.1-0.3-0.3-0.5-0.4c-0.3-0.2-0.6-0.3-1-0.4
		c-0.9-0.5-2.1-1.1-2.8-1.8c-0.1-0.1-0.4-0.1-0.5-0.2c-0.1-0.1-0.4-0.2-0.7-0.3c-0.8-0.6-1.4-1.2-1.9-1.7c0-0.1,0.1-0.2,0.1-0.3
		c0.4-0.8,1.1-1.2,1.4-1.9c0.2-0.3-0.7-1.1-1-1.7c-0.1-0.2,0-0.7,0-1c0-0.5,0.2-4.3,0.4-5c-0.2,0-0.5-0.4-0.7-0.5
		c-0.3-0.3-0.6-0.4-1-0.7c-0.2-0.2-0.2-0.6-0.4-0.9c-1-2-1-4.7,0.2-5.7c0-0.1,0.1-0.2,0.1-0.2c0.3-0.6,1-0.8,1.4-1.2
		c0.1-0.1,0.3-0.1,0.4-0.2c0.2-0.2,0.8-0.1,0.8-0.1c-0.6,0-1.2-0.8-1.2-1.5c0-0.6,0.2-1,0.6-1.4c0.3,0,0.6,0.1,0.7,0.2
		c0,0,0.4,0.4,0.5,0.3c0.1-0.1,0-0.4,0.2-0.6c0.3-0.3,0.6-1,1-1.3l4-4c0.4-0.4,3.1-0.6,3.2-0.8c0.4-0.4-0.6-2.2,0.1-2.8
		c0.7-0.7,2.2-1.4,3.2-2.4c0,0,0,0,0.1-0.1c0.4,0.3,0.8,0.6,0.9,0.7c1.9,1.9,6.3,3.1,8.4,5.3c0.4,0.4,1.3,0.3,1.8,0.7
		c0.2,0.2-0.8,1.7-1.1,2.1c-0.1,0.1-0.1,2-0.1,3.6c0,0-0.1,0-0.1,0c-0.1,0.5-0.2,1.1-0.1,1.3c0.2,0.5,0.2,1.1,0.2,1.7
		c-0.1-0.2-0.2-0.4-0.2-0.6c0-0.6-0.2-1.8-0.5-2.4c-0.3,0-0.5,0-0.7,0c-0.2-0.1-0.6-0.1-1.1-0.1c-0.1,0.2,0,2.3-0.2,3.5
		c0,0.2,0,0.5,0,0.6c0,0-0.2,0.4-0.1,0.1c0.1-0.1,0.1-0.4,0.2-0.7c0-0.3-0.2-0.7-0.2-0.9c0-0.8-0.3-1.9-0.6-2.6
		c-1.7-0.1-3.8-0.1-4.1,0.1c-0.8,0.4-1.2,1.1-1.9,1.4c-0.3,0.1-1.3-0.2-1.7-0.2c-1,0-4.5,0.6-5.7,1.2c-1-0.1-2,0.5-2.8,0.7
		c-0.6-0.2-1.2-0.4-1.7-0.4c-0.3,0-0.5,0.1-0.8,0.2c-0.4,0-0.8,0.1-1,0.3c-0.1,0.1-0.4,0.3-0.5,0.4c0,0-0.1,0.1-0.1,0.2l0,0
		c-0.4,0.3-0.7,0.7-0.8,1.1c-0.2,0.5-0.2,1-0.2,1.6c0,1,0.8,1.6,1.3,2.4c0.5,0.7,1,1.3,1.7,1.7c0.5,0.3,1.7-0.1,2.1-0.3
		c0.5-0.2,1-0.4,1.6-0.7c0.7-0.4,0.9-1.1,1.1-1.8c0.2-0.4,0.4-1.2,0.4-1.2c0.1-0.1,0.2-0.3,0.4-0.4c0.7-0.1,1.3-0.1,1.5-0.1
		c-0.3,0.8-0.7,1.7-0.6,1.7c0.1,0.1,1-0.6,1.1-0.7c0.3-0.3,1.6-0.6,2.2-0.9c0.1,0,0.2,0,0.3-0.1c0.2-0.1,0.5-0.1,0.7-0.1
		c0.1,0,0.3,0,0.4,0c0,0,0,0,0,0c0.4,0.1,0.8,0.2,1.2,0.3c0.3,0.2,0.7,0.3,1.1,0.6c2-0.2,4-0.4,5.6-0.4c2.3,0,4.4-0.5,6.7-0.5h3
		c0.2,0,0.5,0.4,0.5,0.2v-6c-0.2-0.2-0.3-0.3-0.4-0.4c-0.2-0.1-0.2-0.1-0.2-0.4c0-0.6,0.3-1,0.6-1.4v-0.1v-0.1c0,0,0.1-0.1,0.1-0.1
		c0.1-0.1,0.4-0.1,0.5-0.2c0.1-0.1-0.3-0.4-0.3-0.4c0-0.1-0.2-0.3-0.2-0.4c0,0-0.4-1.8-0.3-1.8c0.3-0.5,0.3-2,0.7-2.4
		c0.2-0.2,0.3-0.7,0.4-0.8c0.3-0.3,0.5-0.6,0.7-0.8c0,0,0.2-0.1,0.2-0.2c0-0.1-0.9,0.5-1,0.5c-0.5,0.2-0.9,0.6-1.3,1c0,0,0,0,0,0
		c-0.2,0.1-0.3,0.2-0.4,0.3c0,0-0.5,0.7-0.5,0.6c0,0,0.2-1.1,0-1.3c-0.7-0.7-1.6-0.6-2.7-0.6c-0.1,0,0.1-0.5,0.2-1.2
		c-0.2-0.1-0.3-0.2-0.5-0.2c-2.4-1.2-4.8-2.5-7.4-3.2c-1.6-0.4-3.3-1.8-4.6-2.6C1004.2,457.3,1002.5,457.3,1001.6,456.4
		C1001.6,456.4,1001.6,456.4,1001.6,456.4L1001.6,456.4z M998.2,500.6C998.2,500.6,998.3,500.6,998.2,500.6
		C998.3,500.5,998.3,500.5,998.2,500.6L998.2,500.6z M1013.9,477.5c0,0.1,0.1,0.1,0.1,0.2c0,0,0,0.1,0,0.1c0.1,0.1,0.1,0.2,0,0.2
		c0,0,0-0.1,0-0.2C1014,477.7,1014,477.6,1013.9,477.5L1013.9,477.5z M993.5,478.6c1.4-0.1,2.1,2.8,1.3,3.5c-0.2,0.2-1.3,1.2-1.7,1
		c-0.3-0.1-0.6-0.2-0.9-0.4c-0.6-0.6-1.5-1.7-1-2.8c0.5-1,1.1-1.2,1.6-1.2C993.1,478.7,993.3,478.7,993.5,478.6L993.5,478.6z"/>
	<path class="st20" d="M1040.3,450.8c0,0-2.8,0.9-3.2,1.3c-1.9,1.9-9.1,4.4-13.6,5.2c0,0,0,0,0,0c-0.3-0.3-1.2,0.2-1.7,0
		c-0.3-0.1-0.5,0-0.7-0.2c-0.8-0.4-1.8-0.6-2.4-1.2c-0.2-0.2-0.6-0.1-0.8-0.3c-0.3-0.3-0.1-0.9-0.4-1.2c-0.3-0.3-0.7-0.6-1-0.9
		c-0.2-0.2-0.7-0.4-0.9-0.1c-0.3,0.7,0.8,1.4,1.2,1.8c0.5,0.5,1.1,0.9,1.8,1.2c0.4,0.2,0.8,0.5,1,0.7c0.1,0.1,0.1,0.1,0.2,0.1
		c0,0,0,0,0,0c0.6,0.7,8.2,1.1,8.5,1.5c0.1,0.1,0,1.1,0,1.3c0,0.9-0.6,6.3-0.9,7c-1.1,2.2,0.8,22.2,1.3,24.7c0.4,1.9,0.4,4,0.1,6
		c0,0,0,0,0,0c-0.1,0.1-0.1,0.2-0.2,0.4c-0.4,1.3-1.9,3.3-3.2,3.9c-0.7,0.3-1.2,1-1.4,1.2c0.4-0.1,2.1-0.2,2.4-0.2
		c0.1,0,0.2,0,0.3,0c-0.3,0.4-0.6,0.7-0.9,1.1c-0.7,0.7-1.3,1.5-1.8,2.2c-0.2,0.2-0.4,0.4-0.5,0.5c-0.3,0.3-0.3,0.6-0.5,0.8
		c0,0,0,0.2,0,0.2c0,0,0,0,0,0c-0.2,0.4-0.4,0.7-0.4,0.7c0.1-0.1,0.1-0.2,0.2-0.3c-0.2,0.5-0.3,1-0.5,1.4c-0.2,0.3-0.1,0.8-0.2,1.1
		c-0.3,0.8-0.2,1.8-0.2,2.7c0,0.2,0.1,0.6,0.2,0.7c0,0,0,0,0,0c-0.1-0.3,0.1-2.1,0.1-2.4c0-0.4,0.5-1.9,0.8-2.2
		c0.2-0.2,0.1-0.8,0.3-1c0.2-0.2,0.2-0.6,0.5-0.9c0.7-0.7,1.3-1.8,2.7-2c1-0.9,2.5-1.8,4-2.6c0.6,0,1.3,0,1.9,0c1.2,0,2.7-0.2,3.9,0
		c0.7,0.1,1.5,0.2,2.2,0.2c0.2,0,3.3,0.2,4.3,0.3c-0.2-0.1-0.5-0.2-0.5-0.2c-0.8-0.4-1.8-0.7-2.7-0.9c-1-0.2-2.7-0.7-4.2-1.2
		c0.5,0,0.9,0,1-0.1c0.1-0.1-1.2-0.2-1.6-0.2c-0.4-0.2-0.8-0.3-1.1-0.5c-0.1-0.1-0.4-0.2-0.5-0.3c0.2-0.1,0.3-0.3,0.4-0.4
		c2.2-2.2,1.7-11.5,5.1-14.9c0.7-0.7-0.8-2.7-1-2.9c0,0-0.1-0.2-0.1-0.4c-0.9-0.8-3.5-2.7-3.5-2.8c0-0.1,0.5,0.3,0.9,0.6
		c0.9,0.4,1.9,0.9,2.5,1.5c0,0,0.1,0,0.1,0c0-0.3,0.1-0.7,0.1-0.8c0-1.3,0-2.8,0-4.4c-0.6,0-1.3,0.1-1.7,0.1c-0.6,0-1.1,0.1-1.1,0.1
		c0-0.2,0.7-0.2,0.8-0.2c0.5-0.3,1.4-0.6,2-0.7c0-0.2,0-0.5,0-0.7c0,0,0,0,0,0c-0.4-0.2-0.6-0.3-1.1-0.3c-0.6,0,0.4-0.3,1.2-0.5
		c0.1-1.8,0.4-3.6,0.8-5c0.3-0.9-0.2-2.2,0-3.2c0.7-3,0-6.2,0.6-9.2c0.2-1.2,0.6-2.6,0.6-3.8C1040,451.9,1040.7,451.2,1040.3,450.8
		L1040.3,450.8z M1042.9,503.6c0.2,0.1,0.4,0.1,0.4,0.1C1043.3,503.7,1043.1,503.6,1042.9,503.6L1042.9,503.6z M1023.9,503.2
		C1023.8,503.2,1023.8,503.2,1023.9,503.2C1023.8,503.3,1023.8,503.2,1023.9,503.2L1023.9,503.2z M1022.1,514.2
		C1022.1,514.3,1022.1,514.3,1022.1,514.2C1022.1,514.3,1022.1,514.3,1022.1,514.2L1022.1,514.2z"/>
	<path class="st20" d="M1048.5,454c-4.7,0.1-9.5,1.4-11.2,4.1c0,0.1,0,0.2,0,0.3l1.4,0.3c-0.5-0.1-1.1,0-1.4-0.2
		c-0.1,1.9-0.3,4.4-0.1,4.6c0.4,0.4,0.7-0.3,1-0.3c0.8,0,2.3-0.7,3.2-1c1.5-0.5,7.3-0.4,8.5,0.6c0.3-0.5,0.6-1,1-1.2
		c0.2-0.1,0.5-0.3,0.7-0.4c0.1-0.1,0.1-0.1,0.2-0.1c0.1,0,0,0.1-0.1,0.1c0,0-0.1,0-0.1,0c-0.4,0.3-1.2,1.4-1.1,1.6
		c0,0,0.7-0.2,0.9-0.2c0.1,0,0.1,0,0.2,0c0.2,0,0.3-0.1,0.4,0c0,0,0,0,0,0c0.1,0,0.2,0,0.3,0c0.3,0,0.6,0,0.8,0.2c0,0,0,0,0,0
		c0.1,0,0.1,0,0.2,0c0.1,0,0.3,0,0.4,0.1c0.2,0,0.3,0,0.4,0.1c0.1,0.1,0.2,0.1,0.2,0.2c0,0,0,0.1-0.1,0.1c0,0,0.2,0.3,0.1,0.3
		c-0.1,0-0.3-0.1-0.3-0.2c-0.3-0.3-1.8,0.2-1.9,0.3c0,0-0.1,0.1-0.1,0.1c0.1,0.1,0.1,0.4,0.2,0.5c0,0,0,0,0,0
		c-0.4,0.1-0.7,0.3-0.8,0.6c-0.1,0.2-0.2,1.3,0,1.5c0,0,1.3,0.3,1.4,0.3c0,0.1-0.1,0.2-0.1,0.3c0,0-0.3,0.6-0.2,0.7
		c0.3,0.3,0.4,0.6,0.7,0.9c0.4,0.4,1.7,0.4,2.4,0.4c0,0,0,0,0,0c0,0.4-2,0.2-2.1,0.2c-0.1,0-0.9-0.2-0.9-0.1
		c0.3,0.5,0.7,0.8,1.2,1.1c0.4,0,0.9,0,1,0.1c0.4,0.4,1.1,0.3,1.9,0.3c3.4,0,4.7-2.1,6-4.8c0.6-1.2-0.3-3-0.6-3.8
		c-1-2-1.7-3.6-3.2-5.1C1057.1,454.9,1052.8,453.9,1048.5,454L1048.5,454z M1037.3,458.5C1037.3,458.5,1037.3,458.5,1037.3,458.5
		l-0.1-0.1C1037.2,458.5,1037.2,458.5,1037.3,458.5L1037.3,458.5z M1037.1,458.4c0-0.1,0.1-0.2,0.2-0.3c0-1.2-0.1-2.1-0.5-1.7
		c-0.2,0.2,0.3,0.3,0.3,0.6C1037.1,457.6,1036.8,458.1,1037.1,458.4L1037.1,458.4z"/>
	<path class="st20" d="M1077.4,448.9c-1.2,0.6-2.4,1.3-2.7,1.8c-0.7,1-2.7,1.9-3.2,3.3c-2.9,8.4-4.9,13.9-12.6,19.1
		c-1.2,0.8-3,0.2-4.2,0.8c1.1,0.1,5.3,0.6,6.1-0.3c0.5-0.7,2.9-2.2,4.8-3.4c-0.2,1-0.1,2.1,0.8,2.9c0.1,0.1,0.4-0.1,0.5,0
		c0.1,0.1,0.2,0.2,0.4,0.2c-0.2,0.9-0.3,1.6-0.4,1.9c-2.4,7.3,2.8,1.6,1.7,4.7c-0.3,0.8,0.2,1.9-0.1,2.7c-1.2,3.7-0.2,7.7-0.1,11.8
		c-0.6,0.8-0.8,7.1-1.4,7.8c-0.2,0.3-0.7,0.7-1,1c-0.5,0.7-1.5,1.4-2.5,1.9c-0.7,0.3-5.2,5.9-6.1,7.1c-0.2,0.3-1.3,1.6-1.1,1.7
		c0.2,0.2,2.1-2,2.6-2.4c0.9-0.8,2.6-1.7,4.1-2.7c0.5-0.1,0.9-0.4,1-0.5c0.1-0.2,0.6-0.1,0.8-0.3c0.3-0.4,1.1-0.5,1.3-0.8
		c0.4-0.6,0.9-1.2,1.1-2.1c0.1-0.1,0.3-0.1,0.4-0.2c0.4-0.6,1.3-1.4,1.4-1.6c0.2-0.3,1.1-0.4,1.3-0.7c0.4-0.5,1.6-0.8,2.1-1.4
		c0,0,1.1-0.4,2.5-0.8c0.4,0.1,0.9-0.1,1.4-0.4c0.3-0.1,0.7-0.2,1-0.3c0.3,0,0.6,0.1,0.8,0.1c0.2,0,2.6,0.4,2.6,0.5
		c0,0.1-0.5-0.5-0.5-0.6c-0.4-0.6-1.1-1.3-1.5-2c-0.3-0.4-0.7-0.9-1-1.3c-0.1-0.2-0.2-0.5-0.2-0.7c0.1-0.8,0.2-1.6,0.3-2.9
		c0-0.2,0-0.4,0.1-0.7c-1.4,0-3.8,0-3.8-0.2c0-0.1,0.2,0,0.3,0c0.4,0,2.2-0.1,3.5-0.2c0.1-1.4,0.1-2.3,0.1-3.2c-1.6,0-4.1,0-4.1-0.3
		c0-0.1,2.4-0.1,4.1-0.1c0-0.4,0-0.8,0-1.3c-1.2,0-2.6,0-3,0c-1.1,0,1.3-0.5,3-0.9c0-0.3,0-0.5,0.1-0.9c0.1-0.8-0.2-1.7-0.1-2.5
		c0.1-1.7,0.6-3.4,0.7-5.1c0.2-2.4,0-4.8,0.1-7.3c0.2,0,0.4,0,0.7,0c0.2,0,0.5,0.2,0.6,0.1c0.3-0.4,0.8-0.8,1.1-1.3
		c0,0,0-3.7-0.2-3.8c-0.5-0.4-1.4-2.9-1-4c0.3-0.8,0.6-6.2,0.5-7.3c-0.1-0.6,0-2.3-0.5-2.7c-0.1,0-0.1-0.1-0.2-0.1c0,0,0,0,0,0
		c0-0.3,0-0.5,0-0.8c0,0,0,0,0,0c-0.1-0.1-0.2-0.2-0.3-0.3c-0.6-0.5-1-1-1.9-1.3C1077.5,448.9,1077.5,448.9,1077.4,448.9
		L1077.4,448.9z"/>
	<path class="st26" d="M1077.5,446.7c-4.4-0.1-7-5.1-4.7-11.8c0.2-0.7,2.3-3.1,2.3-3c0.1,0.1-1.7,3.8-0.9,3.7c0.1,0,1.2-3.2,1.9-4.1
		c0.6-0.7,4.3-7.5,3.7-7.9c-0.2-0.2-0.2,3.9-0.2,3.9c0.5-0.3,2.9-5.5,2.7-6.7c-0.1-0.5,0-1.8,0.2-2.1c0-0.1-0.2-0.9-0.1-0.9
		c0.2,0,0.2,3.5,0.2,3.6c0.4,2.7,0.2,6.8-1.4,7.9c-0.7,0.5-1.5,2.5-1.5,2c-0.1-0.5,1,0,1.3-0.4c0.2-0.2,1.9-2.1,2-2.1
		c0.2,0-0.2,0.5-0.1,0.7c0.2,1.6-4,6-3.8,7.1c0,0.2,3.4-1.8,3.4-1.8c0.1,0.9-1.1,2.7-1.6,3.4c-0.3,0.4-0.7,1.7-0.7,1.2
		c0-0.1,1.3-0.1,1.3-0.2c0.1-0.1,1.4-1.3,1.7-1.1c0.6,0.5,0,3.1-0.4,3.7c-0.2,0.3-0.9,0.3-1.1,0.6c-0.1,0.1-0.2,0.4-0.2,0.3
		c-0.1-0.5,3.9-0.9,2.6,0.8C1082.8,445,1079.9,445.9,1077.5,446.7L1077.5,446.7z"/>
	<path class="st27" d="M1076,445.2c-0.2,0-0.7,0.1-0.6-0.1C1075.4,444.8,1076.2,445.3,1076,445.2c-0.1-0.1-0.8-0.1-1-0.3
		c-0.3-0.2-0.5-0.6-0.8-0.9c-0.2-0.1,0.1-0.8-0.1-0.9c-0.6-1.1-2-4.2-0.9-5.3c0.2-0.3,0-1.4,0.2-1.4c0.1,0,0.6,1.4,0.7,1.5
		c0,0,0.5,0,0.5,0c0.2-0.2,0.2-1,0.4-1.3c0.8-0.9,1.2-2.4,2-3.3c1-1.1,1-2.4,1.7-3.3c0.1-0.1-0.1-0.3,0-0.3c0.1,0-0.4,1.3-0.4,1.3
		c-0.3,0.8-1.2,3.1-1.2,3.6c0,0.2-0.2,0.5-0.1,0.5c0.3,0.3,1.6-1.8,2-1.9c0,0-0.7,1.2-0.7,1.3c-0.2,0.4-1.9,4.7-1.4,5.2
		c0.1,0.1,2.3-2.1,2.3-1.9c0,0.4-1.6,3.8-1.2,4.2c0.2,0.1,3-1.8,3.2-1.6c0.2,0.2-1.9,2.1-1.6,2.3c0.4,0.3,1.3-0.2,1.8,0.2
		c1,0.9-2.9,2.5-3.7,2.6C1077.4,445.4,1076.3,445.2,1076,445.2L1076,445.2z"/>
	<path class="st20" d="M1111.8,419.1c-1.4,0-2.9,0.4-4.8,1c0,0,0,0,0,0c-2.8,0.3-5.9,1.1-7.9,2.4c-0.8,0.1-2.2,1-3.3,1.9
		c0,0,0,0-0.1,0.1c-0.3,0.2-0.6,0.5-1.1,0.8c-0.3,0.2-0.3,0.5-0.6,0.7c-2.7,1.8-3.6,5.1-4.4,8c-0.1,0.5,0.1,1.2-0.1,1.7
		c-0.2,0.6-0.2,1.7,0,2.4c0.2,0.5,0.4,1.1,0.6,1.6c0.2,0.7,0.4,1.3,0.7,1.9c0,0.1,0.6,0.7,0.4,0.7c-0.1,0,0.4-0.1,0.6,0
		c0.1,0.1,0.3,0.1,0.4,0c0.3-0.3,0-0.9-0.1-1.2c-0.2-0.3-0.9,0.1-1,0c-0.1-0.1-1.5-4.7-0.9-5.3c0.3-0.3-0.1-1.2,0.2-1.5
		c0.5-0.5,0.7-3.1,1.3-3.7c0.7-0.7,1-1.5,1.7-2.1c0.4-0.4,0.8-0.7,1.1-0.9c0.1,0.3,0.1,0.7,0.4,0.9c0.7,0.7,2.5,0,3.6-0.6
		c0.1,0,0.1,0,0.2,0c-0.2,0.3-0.3,0.6-0.6,0.8c-0.2,0.2-0.3,1.2-0.6,1.5c-0.1,0.1-0.3,1.7-0.7,2c0,0-0.1,0.4-0.2,0.8
		c0.3,0.3,1,0.9,1.4,1.1c0.2,0,0.4,0,0.4,0.1c0,0.1-0.2,0-0.4-0.1c-0.2,0-0.3,0-0.4,0c-0.2-0.1-1.2-0.4-1.3-0.2l0,0
		c-0.1,0.2-0.2,1-0.4,1.6c0.4,0.4,1,0.8,1.2,0.9c0.1,0,0.3,0.2,0.5,0.3c0.2,0.1,0.4,0.1,0.4,0.2c0,0-0.2-0.1-0.4-0.2
		c-0.6-0.1-1.6-0.3-2.2-0.9c0,0,0,0,0,0c-0.3-0.1-0.6-0.3-1.1-0.5c-0.3,1.3-0.4,2.7-0.2,4c0.6,3.1-0.5,6.5,0.4,9.4
		c0.5,1.5,0.7,3.2,1.1,4.7c0.6,2.6,1.9,5,2.7,7.4c0.5,1.4,0.6,3.6,0.5,5.5c-0.7,0.7-1.4,1.5-1.8,2.4c0,0.1-0.1,0.2-0.1,0.3
		c-2.4,0-4.8-0.1-7.2-0.3l-0.6,0.8c-0.1,0-0.1,0-0.2,0c-0.4,0.4-0.4,2.6,0,3c0.4,0.4,3-0.2,3.6-0.2c1.4,0,3.1,0,4.6-0.2
		c0.4,1,0.9,1.7,1.6,2.3c0.1,0.9,0,1.8-0.3,2.6c-0.8,2.3-0.4,4.9-1.1,7.2c-0.6,1.8-1.4,3.5-2,5.4c-0.6,1.8-1.2,4.2-2.2,5.8
		c-1.2,1.9-2.8,3.8-3.8,5.8c-0.7,1.4-2.3,2.5-3.1,3.8c-1.4,2-2.2,3.6-3.8,5.2c-0.9,0.9-3.5,4.3-4,5.4c-0.4,0.7-1.1,1.4-1.1,2.2
		c0.6-0.6,2.3-1.8,2.7-2.4c1.8-2.6,3.9-3.9,6.1-6.1c0.7-0.7,2.2-1,2.9-1.8c1.5-1.5,3.4-3.4,5.8-4.3c1.4-0.5,2.9-0.7,4.3-1.3
		c0.7-0.4,3.8-0.2,4.3-0.7c0.2-0.2-0.6-0.9-1.5-1.9c-0.4,0-0.7,0.1-1,0.2c-0.5,0.3-2,0.7-2,0.7c-0.3-0.3,1.5-1,2.5-1.5
		c-0.6-0.7-1.1-1.4-1.3-2c-0.9,0.3-2.1,1-2.1,1.1c-0.2,0.2-0.6,0.4-0.9,0.6c-0.1,0.2-0.3,0.4-0.5,0.4c-0.1,0,0.1-0.1,0.1-0.1
		c0.1-0.1,0.2-0.2,0.4-0.3c0.1-0.1,0.2-0.3,0.2-0.3c0.6-0.6,1.4-0.9,2-1.5l0.7-0.7c0,0,0,0,0,0c0-0.2,0.1-0.4,0.3-0.5
		c0.7-0.7,0.1-3.1,0.9-3.8c0.8-0.8,0.8-2.4,1.6-3.1c2.1-2.1,2.7-5.4,4.3-8.5c0.4-0.9,0-2.3,0.4-3.1c0.3-0.6,0.2-1.3,0.2-1.9
		c0.4-0.2,1-0.4,1.3-0.7c0.8-0.8,1.2-1.8,1.2-2.9c2.4-0.2,5.6,0.2,7.3,0.2c0.4,0,1.2-0.1,2.1-0.2c0,1.2,0.2,2.3,0.4,3
		c0.2,0.7,0.3,1.6,0.3,2.4c0,0.4,0.2,0.8,0.2,1c0-0.2,0.2-1.2,0.2-1.3c0-1.1,0.3-2.5,0.3-3.7c0-0.5,0-1,0-1.5c0,0,0,0,0,0
		c-0.1-0.1-0.1-0.2-0.2-0.3c-0.2-0.3-0.6-0.5-0.9-0.7c0.3,0,0.6-0.1,0.6-0.1c0.1-0.1,0.4-0.1,0.7-0.1c0.1,0,0.3-0.1,0.3-0.1
		c0.2,0.2,0.3,1.1,0.4,1.2c0.2,0.2,1.6-0.5,1.9-0.7c0.6-0.3,2.9-0.2,3.1-0.4c0.2-0.2-0.5-0.1-0.6-0.1c-0.3-0.3-1-0.2-1.5-0.4
		c-0.4-0.2-2.3-1-2.5-1c-0.4,0-0.9,0.7-1,0.9c0,0-0.6-0.1-1.1-0.2c0.1-0.1,0.3-0.3,0.4-0.3c0.1-0.1,0.3-0.3,0.4-0.4c0,0-0.1,0-0.1,0
		c0-1.9-0.1-3.9-1-5.3c-0.2,0.5-0.5,2.9-0.6,5.4c-3.3,0-6.7,0.2-10.1,0.4c-0.4-0.8-1-1.7-1.7-2.3c-0.7-3.4-1.9-6.8-2.7-8.3
		c-0.5-0.9-0.4-2.2-0.9-3.1c-2.5-5-6.4-10.3-3.4-16.4c0.4-0.8,0.3-2.3,0.9-2.9c1.3-1.3,2.2-3,4.3-4c1.4-0.7,2.8-2.2,4.3-2.2
		c0.9,0,2.6-0.7,3.6-0.2c2.1,1,4.1,2.1,5.4,3.4c0.5,0.5,0.6,1.8,0.9,2.5c0.7,1.5-0.4,6.3,0.4,8.1c0.1,0.2,0.2,0.5,0.2,0.8
		c-0.1,0-0.2,0-0.4,0c0.4,0.3,0.8,0.6,1,0.8c0,0,0.1,0,0.2,0c0,0-0.1,0.1-0.1,0.1c-0.3,0.1-0.5,0.2-0.6,0.3
		c-0.5-0.5-0.9-0.7-1.3-0.7c-0.7,0-1.3,0.5-1.9,1.1c-0.8,0.8-1.3,3-1.3,4.4c0,0.4,0,2.8-0.1,2.9c-0.2,0.2-0.3,2.3-0.6,2.6
		c-0.2,0.2-0.7,1.4-0.7,1.5c0,0.1,0.5-0.8,1.2-1.1c0.5-0.2,0.9-0.6,1.4-1.1c0.4-0.3,0.7-0.7,0.7-0.7c1.3-1.3,3.4-2.7,4.7-4
		c0.8-0.8,0.7-1.9,1.2-2.9c0.1-0.2-0.1-0.6,0-0.8c0.6-1.2-0.2-1.7-1.1-1.7c0.9-1.8,1.1-4.3,1.4-6.2c0.1-0.3,0-4.1-0.9-6.7
		c-1-2.9-1.1-6.8-4-8.7C1116.2,420,1114.1,419.1,1111.8,419.1L1111.8,419.1z M1120.4,477.2c0,0,0,0.1,0,0.1
		C1120.4,477.3,1120.4,477.3,1120.4,477.2L1120.4,477.2z M1077.2,517.4c-0.1,0.1-0.2,0.3-0.2,0.3
		C1077,517.8,1077.2,517.6,1077.2,517.4C1077.2,517.4,1077.2,517.4,1077.2,517.4L1077.2,517.4z M1103.3,465.9
		C1103.3,465.9,1103.3,465.9,1103.3,465.9c0.3,0.3,1.6,1,2,1.2c0.5,0.2,1.2,0.9,1.4,1.2c0,0,0,0.2,0,0.2v2.2c0,0.2,0.3,1.2,0.1,1.3
		c-0.4,0.4-1.6,1.2-2.3,1.5c-0.2,0.1-1.9,1.2-2.1,1c-0.4-0.4-0.9-0.9-1.5-1.6c-0.3-0.3-1.2-1.2-1.4-1.3c-0.1-0.1,0-3.2,0.1-3.6
		c0.7-0.9,1.7-1,2.3-1.5C1102,466.5,1103,465.9,1103.3,465.9L1103.3,465.9z"/>
	<path class="st20" d="M1089.4,464.2c-1.8,0.7-2.8,2.4-3.2,4.4c-0.3,0-0.6,0.1-1,0.2c-0.1,0.6-0.2,1,0,1.3c0,0,0.4,0,0.8,0
		c0,0.4,0,0.7,0,1.1c-0.3,0-0.7,0.1-1,0.3c0,0.5,0.1,1.2,0.3,1.2c0,0,0.5-0.1,0.8-0.3c0.2,1.1,0.6,2.2,1.2,2.9
		c0.3,0.4,1.3,1.8,1.9,1.4c-0.6-1-1.2-1.8-1.7-3c-0.1-0.3-0.2-0.9-0.2-1.7c0.3-0.1,0.7-0.2,0.7-0.2c0.3-0.2,2.1,0.3,2.1-0.2
		c0-0.3,0.1-1,0.1-1.2c0-0.2-0.3,0.2-0.4,0.2c-0.2,0-1.1-0.2-1.2,0c-0.2,0.3-0.8,0.5-1.3,0.5c0-0.4,0-0.9,0.1-1.3
		c0.8-0.1,1.6-0.3,1.9-0.3c0.2,0,0.9,0.2,1,0c0.2-0.3-0.2,0-0.1-0.4c0.1-0.2,0.2-0.3,0.2-0.6c0-0.2-0.2,0.2-0.3,0.2h-1.7
		c-0.3,0-0.6-0.1-0.8-0.1c0.1-0.6,0.2-1.1,0.4-1.3c0.1-0.2,0-0.5,0.1-0.7C1088.8,465.8,1089,465.1,1089.4,464.2L1089.4,464.2z"/>
	<path class="st20" d="M1100.4,470c0.1-0.4,0.9-2.3,1.1-2.3c0.2,0,0.6,0,0.9,0c0.5-0.1,0.9-0.3,1.4-0.2c0,0,1.7,2.4,1.7,2.4
		c0,0-0.5,1-0.6,1.2c-0.2,0.5-0.3,1-0.4,1.5c0,0.1-0.7-0.1-0.8-0.1c-0.7-0.1-1.3,0.3-1.9,0.2C1101.8,472.6,1100.8,470.6,1100.4,470
		L1100.4,470z"/>
	<path class="st20" d="M1130.6,435c0,0,0,0.1,0,0.3C1130.7,435.1,1130.7,435,1130.6,435L1130.6,435z M1130.6,435.3
		c0,0.2-0.1,0.6-0.2,1c0.1-0.1,0.1-0.3,0.2-0.4C1130.7,435.9,1130.6,435.5,1130.6,435.3L1130.6,435.3z M1130.4,436.3
		c-0.3,0.7-0.4,1.9-0.4,2.5c0,1.2-2.2,8.6-3,9.5c0,0,0-0.3,0-0.3c-0.2,0-0.1,0.2-0.1,0.4c-0.5,0.5-1.1,1.3-1.5,2
		c-0.9,0.8-1.8,1.6-2.8,2.6c-0.2,0.2-0.7,0.2-1,0.5c-0.2,0.2,1,3.2,1.1,3.3c0,0,0,0,0,0c1.3-0.6,3.1-1.8,3.1-1.8
		c0.1,0.1-0.7,0.9-0.8,1c-0.5,0.5-0.7,1.6-1.1,2.1c-0.1,0.1,0,0.8,0,1.6c1.2,2.9,3,6.4,4.5,9c1.1,0.2,2.3,0.4,2.6,0.3
		c-0.2,0.1-0.5,0.4-0.6,0.4c-0.1,0.1-0.7,0-0.8,0.2c-0.1,0.1-0.3,0.2-0.5,0.4c0.9,1.5,1.5,2.6,1.7,2.7c3.5,1.8-3.5,6.3-1.7,7.2
		c1.5,0.8,10.1,2.5,10.6,4c0.4,1.3-13.5,19-15.4,22.8c-0.8,1.6-8.3,13.9-7.9,15.1c0,0.1,2.3-3.1,2.9-3.6c3.1-3,5.8-4.4,8.9-7.5
		c1.8-1.8,4.6-3.2,6-3.8c-1.3,0.7-2.5,2-2.9,2.8c-1,1.9-3.5,3.4-5.1,4.9c-4.7,4.5-7.6,10.8-10.3,15.9c-0.3,0.6-3.3,5.8-1.1,7
		c5.7,3,10.2-0.3,13-7.4c-0.9,1.7-2.5,2-3.1,3c-1,1.9-7.6,2.7-7.2,0.3c1.4-8.8,17.5-23.6,26.4-32.2c0.9-0.9,6.2-4.1,6.5-4.7
		c0.1-0.2,0-0.6,0-0.9c-1.2,0.8-3.7,2.1-4.9,2.5c-1.2,0.4-12,6.3-12.1,5.8c-0.2-0.7,0.9-1.2,1.4-1.8c3.7-3.6,6.9-11,11.7-15.6
		c6.2-6,11.3-18.6,15.9-26.8c-0.8-0.2-1.7-0.3-1.5-0.5c0.1-0.1,1.1-0.2,2-0.4c0.2-0.4,0.5-0.8,0.7-1.1c-0.3,0-0.6,0-0.7,0h-1
		c0.3-0.1,0.9-0.2,0.9-0.2c0.2,0,0.6,0,1-0.1c0.4-0.6,0.8-1.2,1.2-1.8c-0.8-0.6-1.9,0.2-3,0.2c0,0-0.1,0-0.1,0c-0.1,0-0.1,0.1-0.1,0
		c0-0.1,0.1,0,0.1,0c0.3-0.1,0.9-0.5,1.5-0.5c0.4,0,1.3-0.2,2.1-0.4c0,0,0.1-0.1,0.1-0.1c1.2-0.6,3.4-1.7,3.5-1.8
		c0.4-0.4,1.7-2.6,1.9-3c0.2-0.5,0.8-0.9,1.1-1.3c0.6-0.9,1.2-1.7,1.7-2.6c0.4-0.7,1.2-3.6,1.5-3.9c0.1-0.1,0.8-1.8,0.7-1.9
		c-0.3-0.3-4.9-0.8-5.6-0.4c-0.3,0.2-2.1,0.8-2.4,0.8c-0.1,0-1.2,0.6-1.2,0.7c0,0.1,0.5-0.2,0.6-0.2c0.2-0.2,0.8,0,1-0.2
		c0.4-0.4,3.4-0.2,3.7,0.1c0.1,0.1,0.3,0.1,0.4,0.2c0.4,0.4-0.2,1.4-0.7,2c-0.6,0-1.3,0.1-1.7,0.2c-4.8,1.5-11.3,1.3-13.5,5.6
		c-2.8,5.3-2.2,14.8-3.7,17.8c-1.1,2.2-3.6,0.9-4.4,0.3c0.1,0.9-1.2,4.6-1.3,4.8c-0.7,1.3-3,8.3-3.3,8.4c-1.2,0.4-8.8-13.6-11-15.8
		c-0.8-0.8-0.2-5.1-1.1-5.6c-1.5-0.8,0.6-7.5-0.9-7c-0.7,0.2-1.9,0.5-3.1,0.8c-0.1-0.3-0.2-0.6-0.3-0.8c-0.1-0.1-0.2-1-0.3-1.8
		c0.2-0.3,0.3-0.6,0.4-0.7c0.1-0.1,0.2-0.1,0.3-0.2c0,0.1,0,0.1,0.1,0.2c0.1,0.1,0.3,0.2,0.5,0.3c0.7,0.7,2.9-0.8,3-1
		c0.4-0.4-0.7-1.8-0.8-1.9c-0.1-0.1,0.1-0.5,0-0.6c-0.9-0.9-0.5-3.1-0.5-4.7c0-1.4,0.2-2.5,0.2-3.7
		C1130.3,437,1130.4,436.6,1130.4,436.3L1130.4,436.3z M1148.4,466.8c0-0.2-0.1-0.3-0.2-0.2C1148.1,466.6,1148.3,466.7,1148.4,466.8
		L1148.4,466.8z M1150.3,495.6c0.6-0.4,0.9-0.7,0.2-0.5C1150.3,495.2,1150.3,495.4,1150.3,495.6L1150.3,495.6z M1127.6,530.2
		c0.4-0.8-2.7,0.6-2.2,1.4S1126.9,530.6,1127.6,530.2L1127.6,530.2z M1161.6,457.6c0,0,0.1,0,0.2,0
		C1161.7,457.6,1161.6,457.7,1161.6,457.6C1161.6,457.6,1161.6,457.6,1161.6,457.6L1161.6,457.6z M1131.1,469
		C1131.1,469,1131.1,469,1131.1,469C1131.1,469,1131.1,469.1,1131.1,469C1131.1,469.1,1131.1,469,1131.1,469L1131.1,469z"/>
</g>
<text transform="matrix(1 0 0 1 677.9996 458.5444)" class="st5 st28 st29">with</text>
</svg>
