<?xml version="1.0" encoding="utf-8"?>
<!-- Generator: Adobe Illustrator 19.1.0, SVG Export Plug-In . SVG Version: 6.00 Build 0)  -->
<svg version="1.1" id="Layer_1" xmlns="http://www.w3.org/2000/svg" xmlns:xlink="http://www.w3.org/1999/xlink" x="0px" y="0px"
	 width="1280px" height="720px" viewBox="0 0 1280 720" style="enable-background:new 0 0 1280 720;" xml:space="preserve">
<style type="text/css">
	.st0{fill:#FF1AE9;}
	.st1{font-family:'OpenSans-Bold';}
	.st2{font-size:30px;}
	.st3{font-size:41.7739px;}
	.st4{fill:#00659B;}
	.st5{font-size:29.1392px;}
	.st6{font-size:22px;}
	.st7{font-size:25.8998px;}
	.st8{fill:#8CBC1A;}
	.st9{fill:#F98700;}
	.st10{fill:#CC0000;}
	.st11{fill:#323133;}
	.st12{fill:#F7AA0A;}
	.st13{fill:none;stroke:#323133;stroke-width:4;stroke-miterlimit:10;}
	.st14{opacity:0.62;}
	.st15{fill:url(#SVGID_1_);}
	.st16{fill:url(#SVGID_2_);}
	.st17{fill:#BE0006;}
	.st18{fill:url(#SVGID_3_);}
	.st19{fill:#0098CE;}
	.st20{fill:#FDC400;}
	.st21{fill:#F5F4F5;}
	.st22{fill:#645E64;}
	.st23{fill:#F7AA0A;stroke:#FFFFFF;stroke-opacity:0;}
	.st24{fill:#F7AA0A;stroke:#FFFFFF;stroke-width:1.0262;stroke-opacity:0;}
	.st25{fill:#F7AA0A;stroke:#FFFFFF;stroke-width:0.9083;stroke-opacity:0;}
	.st26{fill:#F7AA0A;stroke:#FFFFFF;stroke-width:1.0762;stroke-opacity:0;}
	.st27{fill:#F7AA0A;stroke:#FFFFFF;stroke-width:1.1129;stroke-opacity:0;}
	.st28{fill:#F7AA0A;stroke:#FFFFFF;stroke-width:1.1103;stroke-opacity:0;}
	.st29{fill:#5A8CE6;stroke:#FFFFFF;stroke-opacity:0;}
	.st30{fill:#C8DCEB;stroke:#FFFFFF;stroke-opacity:0;}
	.st31{fill:url(#SVGID_4_);}
	.st32{fill:url(#SVGID_5_);}
	.st33{fill:#FFFFFF;stroke:#000000;stroke-miterlimit:10;}
	.st34{fill:#FFFFFF;stroke:#F7AA0A;stroke-miterlimit:10;}
</style>
<g>
	<path class="st0" d="M391.6,191.2c1.2,1.2,2.2,2.7,3,4.7c0.8,2,1.2,3.8,1.2,5.5v71.8c0,1.7-0.6,3.1-1.7,4.2
		c-1.2,1.2-2.6,1.7-4.2,1.7H306c-1.7,0-3.1-0.6-4.2-1.7c-1.2-1.2-1.7-2.6-1.7-4.2v-99.8c0-1.7,0.6-3.1,1.7-4.2
		c1.2-1.2,2.6-1.7,4.2-1.7h55.9c1.7,0,3.5,0.4,5.5,1.2c2,0.8,3.6,1.8,4.7,3L391.6,191.2z M387.8,271.3v-63.9h-25.9
		c-1.7,0-3.1-0.6-4.2-1.7c-1.2-1.2-1.7-2.6-1.7-4.2v-25.9H308v95.8H387.8z M363.9,176v23.4h23.4c-0.4-1.2-0.9-2.1-1.4-2.6
		l-19.5-19.5C365.9,176.9,365.1,176.4,363.9,176z"/>
</g>
<text transform="matrix(1 0 0 1 291.0153 143.3065)" class="st0 st1 st2">entry.js</text>
<text transform="matrix(1 0 0 1 328.3213 244.5892)" class="st0 st1 st3">( )</text>
<g>
	<path class="st4" d="M233.4,484.9c1.2,1.2,2.2,2.7,3,4.7c0.8,2,1.2,3.8,1.2,5.5V567c0,1.7-0.6,3.1-1.7,4.2
		c-1.2,1.2-2.6,1.7-4.2,1.7h-83.8c-1.7,0-3.1-0.6-4.2-1.7c-1.2-1.2-1.7-2.6-1.7-4.2v-99.8c0-1.7,0.6-3.1,1.7-4.2
		c1.2-1.2,2.6-1.7,4.2-1.7h55.9c1.7,0,3.5,0.4,5.5,1.2c2,0.8,3.6,1.8,4.7,3L233.4,484.9z M229.7,565v-63.9h-25.9
		c-1.7,0-3.1-0.6-4.2-1.7c-1.2-1.2-1.7-2.6-1.7-4.2v-25.9h-47.9V565H229.7z M205.8,469.7v23.4h23.4c-0.4-1.2-0.9-2.1-1.4-2.6
		l-19.5-19.5C207.8,470.6,207,470.1,205.8,469.7z"/>
</g>
<text transform="matrix(1 0 0 1 136.847 427.9932)" class="st4 st1 st5">depA.js</text>
<text transform="matrix(1 0 0 1 167.9036 538.2759)" class="st4 st1 st3">{ }</text>
<path class="st0" d="M521.2,225.3c-0.6-1.4-1.2-2.5-2-3.3L507.1,210c-0.8-0.8-1.9-1.5-3.3-2.1c-1.4-0.6-2.6-0.9-3.8-0.9h-34.6
	c-1.3,0-2.7,0.5-3.7,1.4c-0.9,0.9-1.7,2.1-1.7,3.4v61.9c0,1.3,0.8,2.3,1.7,3.2c0.9,0.9,2.4,1.2,3.7,1.2h52c1.3,0,2.4-0.3,3.3-1.2
	c0.9-0.9,1.4-1.9,1.4-3.2v-44.5C522,227.9,521.7,226.7,521.2,225.3z M502,215l12.1,12H502V215z M496.5,232.5
	c0.9,0.9,2.2,1.5,3.5,1.5h15v37h-48v-57h28v15.1C495,230.4,495.6,231.6,496.5,232.5z"/>
<text transform="matrix(1 0 0 1 449.2019 187.463)" class="st0 st1 st6">entry.js</text>
<text transform="matrix(1 0 0 1 480.7139 255.838)" class="st0 st1 st7">{}</text>
<g>
	<path class="st8" d="M456.9,484.9c1.2,1.2,2.2,2.7,3,4.7c0.8,2,1.2,3.8,1.2,5.5V567c0,1.7-0.6,3.1-1.7,4.2
		c-1.2,1.2-2.6,1.7-4.2,1.7h-83.8c-1.7,0-3.1-0.6-4.2-1.7c-1.2-1.2-1.7-2.6-1.7-4.2v-99.8c0-1.7,0.6-3.1,1.7-4.2
		c1.2-1.2,2.6-1.7,4.2-1.7h55.9c1.7,0,3.5,0.4,5.5,1.2c2,0.8,3.6,1.8,4.7,3L456.9,484.9z M453.1,565v-63.9h-25.9
		c-1.7,0-3.1-0.6-4.2-1.7c-1.2-1.2-1.7-2.6-1.7-4.2v-25.9h-47.9V565H453.1z M429.2,469.7v23.4h23.4c-0.4-1.2-0.9-2.1-1.4-2.6
		l-19.5-19.5C431.3,470.6,430.4,470.1,429.2,469.7z"/>
</g>
<text transform="matrix(1 0 0 1 338.9465 427.9933)" class="st8 st1 st5">depT.html</text>
<text transform="matrix(1 0 0 1 380.7657 543.276)" class="st8 st1 st3">&lt;/&gt;</text>
<g>
	<path class="st9" d="M647.6,484.9c1.2,1.2,2.2,2.7,3,4.7c0.8,2,1.2,3.8,1.2,5.5V567c0,1.7-0.6,3.1-1.7,4.2
		c-1.2,1.2-2.6,1.7-4.2,1.7H562c-1.7,0-3.1-0.6-4.2-1.7c-1.2-1.2-1.7-2.6-1.7-4.2v-99.8c0-1.7,0.6-3.1,1.7-4.2
		c1.2-1.2,2.6-1.7,4.2-1.7h55.9c1.7,0,3.5,0.4,5.5,1.2c2,0.8,3.6,1.8,4.7,3L647.6,484.9z M643.8,565v-63.9h-25.9
		c-1.7,0-3.1-0.6-4.2-1.7c-1.2-1.2-1.7-2.6-1.7-4.2v-25.9H564V565H643.8z M619.9,469.7v23.4h23.4c-0.4-1.2-0.9-2.1-1.4-2.6
		l-19.5-19.5C621.9,470.6,621.1,470.1,619.9,469.7z"/>
</g>
<text transform="matrix(1 0 0 1 537.2252 427.9934)" class="st9 st1 st5">depT.yml</text>
<text transform="matrix(1 0 0 1 593.4617 543.2761)" class="st9 st1 st3">–</text>
<g>
	<path class="st10" d="M923,484.9c1.2,1.2,2.2,2.7,3,4.7c0.8,2,1.2,3.8,1.2,5.5V567c0,1.7-0.6,3.1-1.7,4.2c-1.2,1.2-2.6,1.7-4.2,1.7
		h-83.8c-1.7,0-3.1-0.6-4.2-1.7c-1.2-1.2-1.7-2.6-1.7-4.2v-99.8c0-1.7,0.6-3.1,1.7-4.2c1.2-1.2,2.6-1.7,4.2-1.7h55.9
		c1.7,0,3.5,0.4,5.5,1.2c2,0.8,3.6,1.8,4.7,3L923,484.9z M919.3,565v-63.9h-25.9c-1.7,0-3.1-0.6-4.2-1.7c-1.2-1.2-1.7-2.6-1.7-4.2
		v-25.9h-47.9V565H919.3z M895.3,469.7v23.4h23.4c-0.4-1.2-0.9-2.1-1.4-2.6l-19.5-19.5C897.4,470.6,896.5,470.1,895.3,469.7z"/>
</g>
<text transform="matrix(1 0 0 1 794.7034 427.9935)" class="st10 st1 st5">depT.coffee</text>
<rect x="610" y="57" class="st4" width="75.8" height="75.8"/>
<rect x="713.1" y="57" class="st19" width="75.8" height="75.8"/>
<rect x="713.1" y="147.1" class="st20" width="75.8" height="75.8"/>
<rect x="610" y="147.1" class="st12" width="75.8" height="75.8"/>
<rect x="811" y="57" class="st17" width="75.8" height="75.8"/>
<rect x="914.1" y="57" class="st21" width="75.8" height="75.8"/>
<rect x="914.1" y="147.1" class="st22" width="75.8" height="75.8"/>
<rect x="811" y="147.1" class="st11" width="75.8" height="75.8"/>
</svg>
