<?xml version="1.0" encoding="utf-8"?>
<!-- Generator: Adobe Illustrator 19.1.0, SVG Export Plug-In . SVG Version: 6.00 Build 0)  -->
<svg version="1.1" id="Layer_1" xmlns="http://www.w3.org/2000/svg" xmlns:xlink="http://www.w3.org/1999/xlink" x="0px" y="0px"
	 width="1280px" height="720px" viewBox="0 0 1280 720" style="enable-background:new 0 0 1280 720;" xml:space="preserve">
<style type="text/css">
	.st0{fill:#FF1AE9;}
	.st1{fill:#00659B;}
	.st2{fill:#8CBC1A;}
	.st3{fill:#F98700;}
	.st4{fill:#CC0000;}
	.st5{fill:#323133;}
	.st6{fill:#F7AA0A;}
	.st7{fill:none;stroke:#323133;stroke-width:4;stroke-miterlimit:10;}
	.st8{opacity:0.62;}
	.st9{fill:url(#SVGID_1_);}
	.st10{fill:url(#SVGID_2_);}
	.st11{fill:#BE0006;}
	.st12{font-family:'Roboto-Bold';}
	.st13{font-size:34.3482px;}
	.st14{font-family:'OpenSans-Bold';}
	.st15{font-size:47.8285px;}
	.st16{font-size:25.1887px;}
	.st17{font-size:29.6537px;}
	.st18{fill:url(#SVGID_3_);}
	.st19{fill:#0098CE;}
	.st20{fill:#FDC400;}
	.st21{fill:#F5F4F5;}
	.st22{fill:#645E64;}
	.st23{fill:#F7AA0A;stroke:#FFFFFF;stroke-opacity:0;}
	.st24{fill:#F7AA0A;stroke:#FFFFFF;stroke-width:1.0262;stroke-opacity:0;}
	.st25{fill:#F7AA0A;stroke:#FFFFFF;stroke-width:0.9083;stroke-opacity:0;}
	.st26{fill:#F7AA0A;stroke:#FFFFFF;stroke-width:1.0762;stroke-opacity:0;}
	.st27{fill:#F7AA0A;stroke:#FFFFFF;stroke-width:1.1129;stroke-opacity:0;}
	.st28{fill:#F7AA0A;stroke:#FFFFFF;stroke-width:1.1103;stroke-opacity:0;}
	.st29{fill:#5A8CE6;stroke:#FFFFFF;stroke-opacity:0;}
	.st30{fill:#C8DCEB;stroke:#FFFFFF;stroke-opacity:0;}
	.st31{fill:url(#SVGID_4_);}
	.st32{fill:url(#SVGID_5_);}
	.st33{fill:#FFFFFF;stroke:#000000;stroke-miterlimit:10;}
	.st34{fill:#FFFFFF;stroke:#F7AA0A;stroke-miterlimit:10;}
</style>
<g>
	<path class="st5" d="M442.1,159.9c1.3,1.3,2.5,3.1,3.4,5.4c1,2.3,1.4,4.4,1.4,6.3v82.3c0,1.9-0.7,3.5-2,4.9c-1.3,1.3-3,2-4.9,2h-96
		c-1.9,0-3.5-0.7-4.9-2c-1.3-1.3-2-3-2-4.9V139.6c0-1.9,0.7-3.5,2-4.9c1.3-1.3,3-2,4.9-2h64c1.9,0,4,0.5,6.3,1.4
		c2.3,1,4.1,2.1,5.4,3.4L442.1,159.9z M437.8,251.6v-73.1h-29.7c-1.9,0-3.5-0.7-4.9-2c-1.3-1.3-2-3-2-4.9v-29.7h-54.8v109.7H437.8z
		 M410.4,142.5v26.8h26.8c-0.5-1.4-1-2.4-1.6-2.9L413.3,144C412.7,143.5,411.8,142.9,410.4,142.5z"/>
</g>
<text transform="matrix(1 0 0 1 319.5625 105.0327)" class="st11 st12 st13">entry.es6</text>
<text transform="matrix(1 0 0 1 373.2607 220.9946)" class="st5 st14 st15">{}</text>
<path class="st5" d="M318.7,381.1c-0.6-1.5-1.6-2.8-2.5-3.7l-13.9-13.8c-0.9-0.9-2.2-1.8-3.8-2.5c-1.6-0.6-3.1-1.1-4.4-1.1h-39.7
	c-1.5,0-3.3,0.6-4.4,1.7c-1,1-2.1,2.4-2.1,3.9v70.8c0,1.5,1.1,2.4,2.1,3.4c1,1,2.9,1.2,4.4,1.2H314c1.5,0,3.1-0.1,4.1-1.2
	c1-1,1.9-1.9,1.9-3.4v-51C320,384.1,319.4,382.6,318.7,381.1z M295,369.3l15.3,13.7H295V369.3z M290,388.8c1,1,2.7,1.2,4.2,1.2H311
	v44h-55v-66h32v17.4C288,386.9,288.9,387.8,290,388.8z"/>
<text transform="matrix(1 0 0 1 224.8633 337.7554)" class="st11 st12 st16">depA.es6</text>
<text transform="matrix(1 0 0 1 272.1299 416.041)" class="st5 st14 st17">{}</text>
<path class="st5" d="M539,381.1c-0.6-1.5-1.4-2.8-2.4-3.7l-13.8-13.8c-0.9-0.9-2.2-1.8-3.7-2.5c-1.6-0.6-3-1.1-4.3-1.1h-39.7
	c-1.5,0-3.1,0.6-4.2,1.7c-1,1-1.9,2.4-1.9,3.9v70.8c0,1.5,0.9,2.4,1.9,3.4c1,1,2.7,1.2,4.2,1.2h59.5c1.5,0,2.8-0.1,3.8-1.2
	c1-1,1.6-1.9,1.6-3.4v-51C540,384.1,539.6,382.6,539,381.1z M517,369.3l13.9,13.7H517V369.3z M510.7,388.8c1,1,2.5,1.2,4,1.2H532v44
	h-55v-66h32v17.4C509,386.9,509.7,387.8,510.7,388.8z"/>
<text transform="matrix(1 0 0 1 451.5674 337.7554)" class="st11 st12 st16">depB.es6</text>
<text transform="matrix(1 0 0 1 492.6475 416.041)" class="st5 st14 st17">{}</text>
<g>
	<path class="st6" d="M965.8,159.9c1.3,1.3,2.5,3.1,3.4,5.4c1,2.3,1.4,4.4,1.4,6.3v82.3c0,1.9-0.7,3.5-2,4.9c-1.3,1.3-3,2-4.9,2h-96
		c-1.9,0-3.5-0.7-4.9-2c-1.3-1.3-2-3-2-4.9V139.6c0-1.9,0.7-3.5,2-4.9c1.3-1.3,3-2,4.9-2h64c1.9,0,4,0.5,6.3,1.4
		c2.3,1,4.1,2.1,5.4,3.4L965.8,159.9z M961.5,251.6v-73.1h-29.7c-1.9,0-3.5-0.7-4.9-2c-1.3-1.3-2-3-2-4.9v-29.7h-54.8v109.7H961.5z
		 M934.1,142.5v26.8h26.8c-0.5-1.4-1-2.4-1.6-2.9L937,144C936.4,143.5,935.4,142.9,934.1,142.5z"/>
</g>
<text transform="matrix(1 0 0 1 845.0925 105.0327)" class="st6 st12 st13">bundle.js</text>
<text transform="matrix(1 0 0 1 896.9373 220.9946)" class="st6 st14 st15">{}</text>
<path class="st5" d="M227.5,556.7c-0.6-1.5-1.2-2.8-2.1-3.7l-13.7-13.8c-0.9-0.9-2.1-1.6-3.7-2.3c-1.6-0.6-3-0.9-4.3-0.9h-39.7
	c-1.5,0-3.1,0.5-4.2,1.5c-1,1-1.9,2.3-1.9,3.8v70.8c0,1.5,0.9,2,1.9,3.1c1,1,2.7,0.8,4.2,0.8h59.5c1.5,0,2.3,0.2,3.3-0.8
	c1-1,1.1-1.6,1.1-3.1v-51C228,559.8,228.2,558.3,227.5,556.7z M206,544.9l13.9,13.1H206V544.9z M199.8,564.7c1,1,2.5,1.3,4,1.3H221
	v43h-56v-65h33v17.1C198,562.6,198.7,563.6,199.8,564.7z"/>
<text transform="matrix(1 0 0 1 125.6006 513.4248)" class="st11 st12 st16">header.nunj</text>
<text transform="matrix(1 0 0 1 176.4375 591.71)" class="st5 st14 st17">&lt;&gt;</text>
<path class="st5" d="M433,556.7c-0.6-1.5-1.4-2.8-2.3-3.7l-13.8-13.8c-0.9-0.9-2.2-1.6-3.7-2.3c-1.6-0.6-3-0.9-4.3-0.9h-39.7
	c-1.5,0-3.2,0.5-4.2,1.5c-1,1-2,2.3-2,3.8v70.8c0,1.5,0.9,2,2,3.1c1,1,2.7,0.8,4.2,0.8h59.5c1.5,0,2.8,0.2,3.8-0.8
	c1-1,1.6-1.6,1.6-3.1v-51C434,559.8,433.7,558.3,433,556.7z M410,544.9l15,13.1h-15V544.9z M404.8,564.7c1,1,2.5,1.3,4,1.3H426v43
	h-55v-65h32v17.1C403,562.6,403.7,563.6,404.8,564.7z"/>
<text transform="matrix(1 0 0 1 309.342 513.4248)" class="st11 st12 st16">breakpoints.yml</text>
<text transform="matrix(1 0 0 1 388.8828 591.71)" class="st5 st14 st17">--</text>
<line class="st7" x1="337.3" y1="275.3" x2="318.9" y2="302.8"/>
<line class="st7" x1="237.7" y1="455" x2="219.3" y2="482.5"/>
<line class="st7" x1="465.5" y1="455" x2="447.2" y2="482.5"/>
<line class="st7" x1="447.2" y1="275.3" x2="465.5" y2="302.8"/>
<line class="st7" x1="318.9" y1="455" x2="337.3" y2="482.5"/>
<g class="st8">
	<linearGradient id="SVGID_1_" gradientUnits="userSpaceOnUse" x1="468.5092" y1="196.7354" x2="823.5091" y2="196.7354">
		<stop  offset="0" style="stop-color:#FFFFFF"/>
		<stop  offset="0.7275" style="stop-color:#F7AA0A"/>
	</linearGradient>
	<path class="st9" d="M823.5,196.6c0,0.3-0.1,0.5-0.3,0.7l-11.8,10.9c-0.3,0.3-0.7,0.3-1.1,0.2c-0.4-0.2-0.6-0.5-0.6-0.9v-6.9H469.5
		c-0.3,0-0.5-0.1-0.7-0.3c-0.2-0.2-0.3-0.4-0.3-0.7v-5.9c0-0.3,0.1-0.5,0.3-0.7c0.2-0.2,0.4-0.3,0.7-0.3h340.3v-6.9
		c0-0.4,0.2-0.7,0.6-0.9c0.4-0.2,0.7-0.1,1.1,0.2l11.8,10.7C823.4,196.1,823.5,196.4,823.5,196.6z"/>
</g>
</svg>
